<?xml version="1.0" standalone="no"?>
<!DOCTYPE svg PUBLIC "-//W3C//DTD SVG 1.1//EN" "http://www.w3.org/Graphics/SVG/1.1/DTD/svg11.dtd" >
<svg xmlns="http://www.w3.org/2000/svg" xmlns:xlink="http://www.w3.org/1999/xlink" version="1.1">
<metadata>
Created by FontForge 20161003 at Thu Jan 18 11:10:23 2018
 By www-data
Copyright (C)2015 Commercial Type.
</metadata>
<defs>
<font id="GraphikLCGThin" horiz-adv-x="600" >
  <font-face 
    font-family="GraphikLCGThin"
    font-weight="100"
    font-stretch="normal"
    units-per-em="1000"
    panose-1="2 11 2 3 3 2 2 6 2 3"
    ascent="818"
    descent="-182"
    x-height="523"
    cap-height="715"
    bbox="-217 -210 1042 1068"
    underline-thickness="66"
    underline-position="-158"
    unicode-range="U+0020-FB02"
  />
<missing-glyph horiz-adv-x="500" 
 />
    <glyph glyph-name="f_f" unicode="ff" horiz-adv-x="584" 
d="M109 0v507h-85v16h85v95q0 78 40 113.5t99 35.5q28 0 52 -7v-17q-24 8 -52 8q-121 0 -121 -133v-95h249v104q0 78 40 113.5t99 35.5q28 0 52 -7v-17q-24 8 -52 8q-121 0 -121 -133v-104h166v-16h-166v-507h-18v507h-249v-507h-18z" />
    <glyph glyph-name=".notdef" horiz-adv-x="500" 
 />
    <glyph glyph-name=".null" horiz-adv-x="0" 
 />
    <glyph glyph-name="nonmarkingreturn" horiz-adv-x="333" 
 />
    <glyph glyph-name="space" unicode=" " horiz-adv-x="225" 
 />
    <glyph glyph-name="exclam" unicode="!" horiz-adv-x="254" 
d="M120 152l-2 563h20l-2 -563h-16zM127 -5q-7 0 -12 5t-5 12t5 12t12 5t12 -5t5 -12t-5 -12t-12 -5z" />
    <glyph glyph-name="quotedbl" unicode="&#x22;" horiz-adv-x="223" 
d="M150 548l-2 167h20l-2 -167h-16zM57 548l-2 167h20l-2 -167h-16z" />
    <glyph glyph-name="numbersign" unicode="#" horiz-adv-x="478" 
d="M177 512l-27 -186h148l27 186h-148zM265 99l31 211h-149l-30 -211h-17l31 211h-98v16h100l27 186h-99v16h102l27 187h17l-28 -187h149l27 187h17l-28 -187h101v-16h-103l-27 -186h102v-16h-105l-30 -211h-17z" />
    <glyph glyph-name="dollar" unicode="$" horiz-adv-x="582" 
d="M85 543q0 -67 44.5 -104t150.5 -54v319q-91 -2 -143 -43.5t-52 -117.5zM508 186q0 86 -47.5 124t-162.5 55v-354q99 1 154.5 50t55.5 125zM280 -135v129q-107 4 -167 57.5t-72 138.5h19q11 -77 65.5 -126t154.5 -53v356q-114 18 -164 60.5t-50 115.5q0 81 58.5 128.5
t155.5 49.5v92h18v-92q86 -3 138 -45t66 -114h-19q-13 65 -59.5 102.5t-125.5 39.5v-322q125 -18 177 -59.5t52 -136.5q0 -82 -61 -136.5t-168 -55.5v-129h-18z" />
    <glyph glyph-name="percent" unicode="%" horiz-adv-x="745" 
d="M195 415q-60 0 -103.5 41t-43.5 109t43.5 111t103.5 43q62 0 105 -42.5t43 -109.5q0 -69 -43.5 -110.5t-104.5 -41.5zM123 0l477 715h20l-477 -715h-20zM195 431q54 0 92 37t38 99q0 61 -37.5 98.5t-92.5 37.5q-53 0 -91 -38t-38 -100q0 -61 38 -97.5t91 -36.5zM547 -5
q-60 0 -103.5 41t-43.5 109t43.5 111t103.5 43q62 0 105 -42.5t43 -109.5q0 -69 -43.5 -110.5t-104.5 -41.5zM547 11q54 0 92 37t38 99q0 61 -37.5 98.5t-92.5 37.5q-53 0 -91 -38t-38 -100q0 -61 38 -97.5t91 -36.5z" />
    <glyph glyph-name="ampersand" unicode="&#x26;" horiz-adv-x="636" 
d="M165 573q0 -41 20 -78t63 -86q77 36 120 76t43 93q0 55 -32 89.5t-87 34.5t-91 -37t-36 -92zM245 10q126 0 211 134l-214 246q-177 -86 -177 -207q0 -75 48 -124t132 -49zM593 353l-115 -206l129 -147h-24l-114 130q-91 -137 -224 -137q-93 0 -146 53t-53 137
q0 75 50.5 126t134.5 93q-45 53 -65 90t-20 81q0 61 42 103.5t104 42.5q63 0 100.5 -41t37.5 -100q0 -58 -45 -100.5t-126 -80.5l207 -236l107 192h20z" />
    <glyph glyph-name="quotesingle" unicode="'" horiz-adv-x="130" 
d="M57 548l-2 167h20l-2 -167h-16z" />
    <glyph glyph-name="parenleft" unicode="(" horiz-adv-x="273" 
d="M222 -148q-164 195 -164 460q0 266 164 461h19q-165 -205 -165 -461q0 -255 165 -460h-19z" />
    <glyph glyph-name="parenright" unicode=")" horiz-adv-x="273" 
d="M32 -148q165 205 165 460q0 256 -165 461h19q164 -195 164 -461q0 -265 -164 -460h-19z" />
    <glyph glyph-name="asterisk" unicode="*" horiz-adv-x="412" 
d="M109 439l-15 12l100 124l-143 52l6 17l141 -54l-1 153h19l-1 -153l140 54l6 -17l-142 -52l98 -124l-15 -12l-96 125z" />
    <glyph glyph-name="plus" unicode="+" horiz-adv-x="500" 
d="M241 115v219h-204v16h204v219h18v-219h204v-16h-204v-219h-18z" />
    <glyph glyph-name="comma" unicode="," horiz-adv-x="166" 
d="M44 -109l-15 6l55 140l19 -7z" />
    <glyph glyph-name="hyphen" unicode="-" horiz-adv-x="332" 
d="M64 271v17h204v-17h-204z" />
    <glyph glyph-name="period" unicode="." horiz-adv-x="166" 
d="M83 -5q-7 0 -12 5t-5 12t5 12t12 5t12 -5t5 -12t-5 -12t-12 -5z" />
    <glyph glyph-name="slash" unicode="/" horiz-adv-x="376" 
d="M21 -148l291 924h19l-291 -924h-19z" />
    <glyph glyph-name="zero" unicode="0" horiz-adv-x="634" 
d="M317 -6q-127 0 -195.5 83t-68.5 238v84q0 154 68.5 238t192.5 84t195.5 -84t71.5 -235v-84q0 -157 -68 -240.5t-196 -83.5zM317 11q120 0 182.5 78t62.5 229v84q0 140 -66 221t-182 81q-115 0 -178.5 -79.5t-63.5 -225.5v-84q0 -149 64 -226.5t181 -77.5z" />
    <glyph glyph-name="one" unicode="1" horiz-adv-x="331" 
d="M188 0v689l-167 -112v18l177 120h8v-715h-18z" />
    <glyph glyph-name="two" unicode="2" horiz-adv-x="518" 
d="M21 0v5l291 294q66 66 94 120.5t28 114.5q0 83 -49.5 126.5t-130.5 43.5q-80 0 -132 -47t-62 -136h-18q8 95 66.5 147.5t145.5 52.5q88 0 143.5 -48.5t55.5 -138.5q0 -64 -30.5 -122t-95.5 -123l-272 -272h415v-17h-449z" />
    <glyph glyph-name="three" unicode="3" horiz-adv-x="524" 
d="M260 -6q-101 0 -162 58t-65 139h18q7 -77 61 -128.5t148 -51.5q91 0 144.5 48t53.5 137q0 74 -45.5 122t-133.5 48h-49v17h46q79 0 118 45.5t39 107.5q0 74 -44.5 121t-122.5 47q-80 0 -130 -47t-58 -119h-18q6 79 63.5 131t142.5 52q86 0 136 -52t50 -133
q0 -58 -33 -102.5t-89 -57.5q66 -12 106.5 -59.5t40.5 -120.5q0 -95 -59 -148.5t-158 -53.5z" />
    <glyph glyph-name="four" unicode="4" horiz-adv-x="569" 
d="M408 0v173h-381v5l367 537h33v-525h99v-17h-99v-173h-19zM57 190h351v514z" />
    <glyph glyph-name="five" unicode="5" horiz-adv-x="531" 
d="M253 -6q-95 0 -154 53t-66 126h18q8 -66 61.5 -114t140.5 -48q100 0 156 58.5t56 159.5q0 93 -57 152t-140 59q-119 0 -188 -88h-8v363h376v-17h-358v-312q27 29 74 50t104 21q92 0 154 -62.5t62 -165.5q0 -109 -62.5 -172t-168.5 -63z" />
    <glyph glyph-name="six" unicode="6" horiz-adv-x="577" 
d="M300 -6q-119 0 -179.5 74.5t-60.5 198.5v91q0 363 257 363q77 0 128.5 -37t62.5 -113h-18q-22 133 -173 133q-114 0 -176 -80t-62 -267v-64q22 73 85 112t134 39q113 0 173.5 -62t60.5 -161q0 -100 -64 -163.5t-168 -63.5zM300 11q97 0 155 58.5t58 151.5
q0 95 -54.5 150.5t-160.5 55.5q-86 0 -149.5 -54t-63.5 -145q0 -40 12 -76.5t36 -69t67 -52t100 -19.5z" />
    <glyph glyph-name="seven" unicode="7" horiz-adv-x="480" 
d="M153 0l286 698h-415v17h440v-5l-291 -710h-20z" />
    <glyph glyph-name="eight" unicode="8" horiz-adv-x="555" 
d="M278 -6q-101 0 -166.5 53t-65.5 148q0 76 51 126.5t133 63.5q-65 12 -108 54.5t-43 109.5q0 77 58 124.5t141 47.5q82 0 140 -47.5t58 -122.5q0 -69 -40 -111.5t-104 -54.5q80 -13 128.5 -62t48.5 -126q0 -97 -64 -150t-167 -53zM281 393q76 0 126 41t50 117
q0 67 -50.5 110t-128.5 43q-79 0 -129.5 -42.5t-50.5 -112.5q0 -73 55.5 -114.5t127.5 -41.5zM278 11q98 0 155 47.5t57 138.5q0 83 -60 131t-150 48t-152.5 -49t-62.5 -132q0 -89 59.5 -136.5t153.5 -47.5z" />
    <glyph glyph-name="nine" unicode="9" horiz-adv-x="574" 
d="M275 287q88 0 153.5 52.5t65.5 139.5q0 90 -54 157.5t-163 67.5q-97 0 -155 -58.5t-58 -151.5q0 -94 53.5 -150.5t157.5 -56.5zM271 -6q-78 0 -135 39.5t-72 115.5h19q15 -66 65 -102t123 -36q56 0 95 13.5t70.5 47.5t46.5 98t15 160v83q-23 -70 -86.5 -106.5
t-136.5 -36.5q-111 0 -170.5 61.5t-59.5 162.5q0 102 64 164.5t168 62.5q121 0 180.5 -75.5t59.5 -191.5v-125q0 -99 -16.5 -165.5t-50.5 -103t-76.5 -51.5t-102.5 -15z" />
    <glyph glyph-name="colon" unicode=":" horiz-adv-x="172" 
d="M86 352q-7 0 -12 5t-5 12t5 12t12 5t12 -5t5 -12t-5 -12t-12 -5zM86 -5q-7 0 -12 5t-5 12t5 12t12 5t12 -5t5 -12t-5 -12t-12 -5z" />
    <glyph glyph-name="semicolon" unicode=";" horiz-adv-x="172" 
d="M86 352q-7 0 -12 5t-5 12t5 12t12 5t12 -5t5 -12t-5 -12t-12 -5zM41 -109l-15 6l55 140l19 -7z" />
    <glyph glyph-name="less" unicode="&#x3c;" horiz-adv-x="487" 
d="M432 115l-384 204v6l384 204v-19l-356 -188l356 -188v-19z" />
    <glyph glyph-name="equal" unicode="=" horiz-adv-x="484" 
d="M40 385v16h404v-16h-404zM40 233v16h404v-16h-404z" />
    <glyph glyph-name="greater" unicode="&#x3e;" horiz-adv-x="487" 
d="M55 115v19l356 188l-356 188v19l384 -204v-6z" />
    <glyph glyph-name="question" unicode="?" horiz-adv-x="462" 
d="M198 152v66q0 53 21.5 88t75.5 89l12 12q32 32 46.5 49t28 47t13.5 65q0 62 -40.5 99t-117.5 37q-76 0 -125 -46t-55 -126h-19q5 87 60 138t140 51q83 0 129.5 -42t46.5 -111q0 -22 -4.5 -41.5t-9 -31.5t-18.5 -30.5t-19.5 -24.5t-27.5 -28.5t-28 -28.5
q-37 -38 -51.5 -55.5t-27 -46.5t-12.5 -64v-65h-18zM207 -5q-7 0 -12 5t-5 12t5 12t12 5t12 -5t5 -12t-5 -12t-12 -5z" />
    <glyph glyph-name="at" unicode="@" horiz-adv-x="902" 
d="M462 -147q-98 0 -178 34t-131 91t-78.5 130.5t-27.5 155.5q0 118 60 216.5t157 153t207 54.5q176 0 282 -104t106 -262q0 -124 -47.5 -186t-114.5 -62q-50 0 -80.5 30.5t-31.5 87.5q-16 -47 -59.5 -86.5t-101.5 -39.5q-69 0 -112.5 47t-43.5 127q0 98 57.5 165t133.5 67
q55 0 94 -34.5t47 -87.5l12 113h18l-26 -226q-9 -67 13.5 -107.5t79.5 -40.5q64 0 104 59t40 173q0 154 -99.5 252.5t-270.5 98.5q-165 0 -285.5 -118t-120.5 -290q0 -78 26 -148.5t74.5 -126t125 -88t171.5 -32.5q111 0 191.5 37t122.5 94h18q-39 -61 -126.5 -104
t-205.5 -43zM424 82q69 0 118.5 64.5t49.5 146.5q0 74 -36.5 118.5t-96.5 44.5q-69 0 -121 -62t-52 -154q0 -73 37.5 -115.5t100.5 -42.5z" />
    <glyph glyph-name="A" unicode="A" horiz-adv-x="630" 
d="M313 700l-170 -448h341zM30 0l270 715h26l274 -715h-19l-90 235h-354l-89 -235h-18z" />
    <glyph glyph-name="B" unicode="B" horiz-adv-x="582" 
d="M95 0v715h188q92 0 146.5 -45.5t54.5 -131.5v-4q0 -67 -37.5 -107t-100.5 -52q84 -11 129.5 -56t45.5 -122v-4q0 -93 -55.5 -143t-152.5 -50h-218zM114 382h172q84 0 131.5 40.5t47.5 111.5v4q0 78 -48 119t-134 41h-169v-316zM114 17h199q91 0 140 45.5t49 130.5v4
q0 82 -56 125t-160 43h-172v-348z" />
    <glyph glyph-name="C" unicode="C" horiz-adv-x="720" 
d="M380 -6q-149 0 -239.5 100t-90.5 259v8q0 155 96 257.5t233 102.5q111 0 188 -55.5t98 -155.5h-19q-21 92 -90.5 143t-176.5 51q-132 0 -221 -97t-89 -245v-8q0 -154 85 -248.5t226 -94.5q107 0 181.5 56.5t95.5 153.5h18q-21 -105 -102 -166t-193 -61z" />
    <glyph glyph-name="D" unicode="D" horiz-adv-x="675" 
d="M95 0v715h181q165 0 257 -98.5t92 -252.5v-8q0 -157 -90 -256.5t-261 -99.5h-179zM114 17h158q163 0 248.5 94t85.5 245v8q0 148 -85.5 241t-249.5 93h-157v-681z" />
    <glyph glyph-name="E" unicode="E" horiz-adv-x="566" 
d="M95 0v715h403v-17h-384v-320h313v-17h-313v-344h402v-17h-421z" />
    <glyph glyph-name="F" unicode="F" horiz-adv-x="534" 
d="M95 0v715h393v-17h-374v-320h297v-17h-297v-361h-19z" />
    <glyph glyph-name="G" unicode="G" horiz-adv-x="744" 
d="M390 -6q-156 0 -248 99.5t-92 259.5v8q0 156 97 258t238 102q105 0 182.5 -49.5t99.5 -145.5h-19q-23 88 -93.5 133t-169.5 45q-136 0 -226 -96.5t-90 -245.5v-8q0 -156 85.5 -249.5t235.5 -93.5q137 0 211 76.5t74 220.5v9h-233v17h252v-26q0 -151 -81.5 -232.5
t-222.5 -81.5z" />
    <glyph glyph-name="H" unicode="H" horiz-adv-x="702" 
d="M95 0v715h19v-344h474v344h19v-715h-19v354h-474v-354h-19z" />
    <glyph glyph-name="I" unicode="I" horiz-adv-x="219" 
d="M100 0v715h19v-715h-19z" />
    <glyph glyph-name="J" unicode="J" horiz-adv-x="378" 
d="M136 -4q-57 0 -101 21v18q48 -22 101 -22q144 0 144 152v550h19v-550q0 -86 -43 -127.5t-120 -41.5z" />
    <glyph glyph-name="K" unicode="K" horiz-adv-x="579" 
d="M95 0v715h19v-715h-19zM521 0l-397 365l380 350h24l-379 -349l397 -366h-25z" />
    <glyph glyph-name="L" unicode="L" horiz-adv-x="525" 
d="M95 0v715h19v-698h371v-17h-390z" />
    <glyph glyph-name="M" unicode="M" horiz-adv-x="846" 
d="M95 0v715h31l289 -680l298 680h30v-715h-19v695l-305 -695h-9l-296 695v-695h-19z" />
    <glyph glyph-name="N" unicode="N" horiz-adv-x="701" 
d="M95 0v715h31l461 -693v693h19v-715h-26l-466 700v-700h-19z" />
    <glyph glyph-name="O" unicode="O" horiz-adv-x="790" 
d="M397 -6q-147 0 -247 104.5t-100 254.5v8q0 152 100.5 256t244.5 104t244.5 -103.5t100.5 -253.5v-8q0 -151 -100 -256.5t-243 -105.5zM397 11q138 0 231 99.5t93 245.5v8q0 144 -93.5 242t-232.5 98q-140 0 -233 -99t-93 -244v-8q0 -144 94 -243t234 -99z" />
    <glyph glyph-name="P" unicode="P" horiz-adv-x="552" 
d="M95 0v715h172q236 0 236 -191v-4q0 -197 -233 -197h-157v-323h-18zM113 340h157q214 0 214 180v4q0 174 -217 174h-154v-358z" />
    <glyph glyph-name="Q" unicode="Q" horiz-adv-x="790" 
d="M688 -26l-87 89q-89 -69 -204 -69q-147 0 -247 104.5t-100 254.5v8q0 152 100.5 256t244.5 104t244.5 -103.5t100.5 -253.5v-8q0 -85 -33.5 -158t-92.5 -124l86 -88zM397 11q109 0 192 64l-123 128l12 12l124 -129q119 103 119 270v8q0 144 -93.5 242t-232.5 98
q-140 0 -233 -99t-93 -244v-8q0 -144 94 -243t234 -99z" />
    <glyph glyph-name="R" unicode="R" horiz-adv-x="581" 
d="M113 360h154q217 0 217 168v4q0 166 -217 166h-154v-338zM95 0v715h172q236 0 236 -183v-4q0 -166 -195 -183l237 -345h-22l-236 343h-174v-343h-18z" />
    <glyph glyph-name="S" unicode="S" horiz-adv-x="572" 
d="M292 -6q-115 0 -179 54t-77 142h19q12 -80 70 -129.5t167 -49.5q99 0 155 49.5t56 125.5q0 88 -47.5 125t-166.5 54t-170.5 60t-51.5 118q0 83 59.5 130.5t159.5 47.5q90 0 143.5 -42t67.5 -117h-19q-28 142 -192 142q-94 0 -147 -41t-53 -120q0 -68 47 -106t159 -54
q127 -18 178.5 -59.5t51.5 -137.5q0 -82 -61.5 -137t-168.5 -55z" />
    <glyph glyph-name="T" unicode="T" horiz-adv-x="557" 
d="M269 0v698h-238v17h495v-17h-238v-698h-19z" />
    <glyph glyph-name="U" unicode="U" horiz-adv-x="666" 
d="M334 -4q-119 0 -187 65.5t-68 188.5v465h19v-464q0 -116 61.5 -177t174.5 -61q234 0 234 251v451h19v-454q0 -128 -63 -196.5t-190 -68.5z" />
    <glyph glyph-name="V" unicode="V" horiz-adv-x="616" 
d="M305 0l-277 715h19l269 -694l254 694h18l-261 -715h-22z" />
    <glyph glyph-name="W" unicode="W" horiz-adv-x="910" 
d="M224 0l-193 715h19l186 -692l213 692h13l198 -694l202 694h17l-208 -715h-24l-192 676l-208 -676h-23z" />
    <glyph glyph-name="X" unicode="X" horiz-adv-x="632" 
d="M47 0l259 374l-233 341h21l225 -329l224 329h21l-234 -343l255 -372h-21l-247 360l-249 -360h-21z" />
    <glyph glyph-name="Y" unicode="Y" horiz-adv-x="554" 
d="M275 0v325l-253 390h21l242 -372l227 372h20l-238 -390v-325h-19z" />
    <glyph glyph-name="Z" unicode="Z" horiz-adv-x="577" 
d="M26 0v7l487 691h-451v17h480v-7l-487 -691h481v-17h-510z" />
    <glyph glyph-name="bracketleft" unicode="[" horiz-adv-x="322" 
d="M99 -148v924h184v-16h-166v-892h166v-16h-184z" />
    <glyph glyph-name="backslash" unicode="\" horiz-adv-x="376" 
d="M336 -148l-291 924h19l291 -924h-19z" />
    <glyph glyph-name="bracketright" unicode="]" horiz-adv-x="322" 
d="M39 -148v16h166v892h-166v16h184v-924h-184z" />
    <glyph glyph-name="asciicircum" unicode="^" horiz-adv-x="445" 
d="M48 438l167 277h15l167 -277h-20l-154 257l-155 -257h-20z" />
    <glyph glyph-name="underscore" unicode="_" horiz-adv-x="384" 
d="M-1 -142v17h386v-17h-386z" />
    <glyph glyph-name="grave" unicode="`" horiz-adv-x="400" 
d="M192 596l-78 147h20l75 -147h-17z" />
    <glyph glyph-name="a" unicode="a" horiz-adv-x="515" 
d="M228 9q78 0 136 43t58 100v124h-149q-97 0 -152.5 -30t-55.5 -109q0 -62 43 -95t120 -33zM228 -7q-84 0 -132.5 38t-48.5 106q0 155 226 155h149v55q0 86 -38.5 126.5t-118.5 40.5q-69 0 -117 -32.5t-60 -98.5h-17q9 70 64 108.5t130 38.5q175 0 175 -183v-347h-18v96
q-22 -44 -73 -73.5t-121 -29.5z" />
    <glyph glyph-name="b" unicode="b" horiz-adv-x="594" 
d="M322 -7q-86 0 -144 49t-80 116v-158h-18v773h18v-413q23 71 84 120.5t140 49.5q97 0 164 -73t67 -192v-8q0 -122 -66.5 -193t-164.5 -71zM322 9q92 0 152.5 67t60.5 181v8q0 114 -62 181.5t-151 67.5q-87 0 -155.5 -69t-68.5 -180v-8q0 -111 66 -179.5t158 -68.5z" />
    <glyph glyph-name="c" unicode="c" horiz-adv-x="539" 
d="M283 -7q-102 0 -172 74t-70 190v8q0 117 70.5 191t173.5 74q80 0 139.5 -45.5t69.5 -118.5h-18q-9 68 -63.5 108t-127.5 40q-96 0 -161 -68t-65 -181v-8q0 -111 65 -179.5t159 -68.5q78 0 133 43.5t68 120.5h17q-13 -82 -73.5 -131t-144.5 -49z" />
    <glyph glyph-name="d" unicode="d" horiz-adv-x="594" 
d="M275 9q91 0 156 68t65 180v8q0 114 -60.5 181.5t-152.5 67.5q-94 0 -159 -67.5t-65 -181.5v-8q0 -114 60.5 -181t155.5 -67zM275 -7q-101 0 -167.5 70.5t-66.5 193.5v8q0 119 70 192t172 73q84 0 136.5 -45.5t76.5 -114.5v403h18v-773h-18v157q-21 -66 -78 -115t-143 -49
z" />
    <glyph glyph-name="e" unicode="e" horiz-adv-x="537" 
d="M282 -7q-113 0 -177 73t-64 191v8q0 116 66 190.5t168 74.5q100 0 160.5 -66.5t60.5 -182.5v-11h-437q0 -123 58 -192t165 -69q72 0 123 34t69 98h18q-19 -70 -75 -109t-135 -39zM59 286h419q-1 110 -56 169t-147 59q-91 0 -151.5 -62.5t-64.5 -165.5z" />
    <glyph glyph-name="f" unicode="f" horiz-adv-x="317" 
d="M109 0v507h-85v16h85v104q0 78 40 113.5t99 35.5q28 0 52 -7v-17q-24 8 -52 8q-121 0 -121 -133v-104h166v-16h-166v-507h-18z" />
    <glyph glyph-name="g" unicode="g" horiz-adv-x="594" 
d="M275 33q92 0 156.5 64.5t64.5 171.5v8q0 109 -60.5 173t-152.5 64q-94 0 -159 -63.5t-65 -173.5v-8q0 -110 60.5 -173t155.5 -63zM283 -185q-104 0 -162.5 44.5t-68.5 110.5h18q12 -62 64.5 -100.5t147.5 -38.5q98 0 156 48.5t58 154.5v142q-20 -64 -78 -111.5
t-143 -47.5q-101 0 -167.5 67t-66.5 185v8q0 114 70 183.5t172 69.5q84 0 136.5 -43.5t76.5 -110.5v147h18v-489q0 -112 -63 -165.5t-168 -53.5z" />
    <glyph glyph-name="h" unicode="h" horiz-adv-x="565" 
d="M80 0v773h18v-375q19 54 75.5 93t128.5 39q89 0 138.5 -51t49.5 -156v-323h-18v323q0 97 -44.5 144t-125.5 47q-80 0 -142 -53t-62 -144v-317h-18z" />
    <glyph glyph-name="i" unicode="i" horiz-adv-x="182" 
d="M91 639q-7 0 -12 5t-5 12t5 12t12 5t12 -5t5 -12t-5 -12t-12 -5zM82 0v523h18v-523h-18z" />
    <glyph glyph-name="j" unicode="j" horiz-adv-x="182" 
d="M91 639q-7 0 -12 5t-5 12t5 12t12 5t12 -5t5 -12t-5 -12t-12 -5zM5 -184v16q43 4 60 27t17 75v589h18v-589q0 -60 -21.5 -88t-73.5 -30z" />
    <glyph glyph-name="k" unicode="k" horiz-adv-x="452" 
d="M80 0v773h18v-773h-18zM410 0l-307 277l293 246h24l-292 -246l307 -277h-25z" />
    <glyph glyph-name="l" unicode="l" horiz-adv-x="182" 
d="M82 0v773h18v-773h-18z" />
    <glyph glyph-name="m" unicode="m" horiz-adv-x="897" 
d="M80 0v523h18v-122q19 54 69.5 91.5t119.5 37.5q144 0 168 -139q22 62 73.5 100.5t120.5 38.5q85 0 129 -47.5t44 -152.5v-330h-18v330q0 97 -39 140.5t-116 43.5q-76 0 -132.5 -53t-56.5 -144v-317h-18v330q0 97 -39 140.5t-116 43.5q-76 0 -132.5 -53t-56.5 -144v-317
h-18z" />
    <glyph glyph-name="n" unicode="n" horiz-adv-x="565" 
d="M80 0v523h18v-125q19 54 75.5 93t128.5 39q89 0 138.5 -51t49.5 -156v-323h-18v323q0 97 -44.5 144t-125.5 47q-80 0 -142 -53t-62 -144v-317h-18z" />
    <glyph glyph-name="o" unicode="o" horiz-adv-x="576" 
d="M287 -7q-102 0 -174 75t-72 189v8q0 115 73.5 189.5t175.5 74.5t173.5 -73t71.5 -190v-8q0 -116 -73 -190.5t-175 -74.5zM288 9q95 0 162 68.5t67 180.5v8q0 114 -66.5 180.5t-160.5 66.5q-95 0 -163 -68.5t-68 -179.5v-8q0 -110 67 -179t162 -69z" />
    <glyph glyph-name="p" unicode="p" horiz-adv-x="594" 
d="M322 9q92 0 152.5 67t60.5 181v8q0 114 -62 181.5t-151 67.5q-87 0 -155.5 -69t-68.5 -180v-8q0 -111 66 -179.5t158 -68.5zM80 -182v705h18v-163q23 71 84 120.5t140 49.5q97 0 164 -73t67 -192v-8q0 -122 -66.5 -193t-164.5 -71q-86 0 -144 49t-80 116v-340h-18z" />
    <glyph glyph-name="q" unicode="q" horiz-adv-x="594" 
d="M496 -182v339q-21 -66 -78 -115t-143 -49q-101 0 -167.5 70.5t-66.5 193.5v8q0 119 70 192t172 73q84 0 136.5 -45.5t76.5 -114.5v153h18v-705h-18zM275 9q91 0 156 68t65 180v8q0 114 -60.5 181.5t-152.5 67.5q-94 0 -159 -67.5t-65 -181.5v-8q0 -114 60.5 -181
t155.5 -67z" />
    <glyph glyph-name="r" unicode="r" horiz-adv-x="316" 
d="M80 0v523h18v-129q19 56 66 93.5t117 39.5v-16q-79 -2 -131 -56.5t-52 -161.5v-293h-18z" />
    <glyph glyph-name="s" unicode="s" horiz-adv-x="448" 
d="M231 -9q-87 0 -138.5 44t-58.5 116h17q10 -65 55 -104.5t125 -39.5q72 0 114 36.5t42 90.5q0 60 -32 85.5t-122 41.5q-96 17 -137.5 45.5t-41.5 92.5q0 58 47.5 94t120.5 36q151 0 173 -131h-17q-22 115 -157 115q-67 0 -108.5 -31t-41.5 -83q0 -55 37 -80.5t130 -41.5
q92 -17 130 -47t38 -96q0 -61 -48 -102t-127 -41z" />
    <glyph glyph-name="t" unicode="t" horiz-adv-x="319" 
d="M214 -7q-53 0 -82.5 32t-29.5 95v387h-80v16h80v119h18v-119h154v-16h-154v-387q0 -111 94 -111q34 0 67 11v-16q-31 -11 -67 -11z" />
    <glyph glyph-name="u" unicode="u" horiz-adv-x="561" 
d="M262 -7q-187 0 -187 200v330h18v-330q0 -184 169 -184q80 0 140.5 52t60.5 142v320h18v-523h-18v121q-19 -54 -73.5 -91t-127.5 -37z" />
    <glyph glyph-name="v" unicode="v" horiz-adv-x="499" 
d="M238 0l-212 523h19l206 -507l204 507h18l-209 -523h-26z" />
    <glyph glyph-name="w" unicode="w" horiz-adv-x="755" 
d="M196 0l-166 523h19l160 -502l162 502h14l160 -502l162 502h18l-168 -523h-24l-155 491l-158 -491h-24z" />
    <glyph glyph-name="x" unicode="x" horiz-adv-x="491" 
d="M31 0l201 272l-189 251h22l179 -239l175 239h21l-185 -251l205 -272h-22l-195 260l-191 -260h-21z" />
    <glyph glyph-name="y" unicode="y" horiz-adv-x="483" 
d="M145 -182l90 217l-209 488h19l200 -467l193 467h19l-293 -705h-19z" />
    <glyph glyph-name="z" unicode="z" horiz-adv-x="463" 
d="M27 0v5l376 502h-346v16h376v-5l-376 -502h367v-16h-397z" />
    <glyph glyph-name="braceleft" unicode="{" horiz-adv-x="341" 
d="M302 -144q-98 0 -140 42.5t-21 144.5l26 126q28 138 -123 139v16q151 1 123 139l-26 126q-21 102 21 144.5t140 42.5v-16q-90 -1 -127 -37t-17 -131l26 -126q25 -124 -89 -150q114 -26 89 -150l-26 -126q-20 -95 17 -131t127 -37v-16z" />
    <glyph glyph-name="bar" unicode="|" horiz-adv-x="226" 
d="M104 -148v924h18v-924h-18z" />
    <glyph glyph-name="braceright" unicode="}" horiz-adv-x="341" 
d="M39 -144v16q90 1 127 37t17 131l-26 126q-25 124 89 150q-114 26 -89 150l26 126q20 95 -17 131t-127 37v16q98 0 140 -42.5t21 -144.5l-26 -126q-28 -138 123 -139v-16q-151 -1 -123 -139l26 -126q21 -102 -21 -144.5t-140 -42.5z" />
    <glyph glyph-name="asciitilde" unicode="~" horiz-adv-x="429" 
d="M49 242q6 39 28 64t57 25q32 0 83.5 -35.5t78.5 -35.5t44.5 21.5t21.5 51.5h18q-6 -39 -28 -64t-57 -25q-33 0 -84 35.5t-78 35.5t-44.5 -21.5t-21.5 -51.5h-18z" />
    <glyph glyph-name="uni00A0" unicode="&#xa0;" horiz-adv-x="225" 
 />
    <glyph glyph-name="exclamdown" unicode="&#xa1;" horiz-adv-x="254" 
d="M127 569q-7 0 -12 5t-5 12t5 12t12 5t12 -5t5 -12t-5 -12t-12 -5zM116 -117l2 563h16l2 -563h-20z" />
    <glyph glyph-name="cent" unicode="&#xa2;" horiz-adv-x="539" 
d="M59 257q0 -112 61.5 -178.5t153.5 -69.5v505q-93 -4 -154 -69.5t-61 -179.5v-8zM274 -135v128q-101 4 -167 75t-66 189v8q0 118 66.5 189.5t166.5 75.5v99h18v-99q78 -2 135 -47t67 -117h-18q-9 66 -61 106t-123 42v-505q74 2 126.5 45.5t65.5 118.5h17
q-13 -80 -70.5 -128.5t-138.5 -51.5v-128h-18z" />
    <glyph glyph-name="sterling" unicode="&#xa3;" horiz-adv-x="581" 
d="M51 342v16h78q-31 103 -31 163q0 91 58.5 145.5t152.5 54.5t145.5 -47t60.5 -129h-18q-22 159 -188 159q-85 0 -138.5 -51t-53.5 -132q0 -63 32 -163h247v-16h-242q24 -79 24 -143q0 -57 -26 -104h7q41 0 126 -42t131 -42q53 0 83.5 33.5t34.5 92.5h19q-4 -67 -41.5 -105
t-95.5 -38q-51 0 -135 42t-122 42t-63 -21.5t-30 -56.5h-20q6 34 27.5 59t56.5 33q29 48 29 107q0 58 -25 143h-83z" />
    <glyph glyph-name="yen" unicode="&#xa5;" horiz-adv-x="516" 
d="M59 333v16h191l-222 366h21l217 -358l202 358h20l-207 -366h187v-16h-193v-120h193v-16h-193v-197h-19v197h-197v16h197v120h-197z" />
    <glyph glyph-name="brokenbar" unicode="&#xa6;" horiz-adv-x="226" 
d="M104 367v409h18v-409h-18zM104 -148v445h18v-445h-18z" />
    <glyph glyph-name="section" unicode="&#xa7;" horiz-adv-x="530" 
d="M324 151q136 26 136 127q0 54 -38 83t-129 58l-76 26q-65 -11 -106 -43.5t-41 -85.5q0 -58 40 -86t132 -55zM266 -137q-75 0 -125 37.5t-56 103.5h19q5 -58 49.5 -91t112.5 -33q69 0 105.5 34.5t36.5 93.5q0 64 -37 94.5t-132 55.5q-96 26 -142 59t-46 99q0 54 42 91
t104 48q-42 23 -62 51.5t-20 77.5q0 62 46 101t114 39t107.5 -34.5t45.5 -98.5h-18q-12 116 -135 116q-59 0 -100 -32t-41 -91t35.5 -89.5t126.5 -58.5q94 -29 138.5 -63t44.5 -95q0 -109 -136 -138q84 -38 84 -132q0 -67 -42.5 -106t-118.5 -39z" />
    <glyph glyph-name="dieresis" unicode="&#xa8;" horiz-adv-x="400" 
d="M271 639q-7 0 -12 5t-5 12t5 12t12 5t12 -5t5 -12t-5 -12t-12 -5zM129 639q-7 0 -12 5t-5 12t5 12t12 5t12 -5t5 -12t-5 -12t-12 -5z" />
    <glyph glyph-name="copyright" unicode="&#xa9;" horiz-adv-x="844" 
d="M421 -9q-153 0 -259.5 105.5t-106.5 260.5q0 153 107 260t261 107q155 0 260.5 -106t105.5 -259q0 -156 -106.5 -262t-261.5 -106zM421 6q148 0 249.5 101.5t101.5 251.5q0 147 -100.5 248.5t-248.5 101.5q-147 0 -249 -102.5t-102 -249.5q0 -149 101.5 -250t247.5 -101z
M425 146q-89 0 -143.5 59.5t-54.5 154.5v6q0 92 57.5 153t139.5 61q67 0 113.5 -33.5t58.5 -94.5h-18q-12 53 -52 82.5t-102 29.5q-76 0 -127.5 -56t-51.5 -142v-6q0 -89 49 -143.5t131 -54.5q62 0 104.5 32.5t54.5 89.5h17q-12 -64 -60 -101t-116 -37z" />
    <glyph glyph-name="ordfeminine" unicode="&#xaa;" horiz-adv-x="417" 
d="M183 332q58 0 100.5 31.5t42.5 74.5v88h-107q-74 0 -114.5 -21.5t-40.5 -79.5q0 -45 31 -69t88 -24zM182 316q-62 0 -99 29t-37 80q0 117 173 117h107v41q0 63 -28 92.5t-87 29.5q-111 0 -129 -95h-18q7 53 48.5 82t99.5 29q132 0 132 -138v-262h-18v71
q-17 -32 -54.5 -54t-89.5 -22z" />
    <glyph glyph-name="guillemotleft" unicode="&#xab;" horiz-adv-x="387" 
d="M323 83l-140 178l140 178h21l-140 -178l140 -178h-21zM189 83l-140 178l140 178h21l-140 -178l140 -178h-21z" />
    <glyph glyph-name="registered" unicode="&#xae;" horiz-adv-x="514" 
d="M257 282q-93 0 -157.5 63.5t-64.5 156.5q0 92 64.5 157t157.5 65q94 0 158 -64t64 -157t-64.5 -157t-157.5 -64zM257 297q87 0 146 59.5t59 146.5t-59 146.5t-146 59.5q-86 0 -145.5 -60.5t-59.5 -146.5q0 -87 59.5 -146t145.5 -59zM204 514h54q62 0 62 48v1q0 49 -62 49
h-54v-98zM185 387v243h72q38 0 60.5 -17.5t22.5 -49.5v-1q0 -55 -65 -63l78 -112h-22l-78 111h-49v-111h-19z" />
    <glyph glyph-name="macron" unicode="&#xaf;" horiz-adv-x="400" 
d="M90 646v17h219v-17h-219z" />
    <glyph glyph-name="degree" unicode="&#xb0;" horiz-adv-x="384" 
d="M192 452q-58 0 -99 39.5t-41 95.5t41 96.5t99 40.5t99 -40.5t41 -96.5t-41 -95.5t-99 -39.5zM192 468q51 0 86.5 35t35.5 84q0 50 -35.5 85.5t-86.5 35.5t-86.5 -35.5t-35.5 -85.5q0 -49 35.5 -84t86.5 -35z" />
    <glyph glyph-name="plusminus" unicode="&#xb1;" horiz-adv-x="500" 
d="M241 115v219h-204v16h204v219h18v-219h204v-16h-204v-219h-18zM37 0v16h426v-16h-426z" />
    <glyph glyph-name="twosuperior" unicode="&#xb2;" horiz-adv-x="288" 
d="M24 370v7l131 126q40 39 56.5 65t16.5 56q0 37 -23.5 58t-61.5 21q-42 0 -65.5 -24.5t-28.5 -67.5h-17q4 50 33.5 78.5t77.5 28.5q46 0 74.5 -26t28.5 -68q0 -35 -17 -62.5t-62 -69.5l-111 -106h194v-16h-226z" />
    <glyph glyph-name="threesuperior" unicode="&#xb3;" horiz-adv-x="305" 
d="M154 367q-54 0 -88.5 28.5t-37.5 69.5h18q4 -34 32.5 -58t75.5 -24q44 0 69.5 21.5t25.5 60.5q0 34 -24 56t-64 22h-27v16h25q37 0 57.5 20.5t20.5 50.5q0 33 -23.5 53t-61.5 20q-43 0 -66.5 -22t-27.5 -57h-17q3 40 32.5 67t78.5 27q46 0 74.5 -25t28.5 -63
q0 -30 -16.5 -50.5t-44.5 -27.5q32 -6 52.5 -29t20.5 -58q0 -46 -31 -72t-82 -26z" />
    <glyph glyph-name="acute" unicode="&#xb4;" horiz-adv-x="400" 
d="M191 596l75 147h20l-78 -147h-17z" />
    <glyph glyph-name="mu" unicode="&#xb5;" horiz-adv-x="566" 
d="M80 -182v705h18v-340q0 -90 49 -132t130 -42q79 0 135 51.5t56 142.5v320h18v-523h-18v121q-19 -55 -69 -91.5t-122 -36.5q-140 0 -179 105v-280h-18z" />
    <glyph glyph-name="paragraph" unicode="&#xb6;" horiz-adv-x="526" 
d="M266 -100v461h-14q-95 0 -151.5 44.5t-56.5 128.5q0 88 57.5 134.5t150.5 46.5h179v-815h-18v799h-129v-799h-18z" />
    <glyph glyph-name="periodcentered" unicode="&#xb7;" horiz-adv-x="166" 
d="M83 303q-7 0 -12 5t-5 12t5 12t12 5t12 -5t5 -12t-5 -12t-12 -5z" />
    <glyph glyph-name="cedilla" unicode="&#xb8;" horiz-adv-x="400" 
d="M212 -210q-36 0 -61 19.5t-29 52.5h19q3 -26 21.5 -41t49.5 -15t49 16.5t18 42.5q0 55 -64 55q-27 0 -46 -12l-9 8l48 84h18l-41 -71q42 14 76.5 -3t34.5 -61q0 -35 -23.5 -55t-60.5 -20z" />
    <glyph glyph-name="onesuperior" unicode="&#xb9;" horiz-adv-x="200" 
d="M113 370v320l-95 -68v19l103 74h10v-345h-18z" />
    <glyph glyph-name="ordmasculine" unicode="&#xba;" horiz-adv-x="454" 
d="M226 316q-77 0 -131 56t-54 143v6q0 89 54.5 144t132.5 55q79 0 132 -53.5t53 -144.5v-6q0 -90 -54 -145t-133 -55zM227 332q71 0 119.5 50t48.5 134v6q0 84 -48 133t-119 49q-70 0 -119.5 -50.5t-49.5 -132.5v-6q0 -81 49 -132t119 -51z" />
    <glyph glyph-name="guillemotright" unicode="&#xbb;" horiz-adv-x="387" 
d="M177 83l140 178l-140 178h21l140 -178l-140 -178h-21zM43 83l140 178l-140 178h21l140 -178l-140 -178h-21z" />
    <glyph glyph-name="onequarter" unicode="&#xbc;" horiz-adv-x="641" 
d="M116 370v320l-95 -68v19l103 74h10v-345h-18zM42 0l527 715h20l-527 -715h-20zM542 0v80h-186v6l177 259h27v-249h48v-16h-48v-80h-18zM382 96h160v236z" />
    <glyph glyph-name="onehalf" unicode="&#xbd;" horiz-adv-x="651" 
d="M119 370v320l-95 -68v19l103 74h10v-345h-18zM22 0l527 715h20l-527 -715h-20zM384 0v7l131 126q40 39 56.5 65t16.5 56q0 37 -23.5 58t-61.5 21q-42 0 -65.5 -24.5t-28.5 -67.5h-17q4 50 33.5 78.5t77.5 28.5q46 0 74.5 -26t28.5 -68q0 -35 -17 -62.5t-62 -69.5
l-111 -106h194v-16h-226z" />
    <glyph glyph-name="threequarters" unicode="&#xbe;" horiz-adv-x="668" 
d="M157 367q-54 0 -88.5 28.5t-37.5 69.5h18q4 -34 32.5 -58t75.5 -24q44 0 69.5 21.5t25.5 60.5q0 34 -24 56t-64 22h-27v16h25q37 0 57.5 20.5t20.5 50.5q0 33 -23.5 53t-61.5 20q-43 0 -66.5 -22t-27.5 -57h-17q3 40 32.5 67t78.5 27q46 0 74.5 -25t28.5 -63
q0 -30 -16.5 -50.5t-44.5 -27.5q32 -6 52.5 -29t20.5 -58q0 -46 -31 -72t-82 -26zM88 0l527 715h20l-527 -715h-20zM562 0v80h-186v6l177 259h27v-249h48v-16h-48v-80h-18zM402 96h160v236z" />
    <glyph glyph-name="questiondown" unicode="&#xbf;" horiz-adv-x="462" 
d="M255 603q7 0 12 -5t5 -12t-5 -12t-12 -5t-12 5t-5 12t5 12t12 5zM264 446v-66q0 -53 -21.5 -88t-75.5 -89l-12 -12q-32 -32 -46.5 -49t-28 -47t-13.5 -65q0 -62 40.5 -99t117.5 -37q76 0 125 46t55 126h19q-5 -87 -60 -138t-140 -51q-83 0 -129.5 42t-46.5 111
q0 22 4.5 41.5t9 31.5t18.5 30.5t19.5 24.5t27.5 28.5t28 28.5q37 38 51.5 55.5t27 46.5t12.5 64v65h18z" />
    <glyph glyph-name="Agrave" unicode="&#xc0;" horiz-adv-x="630" 
d="M313 700l-170 -448h341zM30 0l270 715h26l274 -715h-19l-90 235h-354l-89 -235h-18zM304 771l-76 117h21l73 -117h-18z" />
    <glyph glyph-name="Aacute" unicode="&#xc1;" horiz-adv-x="630" 
d="M313 700l-170 -448h341zM30 0l270 715h26l274 -715h-19l-90 235h-354l-89 -235h-18zM291 771l73 117h21l-76 -117h-18z" />
    <glyph glyph-name="Acircumflex" unicode="&#xc2;" horiz-adv-x="630" 
d="M313 700l-170 -448h341zM30 0l270 715h26l274 -715h-19l-90 235h-354l-89 -235h-18zM185 771l113 117h20l111 -117h-20l-101 101l-103 -101h-20z" />
    <glyph glyph-name="Atilde" unicode="&#xc3;" horiz-adv-x="630" 
d="M313 700l-170 -448h341zM30 0l270 715h26l274 -715h-19l-90 235h-354l-89 -235h-18zM378 773q-28 0 -74 32.5t-66 32.5q-47 0 -54 -63h-17q10 79 71 79q26 0 72.5 -32.5t67.5 -32.5q46 0 53 63h17q-10 -79 -70 -79z" />
    <glyph glyph-name="Adieresis" unicode="&#xc4;" horiz-adv-x="630" 
d="M313 700l-170 -448h341zM30 0l270 715h26l274 -715h-19l-90 235h-354l-89 -235h-18zM384 787q-7 0 -12 5t-5 12t5 12t12 5t12 -5t5 -12t-5 -12t-12 -5zM230 787q-7 0 -12 5t-5 12t5 12t12 5t12 -5t5 -12t-5 -12t-12 -5z" />
    <glyph glyph-name="Aring" unicode="&#xc5;" horiz-adv-x="630" 
d="M313 700l-170 -448h341zM30 0l270 715h26l274 -715h-19l-90 235h-354l-89 -235h-18zM307 749q-35 0 -61 25.5t-26 59.5q0 35 26 60.5t61 25.5q37 0 62.5 -25.5t25.5 -60.5t-25.5 -60t-62.5 -25zM307 764q30 0 50.5 20.5t20.5 49.5q0 31 -20.5 51t-50.5 20
q-29 0 -49.5 -20.5t-20.5 -50.5q0 -29 20.5 -49.5t49.5 -20.5z" />
    <glyph glyph-name="AE" unicode="&#xc6;" horiz-adv-x="941" 
d="M396 698l-222 -446h296v446h-74zM28 0l355 715h490v-17h-384v-320h313v-17h-313v-344h402v-17h-421v235h-304l-117 -235h-21z" />
    <glyph glyph-name="Ccedilla" unicode="&#xc7;" horiz-adv-x="720" 
d="M361 -210q-36 0 -61 19.5t-29 52.5h19q3 -26 21.5 -41t49.5 -15t49 16.5t18 42.5q0 55 -64 55q-27 0 -46 -12l-9 8l45 79q-138 9 -221 107.5t-83 250.5v8q0 155 96 257.5t233 102.5q111 0 188 -55.5t98 -155.5h-19q-21 92 -90.5 143t-176.5 51q-132 0 -221 -97t-89 -245
v-8q0 -154 85 -248.5t226 -94.5q107 0 181.5 56.5t95.5 153.5h18q-21 -105 -102 -166t-193 -61q-2 0 -5 0.5t-4 0.5l-37 -66q42 14 76.5 -3t34.5 -61q0 -35 -23.5 -55t-60.5 -20z" />
    <glyph glyph-name="Egrave" unicode="&#xc8;" horiz-adv-x="566" 
d="M95 0v715h403v-17h-384v-320h313v-17h-313v-344h402v-17h-421zM289 771l-76 117h21l73 -117h-18z" />
    <glyph glyph-name="Eacute" unicode="&#xc9;" horiz-adv-x="566" 
d="M95 0v715h403v-17h-384v-320h313v-17h-313v-344h402v-17h-421zM276 771l73 117h21l-76 -117h-18z" />
    <glyph glyph-name="Ecircumflex" unicode="&#xca;" horiz-adv-x="566" 
d="M95 0v715h403v-17h-384v-320h313v-17h-313v-344h402v-17h-421zM170 771l113 117h20l111 -117h-20l-101 101l-103 -101h-20z" />
    <glyph glyph-name="Edieresis" unicode="&#xcb;" horiz-adv-x="566" 
d="M95 0v715h403v-17h-384v-320h313v-17h-313v-344h402v-17h-421zM369 787q-7 0 -12 5t-5 12t5 12t12 5t12 -5t5 -12t-5 -12t-12 -5zM215 787q-7 0 -12 5t-5 12t5 12t12 5t12 -5t5 -12t-5 -12t-12 -5z" />
    <glyph glyph-name="Igrave" unicode="&#xcc;" horiz-adv-x="219" 
d="M100 0v715h19v-715h-19zM106 771l-76 117h21l73 -117h-18z" />
    <glyph glyph-name="Iacute" unicode="&#xcd;" horiz-adv-x="219" 
d="M100 0v715h19v-715h-19zM93 771l73 117h21l-76 -117h-18z" />
    <glyph glyph-name="Icircumflex" unicode="&#xce;" horiz-adv-x="219" 
d="M100 0v715h19v-715h-19zM-13 771l113 117h20l111 -117h-20l-101 101l-103 -101h-20z" />
    <glyph glyph-name="Idieresis" unicode="&#xcf;" horiz-adv-x="219" 
d="M100 0v715h19v-715h-19zM186 787q-7 0 -12 5t-5 12t5 12t12 5t12 -5t5 -12t-5 -12t-12 -5zM32 787q-7 0 -12 5t-5 12t5 12t12 5t12 -5t5 -12t-5 -12t-12 -5z" />
    <glyph glyph-name="Eth" unicode="&#xd0;" horiz-adv-x="675" 
d="M21 352v17h74v346h181q165 0 257 -98.5t92 -252.5v-8q0 -157 -90 -256.5t-261 -99.5h-179v352h-74zM114 17h158q163 0 248.5 94t85.5 245v8q0 148 -85.5 241t-249.5 93h-157v-329h210v-17h-210v-335z" />
    <glyph glyph-name="Ntilde" unicode="&#xd1;" horiz-adv-x="701" 
d="M95 0v715h31l461 -693v693h19v-715h-26l-466 700v-700h-19zM433 773q-28 0 -74 32.5t-66 32.5q-47 0 -54 -63h-17q10 79 71 79q26 0 72.5 -32.5t67.5 -32.5q46 0 53 63h17q-10 -79 -70 -79z" />
    <glyph glyph-name="Ograve" unicode="&#xd2;" horiz-adv-x="790" 
d="M397 -6q-147 0 -247 104.5t-100 254.5v8q0 152 100.5 256t244.5 104t244.5 -103.5t100.5 -253.5v-8q0 -151 -100 -256.5t-243 -105.5zM397 11q138 0 231 99.5t93 245.5v8q0 144 -93.5 242t-232.5 98q-140 0 -233 -99t-93 -244v-8q0 -144 94 -243t234 -99zM392 771
l-76 117h21l73 -117h-18z" />
    <glyph glyph-name="Oacute" unicode="&#xd3;" horiz-adv-x="790" 
d="M397 -6q-147 0 -247 104.5t-100 254.5v8q0 152 100.5 256t244.5 104t244.5 -103.5t100.5 -253.5v-8q0 -151 -100 -256.5t-243 -105.5zM397 11q138 0 231 99.5t93 245.5v8q0 144 -93.5 242t-232.5 98q-140 0 -233 -99t-93 -244v-8q0 -144 94 -243t234 -99zM379 771l73 117
h21l-76 -117h-18z" />
    <glyph glyph-name="Ocircumflex" unicode="&#xd4;" horiz-adv-x="790" 
d="M397 -6q-147 0 -247 104.5t-100 254.5v8q0 152 100.5 256t244.5 104t244.5 -103.5t100.5 -253.5v-8q0 -151 -100 -256.5t-243 -105.5zM397 11q138 0 231 99.5t93 245.5v8q0 144 -93.5 242t-232.5 98q-140 0 -233 -99t-93 -244v-8q0 -144 94 -243t234 -99zM273 771
l113 117h20l111 -117h-20l-101 101l-103 -101h-20z" />
    <glyph glyph-name="Otilde" unicode="&#xd5;" horiz-adv-x="790" 
d="M397 -6q-147 0 -247 104.5t-100 254.5v8q0 152 100.5 256t244.5 104t244.5 -103.5t100.5 -253.5v-8q0 -151 -100 -256.5t-243 -105.5zM397 11q138 0 231 99.5t93 245.5v8q0 144 -93.5 242t-232.5 98q-140 0 -233 -99t-93 -244v-8q0 -144 94 -243t234 -99zM466 773
q-28 0 -74 32.5t-66 32.5q-47 0 -54 -63h-17q10 79 71 79q26 0 72.5 -32.5t67.5 -32.5q46 0 53 63h17q-10 -79 -70 -79z" />
    <glyph glyph-name="Odieresis" unicode="&#xd6;" horiz-adv-x="790" 
d="M397 -6q-147 0 -247 104.5t-100 254.5v8q0 152 100.5 256t244.5 104t244.5 -103.5t100.5 -253.5v-8q0 -151 -100 -256.5t-243 -105.5zM397 11q138 0 231 99.5t93 245.5v8q0 144 -93.5 242t-232.5 98q-140 0 -233 -99t-93 -244v-8q0 -144 94 -243t234 -99zM472 787
q-7 0 -12 5t-5 12t5 12t12 5t12 -5t5 -12t-5 -12t-12 -5zM318 787q-7 0 -12 5t-5 12t5 12t12 5t12 -5t5 -12t-5 -12t-12 -5z" />
    <glyph glyph-name="multiply" unicode="&#xd7;" horiz-adv-x="500" 
d="M72 156l-12 12l169 168l-169 169l12 12l168 -168l169 168l12 -12l-169 -169l169 -168l-12 -12l-169 168z" />
    <glyph glyph-name="Oslash" unicode="&#xd8;" horiz-adv-x="790" 
d="M69 353q0 -140 87 -236l454 505q-90 82 -215 82q-140 0 -233 -99t-93 -244v-8zM397 11q138 0 231 99.5t93 245.5v8q0 148 -99 247l-454 -506q92 -94 229 -94zM61 -14l-12 11l96 107q-95 103 -95 249v8q0 152 100.5 256t244.5 104q129 0 227 -87l90 101l12 -11l-90 -101
q106 -104 106 -259v-8q0 -151 -100 -256.5t-243 -105.5q-141 0 -241 98z" />
    <glyph glyph-name="Ugrave" unicode="&#xd9;" horiz-adv-x="666" 
d="M334 -4q-119 0 -187 65.5t-68 188.5v465h19v-464q0 -116 61.5 -177t174.5 -61q234 0 234 251v451h19v-454q0 -128 -63 -196.5t-190 -68.5zM330 771l-76 117h21l73 -117h-18z" />
    <glyph glyph-name="Uacute" unicode="&#xda;" horiz-adv-x="666" 
d="M334 -4q-119 0 -187 65.5t-68 188.5v465h19v-464q0 -116 61.5 -177t174.5 -61q234 0 234 251v451h19v-454q0 -128 -63 -196.5t-190 -68.5zM317 771l73 117h21l-76 -117h-18z" />
    <glyph glyph-name="Ucircumflex" unicode="&#xdb;" horiz-adv-x="666" 
d="M334 -4q-119 0 -187 65.5t-68 188.5v465h19v-464q0 -116 61.5 -177t174.5 -61q234 0 234 251v451h19v-454q0 -128 -63 -196.5t-190 -68.5zM211 771l113 117h20l111 -117h-20l-101 101l-103 -101h-20z" />
    <glyph glyph-name="Udieresis" unicode="&#xdc;" horiz-adv-x="666" 
d="M334 -4q-119 0 -187 65.5t-68 188.5v465h19v-464q0 -116 61.5 -177t174.5 -61q234 0 234 251v451h19v-454q0 -128 -63 -196.5t-190 -68.5zM410 787q-7 0 -12 5t-5 12t5 12t12 5t12 -5t5 -12t-5 -12t-12 -5zM256 787q-7 0 -12 5t-5 12t5 12t12 5t12 -5t5 -12t-5 -12
t-12 -5z" />
    <glyph glyph-name="Yacute" unicode="&#xdd;" horiz-adv-x="554" 
d="M275 0v325l-253 390h21l242 -372l227 372h20l-238 -390v-325h-19zM268 771l73 117h21l-76 -117h-18z" />
    <glyph glyph-name="Thorn" unicode="&#xde;" horiz-adv-x="552" 
d="M95 0v715h18v-156h154q236 0 236 -186v-4q0 -188 -236 -188h-154v-181h-18zM113 198h154q105 0 161 39t56 132v4q0 92 -56.5 130.5t-160.5 38.5h-154v-344z" />
    <glyph glyph-name="germandbls" unicode="&#xdf;" horiz-adv-x="546" 
d="M303 -4q-56 0 -97 16v17q42 -17 97 -17q80 0 133 47t53 146v7q0 97 -71 164.5t-169 66.5v16q80 1 126 46.5t46 108.5v4q0 64 -40 103t-114 39q-79 0 -124 -49.5t-45 -132.5v-578h-18v578q0 91 51 144.5t136 53.5q81 0 126.5 -44.5t45.5 -113.5v-4q0 -61 -38 -104.5
t-101 -57.5q82 -13 144.5 -79t62.5 -161v-7q0 -108 -59.5 -158.5t-144.5 -50.5z" />
    <glyph glyph-name="agrave" unicode="&#xe0;" horiz-adv-x="515" 
d="M228 9q78 0 136 43t58 100v124h-149q-97 0 -152.5 -30t-55.5 -109q0 -62 43 -95t120 -33zM228 -7q-84 0 -132.5 38t-48.5 106q0 155 226 155h149v55q0 86 -38.5 126.5t-118.5 40.5q-69 0 -117 -32.5t-60 -98.5h-17q9 70 64 108.5t130 38.5q175 0 175 -183v-347h-18v96
q-22 -44 -73 -73.5t-121 -29.5zM261 596l-78 147h20l75 -147h-17z" />
    <glyph glyph-name="aacute" unicode="&#xe1;" horiz-adv-x="515" 
d="M228 9q78 0 136 43t58 100v124h-149q-97 0 -152.5 -30t-55.5 -109q0 -62 43 -95t120 -33zM228 -7q-84 0 -132.5 38t-48.5 106q0 155 226 155h149v55q0 86 -38.5 126.5t-118.5 40.5q-69 0 -117 -32.5t-60 -98.5h-17q9 70 64 108.5t130 38.5q175 0 175 -183v-347h-18v96
q-22 -44 -73 -73.5t-121 -29.5zM247 596l75 147h20l-78 -147h-17z" />
    <glyph glyph-name="acircumflex" unicode="&#xe2;" horiz-adv-x="515" 
d="M228 9q78 0 136 43t58 100v124h-149q-97 0 -152.5 -30t-55.5 -109q0 -62 43 -95t120 -33zM228 -7q-84 0 -132.5 38t-48.5 106q0 155 226 155h149v55q0 86 -38.5 126.5t-118.5 40.5q-69 0 -117 -32.5t-60 -98.5h-17q9 70 64 108.5t130 38.5q175 0 175 -183v-347h-18v96
q-22 -44 -73 -73.5t-121 -29.5zM144 596l112 124h20l110 -124h-20l-100 108l-102 -108h-20z" />
    <glyph glyph-name="atilde" unicode="&#xe3;" horiz-adv-x="515" 
d="M228 9q78 0 136 43t58 100v124h-149q-97 0 -152.5 -30t-55.5 -109q0 -62 43 -95t120 -33zM228 -7q-84 0 -132.5 38t-48.5 106q0 155 226 155h149v55q0 86 -38.5 126.5t-118.5 40.5q-69 0 -117 -32.5t-60 -98.5h-17q9 70 64 108.5t130 38.5q175 0 175 -183v-347h-18v96
q-22 -44 -73 -73.5t-121 -29.5zM336 613q-28 0 -74.5 32t-66.5 32t-34.5 -16t-18.5 -47h-17q10 79 71 79q27 0 73.5 -32t67.5 -32q19 0 33.5 16t18.5 47h17q-10 -79 -70 -79z" />
    <glyph glyph-name="adieresis" unicode="&#xe4;" horiz-adv-x="515" 
d="M228 9q78 0 136 43t58 100v124h-149q-97 0 -152.5 -30t-55.5 -109q0 -62 43 -95t120 -33zM228 -7q-84 0 -132.5 38t-48.5 106q0 155 226 155h149v55q0 86 -38.5 126.5t-118.5 40.5q-69 0 -117 -32.5t-60 -98.5h-17q9 70 64 108.5t130 38.5q175 0 175 -183v-347h-18v96
q-22 -44 -73 -73.5t-121 -29.5zM336 639q-7 0 -12 5t-5 12t5 12t12 5t12 -5t5 -12t-5 -12t-12 -5zM194 639q-7 0 -12 5t-5 12t5 12t12 5t12 -5t5 -12t-5 -12t-12 -5z" />
    <glyph glyph-name="aring" unicode="&#xe5;" horiz-adv-x="515" 
d="M228 9q78 0 136 43t58 100v124h-149q-97 0 -152.5 -30t-55.5 -109q0 -62 43 -95t120 -33zM228 -7q-84 0 -132.5 38t-48.5 106q0 155 226 155h149v55q0 86 -38.5 126.5t-118.5 40.5q-69 0 -117 -32.5t-60 -98.5h-17q9 70 64 108.5t130 38.5q175 0 175 -183v-347h-18v96
q-22 -44 -73 -73.5t-121 -29.5zM265 604q-35 0 -61 25.5t-26 59.5q0 35 26 60.5t61 25.5q37 0 62.5 -25.5t25.5 -60.5t-25.5 -60t-62.5 -25zM265 619q30 0 50.5 20.5t20.5 49.5q0 31 -20.5 51t-50.5 20q-29 0 -49.5 -20.5t-20.5 -50.5q0 -29 20.5 -49.5t49.5 -20.5z" />
    <glyph glyph-name="ae" unicode="&#xe6;" horiz-adv-x="918" 
d="M664 -7q-87 0 -144.5 45t-79.5 124q-7 -77 -69.5 -123t-141.5 -46q-84 0 -133 37.5t-49 104.5q0 84 60 117.5t164 33.5h155v61q0 86 -39.5 126.5t-120.5 40.5q-69 0 -117.5 -32.5t-60.5 -98.5h-17q9 70 64.5 108.5t130.5 38.5q167 0 175 -166q24 77 81 121.5t135 44.5
q100 0 160 -66.5t60 -182.5v-11h-433q0 -124 56.5 -192.5t163.5 -68.5q71 0 122 33.5t69 98.5h18q-19 -70 -74.5 -109t-134.5 -39zM444 286h415q-1 110 -55.5 169t-146.5 59q-91 0 -150 -62.5t-63 -165.5zM229 9q81 0 139 48t58 122v91h-155q-47 0 -81 -5.5t-64 -19
t-45.5 -41.5t-15.5 -69q0 -62 43 -94t121 -32z" />
    <glyph glyph-name="ccedilla" unicode="&#xe7;" horiz-adv-x="539" 
d="M261 -210q-36 0 -61 19.5t-29 52.5h19q3 -26 21.5 -41t49.5 -15t49 16.5t18 42.5q0 55 -64 55q-27 0 -46 -12l-9 8l45 79q-93 11 -153 82.5t-60 179.5v8q0 117 70.5 191t173.5 74q80 0 139.5 -45.5t69.5 -118.5h-18q-9 68 -63.5 108t-127.5 40q-96 0 -161 -68t-65 -181
v-8q0 -111 65 -179.5t159 -68.5q78 0 133 43.5t68 120.5h17q-13 -82 -73.5 -131t-144.5 -49h-12l-37 -64q42 14 76.5 -3t34.5 -61q0 -35 -23.5 -55t-60.5 -20z" />
    <glyph glyph-name="egrave" unicode="&#xe8;" horiz-adv-x="537" 
d="M282 -7q-113 0 -177 73t-64 191v8q0 116 66 190.5t168 74.5q100 0 160.5 -66.5t60.5 -182.5v-11h-437q0 -123 58 -192t165 -69q72 0 123 34t69 98h18q-19 -70 -75 -109t-135 -39zM59 286h419q-1 110 -56 169t-147 59q-91 0 -151.5 -62.5t-64.5 -165.5zM270 596l-78 147
h20l75 -147h-17z" />
    <glyph glyph-name="eacute" unicode="&#xe9;" horiz-adv-x="537" 
d="M282 -7q-113 0 -177 73t-64 191v8q0 116 66 190.5t168 74.5q100 0 160.5 -66.5t60.5 -182.5v-11h-437q0 -123 58 -192t165 -69q72 0 123 34t69 98h18q-19 -70 -75 -109t-135 -39zM59 286h419q-1 110 -56 169t-147 59q-91 0 -151.5 -62.5t-64.5 -165.5zM256 596l75 147h20
l-78 -147h-17z" />
    <glyph glyph-name="ecircumflex" unicode="&#xea;" horiz-adv-x="537" 
d="M282 -7q-113 0 -177 73t-64 191v8q0 116 66 190.5t168 74.5q100 0 160.5 -66.5t60.5 -182.5v-11h-437q0 -123 58 -192t165 -69q72 0 123 34t69 98h18q-19 -70 -75 -109t-135 -39zM59 286h419q-1 110 -56 169t-147 59q-91 0 -151.5 -62.5t-64.5 -165.5zM153 596l112 124
h20l110 -124h-20l-100 108l-102 -108h-20z" />
    <glyph glyph-name="edieresis" unicode="&#xeb;" horiz-adv-x="537" 
d="M345 639q-7 0 -12 5t-5 12t5 12t12 5t12 -5t5 -12t-5 -12t-12 -5zM203 639q-7 0 -12 5t-5 12t5 12t12 5t12 -5t5 -12t-5 -12t-12 -5zM282 -7q-113 0 -177 73t-64 191v8q0 116 66 190.5t168 74.5q100 0 160.5 -66.5t60.5 -182.5v-11h-437q0 -123 58 -192t165 -69
q72 0 123 34t69 98h18q-19 -70 -75 -109t-135 -39zM59 286h419q-1 110 -56 169t-147 59q-91 0 -151.5 -62.5t-64.5 -165.5z" />
    <glyph glyph-name="igrave" unicode="&#xec;" horiz-adv-x="182" 
d="M82 0v523h18v-523h-18zM81 596l-78 147h20l75 -147h-17z" />
    <glyph glyph-name="iacute" unicode="&#xed;" horiz-adv-x="182" 
d="M82 0v523h18v-523h-18zM79 596l75 147h20l-78 -147h-17z" />
    <glyph glyph-name="icircumflex" unicode="&#xee;" horiz-adv-x="182" 
d="M82 0v523h18v-523h-18zM-30 596l112 124h20l110 -124h-20l-100 108l-102 -108h-20z" />
    <glyph glyph-name="idieresis" unicode="&#xef;" horiz-adv-x="182" 
d="M147 639q-7 0 -12 5t-5 12t5 12t12 5t12 -5t5 -12t-5 -12t-12 -5zM35 639q-7 0 -12 5t-5 12t5 12t12 5t12 -5t5 -12t-5 -12t-12 -5zM82 0v523h18v-523h-18z" />
    <glyph glyph-name="eth" unicode="&#xf0;" horiz-adv-x="583" 
d="M128 597l-7 12l148 85q-61 45 -122 79h28q61 -34 109 -70l116 66l8 -13l-111 -63q238 -187 238 -421v-15q0 -115 -73 -189.5t-175 -74.5t-174 75t-72 189v8q0 114 72 189.5t167 75.5q139 0 214 -114q-58 148 -213 268zM287 9q95 0 162.5 68.5t67.5 182.5v20
q0 104 -68 169t-168 65q-89 0 -155.5 -69t-66.5 -180v-8q0 -110 67 -179t161 -69z" />
    <glyph glyph-name="ntilde" unicode="&#xf1;" horiz-adv-x="565" 
d="M80 0v523h18v-125q19 54 75.5 93t128.5 39q89 0 138.5 -51t49.5 -156v-323h-18v323q0 97 -44.5 144t-125.5 47q-80 0 -142 -53t-62 -144v-317h-18zM352 613q-28 0 -74.5 32t-66.5 32t-34.5 -16t-18.5 -47h-17q10 79 71 79q26 0 73 -32t68 -32q19 0 33.5 16t18.5 47h17
q-10 -79 -70 -79z" />
    <glyph glyph-name="ograve" unicode="&#xf2;" horiz-adv-x="576" 
d="M287 -7q-102 0 -174 75t-72 189v8q0 115 73.5 189.5t175.5 74.5t173.5 -73t71.5 -190v-8q0 -116 -73 -190.5t-175 -74.5zM288 9q95 0 162 68.5t67 180.5v8q0 114 -66.5 180.5t-160.5 66.5q-95 0 -163 -68.5t-68 -179.5v-8q0 -110 67 -179t162 -69zM284 596l-78 147h20
l75 -147h-17z" />
    <glyph glyph-name="oacute" unicode="&#xf3;" horiz-adv-x="576" 
d="M287 -7q-102 0 -174 75t-72 189v8q0 115 73.5 189.5t175.5 74.5t173.5 -73t71.5 -190v-8q0 -116 -73 -190.5t-175 -74.5zM288 9q95 0 162 68.5t67 180.5v8q0 114 -66.5 180.5t-160.5 66.5q-95 0 -163 -68.5t-68 -179.5v-8q0 -110 67 -179t162 -69zM270 596l75 147h20
l-78 -147h-17z" />
    <glyph glyph-name="ocircumflex" unicode="&#xf4;" horiz-adv-x="576" 
d="M287 -7q-102 0 -174 75t-72 189v8q0 115 73.5 189.5t175.5 74.5t173.5 -73t71.5 -190v-8q0 -116 -73 -190.5t-175 -74.5zM288 9q95 0 162 68.5t67 180.5v8q0 114 -66.5 180.5t-160.5 66.5q-95 0 -163 -68.5t-68 -179.5v-8q0 -110 67 -179t162 -69zM167 596l112 124h20
l110 -124h-20l-100 108l-102 -108h-20z" />
    <glyph glyph-name="otilde" unicode="&#xf5;" horiz-adv-x="576" 
d="M287 -7q-102 0 -174 75t-72 189v8q0 115 73.5 189.5t175.5 74.5t173.5 -73t71.5 -190v-8q0 -116 -73 -190.5t-175 -74.5zM288 9q95 0 162 68.5t67 180.5v8q0 114 -66.5 180.5t-160.5 66.5q-95 0 -163 -68.5t-68 -179.5v-8q0 -110 67 -179t162 -69zM359 613
q-28 0 -74.5 32t-66.5 32t-34.5 -16t-18.5 -47h-17q10 79 71 79q26 0 73.5 -32t67.5 -32q19 0 33.5 16t18.5 47h17q-10 -79 -70 -79z" />
    <glyph glyph-name="odieresis" unicode="&#xf6;" horiz-adv-x="576" 
d="M287 -7q-102 0 -174 75t-72 189v8q0 115 73.5 189.5t175.5 74.5t173.5 -73t71.5 -190v-8q0 -116 -73 -190.5t-175 -74.5zM288 9q95 0 162 68.5t67 180.5v8q0 114 -66.5 180.5t-160.5 66.5q-95 0 -163 -68.5t-68 -179.5v-8q0 -110 67 -179t162 -69zM359 639q-7 0 -12 5
t-5 12t5 12t12 5t12 -5t5 -12t-5 -12t-12 -5zM217 639q-7 0 -12 5t-5 12t5 12t12 5t12 -5t5 -12t-5 -12t-12 -5z" />
    <glyph glyph-name="divide" unicode="&#xf7;" horiz-adv-x="500" 
d="M250 489q-7 0 -12 5t-5 12t5 12t12 5t12 -5t5 -12t-5 -12t-12 -5zM37 334v16h426v-16h-426zM250 161q-7 0 -12 5t-5 12t5 12t12 5t12 -5t5 -12t-5 -12t-12 -5z" />
    <glyph glyph-name="oslash" unicode="&#xf8;" horiz-adv-x="576" 
d="M59 257q0 -101 59 -171l326 366q-63 61 -154 61q-95 0 -163 -68.5t-68 -179.5v-8zM288 9q95 0 162 68.5t67 180.5v8q0 106 -61 175l-327 -366q66 -66 159 -66zM53 -11l-12 10l66 75q-66 74 -66 183v8q0 115 73.5 189.5t175.5 74.5q95 0 165 -65l62 69l12 -10l-63 -70
q69 -76 69 -187v-8q0 -116 -73 -190.5t-175 -74.5q-98 0 -169 69z" />
    <glyph glyph-name="ugrave" unicode="&#xf9;" horiz-adv-x="561" 
d="M262 -7q-187 0 -187 200v330h18v-330q0 -184 169 -184q80 0 140.5 52t60.5 142v320h18v-523h-18v121q-19 -54 -73.5 -91t-127.5 -37zM277 596l-78 147h20l75 -147h-17z" />
    <glyph glyph-name="uacute" unicode="&#xfa;" horiz-adv-x="561" 
d="M262 -7q-187 0 -187 200v330h18v-330q0 -184 169 -184q80 0 140.5 52t60.5 142v320h18v-523h-18v121q-19 -54 -73.5 -91t-127.5 -37zM263 596l75 147h20l-78 -147h-17z" />
    <glyph glyph-name="ucircumflex" unicode="&#xfb;" horiz-adv-x="561" 
d="M262 -7q-187 0 -187 200v330h18v-330q0 -184 169 -184q80 0 140.5 52t60.5 142v320h18v-523h-18v121q-19 -54 -73.5 -91t-127.5 -37zM160 596l112 124h20l110 -124h-20l-100 108l-102 -108h-20z" />
    <glyph glyph-name="udieresis" unicode="&#xfc;" horiz-adv-x="561" 
d="M262 -7q-187 0 -187 200v330h18v-330q0 -184 169 -184q80 0 140.5 52t60.5 142v320h18v-523h-18v121q-19 -54 -73.5 -91t-127.5 -37zM352 639q-7 0 -12 5t-5 12t5 12t12 5t12 -5t5 -12t-5 -12t-12 -5zM210 639q-7 0 -12 5t-5 12t5 12t12 5t12 -5t5 -12t-5 -12t-12 -5z
" />
    <glyph glyph-name="yacute" unicode="&#xfd;" horiz-adv-x="483" 
d="M140 -182l90 217l-209 488h19l200 -467l193 467h19l-293 -705h-19zM222 596l75 147h20l-78 -147h-17z" />
    <glyph glyph-name="thorn" unicode="&#xfe;" horiz-adv-x="594" 
d="M322 9q92 0 152.5 67t60.5 181v8q0 114 -61 181.5t-150 67.5t-157.5 -68.5t-68.5 -180.5v-8q0 -111 66 -179.5t158 -68.5zM80 -182v955h18v-413q25 72 85.5 121t140.5 49q97 0 163 -73t66 -192v-8q0 -122 -66.5 -193t-164.5 -71q-86 0 -144 49t-80 116v-340h-18z" />
    <glyph glyph-name="ydieresis" unicode="&#xff;" horiz-adv-x="483" 
d="M145 -182l90 217l-209 488h19l200 -467l193 467h19l-293 -705h-19zM316 639q-7 0 -12 5t-5 12t5 12t12 5t12 -5t5 -12t-5 -12t-12 -5zM174 639q-7 0 -12 5t-5 12t5 12t12 5t12 -5t5 -12t-5 -12t-12 -5z" />
    <glyph glyph-name="Amacron" unicode="&#x100;" horiz-adv-x="630" 
d="M313 700l-170 -448h341zM30 0l270 715h26l274 -715h-19l-90 235h-354l-89 -235h-18zM194 797v17h226v-17h-226z" />
    <glyph glyph-name="amacron" unicode="&#x101;" horiz-adv-x="515" 
d="M228 9q78 0 136 43t58 100v124h-149q-97 0 -152.5 -30t-55.5 -109q0 -62 43 -95t120 -33zM228 -7q-84 0 -132.5 38t-48.5 106q0 155 226 155h149v55q0 86 -38.5 126.5t-118.5 40.5q-69 0 -117 -32.5t-60 -98.5h-17q9 70 64 108.5t130 38.5q175 0 175 -183v-347h-18v96
q-22 -44 -73 -73.5t-121 -29.5zM155 646v17h219v-17h-219z" />
    <glyph glyph-name="Abreve" unicode="&#x102;" horiz-adv-x="630" 
d="M313 700l-170 -448h341zM30 0l270 715h26l274 -715h-19l-90 235h-354l-89 -235h-18zM306 775q-47 0 -81 31.5t-38 80.5h18q3 -41 32 -68.5t69 -27.5q39 0 69 27.5t34 68.5h18q-4 -48 -39 -80t-82 -32z" />
    <glyph glyph-name="abreve" unicode="&#x103;" horiz-adv-x="515" 
d="M228 9q78 0 136 43t58 100v124h-149q-97 0 -152.5 -30t-55.5 -109q0 -62 43 -95t120 -33zM228 -7q-84 0 -132.5 38t-48.5 106q0 155 226 155h149v55q0 86 -38.5 126.5t-118.5 40.5q-69 0 -117 -32.5t-60 -98.5h-17q9 70 64 108.5t130 38.5q175 0 175 -183v-347h-18v96
q-22 -44 -73 -73.5t-121 -29.5zM264 612q-47 0 -77 29.5t-34 78.5h18q3 -42 28 -67t65 -25q39 0 65 25.5t30 66.5h18q-4 -49 -35 -78.5t-78 -29.5z" />
    <glyph glyph-name="Aogonek" unicode="&#x104;" horiz-adv-x="630" 
d="M577 -182q-38 0 -59.5 19.5t-21.5 50.5q0 61 83 116l-89 231h-353l-89 -235h-18l270 715h26l274 -715q-85 -55 -85 -112q0 -53 62 -53q24 0 48 9v-17q-23 -9 -48 -9zM313 700l-170 -448h341z" />
    <glyph glyph-name="aogonek" unicode="&#x105;" horiz-adv-x="515" 
d="M420 -182q-38 0 -59.5 19.5t-21.5 50.5q0 62 83 117v91q-22 -44 -73 -73.5t-121 -29.5q-84 0 -132.5 38t-48.5 106q0 155 226 155h149v55q0 86 -38.5 126.5t-118.5 40.5q-69 0 -117 -32.5t-60 -98.5h-17q9 70 64 108.5t130 38.5q175 0 175 -183v-347q-83 -54 -83 -112
q0 -24 16 -39t47 -15q24 0 48 9v-16q-23 -9 -48 -9zM228 9q78 0 136 43t58 100v124h-149q-97 0 -152.5 -30t-55.5 -109q0 -62 43 -95t120 -33z" />
    <glyph glyph-name="Cacute" unicode="&#x106;" horiz-adv-x="720" 
d="M380 -6q-149 0 -239.5 100t-90.5 259v8q0 155 96 257.5t233 102.5q111 0 188 -55.5t98 -155.5h-19q-21 92 -90.5 143t-176.5 51q-132 0 -221 -97t-89 -245v-8q0 -154 85 -248.5t226 -94.5q107 0 181.5 56.5t95.5 153.5h18q-21 -105 -102 -166t-193 -61zM364 771l73 117
h21l-76 -117h-18z" />
    <glyph glyph-name="cacute" unicode="&#x107;" horiz-adv-x="539" 
d="M283 -7q-102 0 -172 74t-70 190v8q0 117 70.5 191t173.5 74q80 0 139.5 -45.5t69.5 -118.5h-18q-9 68 -63.5 108t-127.5 40q-96 0 -161 -68t-65 -181v-8q0 -111 65 -179.5t159 -68.5q78 0 133 43.5t68 120.5h17q-13 -82 -73.5 -131t-144.5 -49zM262 596l75 147h20
l-78 -147h-17z" />
    <glyph glyph-name="Ccircumflex" unicode="&#x108;" horiz-adv-x="720" 
d="M380 -6q-149 0 -239.5 100t-90.5 259v8q0 155 96 257.5t233 102.5q111 0 188 -55.5t98 -155.5h-19q-21 92 -90.5 143t-176.5 51q-132 0 -221 -97t-89 -245v-8q0 -154 85 -248.5t226 -94.5q107 0 181.5 56.5t95.5 153.5h18q-21 -105 -102 -166t-193 -61zM258 771l113 117
h20l111 -117h-20l-101 101l-103 -101h-20z" />
    <glyph glyph-name="ccircumflex" unicode="&#x109;" horiz-adv-x="539" 
d="M283 -7q-102 0 -172 74t-70 190v8q0 117 70.5 191t173.5 74q80 0 139.5 -45.5t69.5 -118.5h-18q-9 68 -63.5 108t-127.5 40q-96 0 -161 -68t-65 -181v-8q0 -111 65 -179.5t159 -68.5q78 0 133 43.5t68 120.5h17q-13 -82 -73.5 -131t-144.5 -49zM159 596l112 124h20
l110 -124h-20l-100 108l-102 -108h-20z" />
    <glyph glyph-name="Cdotaccent" unicode="&#x10a;" horiz-adv-x="720" 
d="M380 -6q-149 0 -239.5 100t-90.5 259v8q0 155 96 257.5t233 102.5q111 0 188 -55.5t98 -155.5h-19q-21 92 -90.5 143t-176.5 51q-132 0 -221 -97t-89 -245v-8q0 -154 85 -248.5t226 -94.5q107 0 181.5 56.5t95.5 153.5h18q-21 -105 -102 -166t-193 -61zM380 787
q-7 0 -12 5t-5 12t5 12t12 5t12 -5t5 -12t-5 -12t-12 -5z" />
    <glyph glyph-name="cdotaccent" unicode="&#x10b;" horiz-adv-x="539" 
d="M283 -7q-102 0 -172 74t-70 190v8q0 117 70.5 191t173.5 74q80 0 139.5 -45.5t69.5 -118.5h-18q-9 68 -63.5 108t-127.5 40q-96 0 -161 -68t-65 -181v-8q0 -111 65 -179.5t159 -68.5q78 0 133 43.5t68 120.5h17q-13 -82 -73.5 -131t-144.5 -49zM280 639q-7 0 -12 5t-5 12
t5 12t12 5t12 -5t5 -12t-5 -12t-12 -5z" />
    <glyph glyph-name="Ccaron" unicode="&#x10c;" horiz-adv-x="720" 
d="M380 -6q-149 0 -239.5 100t-90.5 259v8q0 155 96 257.5t233 102.5q111 0 188 -55.5t98 -155.5h-19q-21 92 -90.5 143t-176.5 51q-132 0 -221 -97t-89 -245v-8q0 -154 85 -248.5t226 -94.5q107 0 181.5 56.5t95.5 153.5h18q-21 -105 -102 -166t-193 -61zM369 771l-113 117
h20l103 -101l105 101h20l-115 -117h-20z" />
    <glyph glyph-name="ccaron" unicode="&#x10d;" horiz-adv-x="539" 
d="M283 -7q-102 0 -172 74t-70 190v8q0 117 70.5 191t173.5 74q80 0 139.5 -45.5t69.5 -118.5h-18q-9 68 -63.5 108t-127.5 40q-96 0 -161 -68t-65 -181v-8q0 -111 65 -179.5t159 -68.5q78 0 133 43.5t68 120.5h17q-13 -82 -73.5 -131t-144.5 -49zM269 613l-110 124h20
l100 -108l102 108h20l-112 -124h-20z" />
    <glyph glyph-name="Dcaron" unicode="&#x10e;" horiz-adv-x="675" 
d="M95 0v715h181q165 0 257 -98.5t92 -252.5v-8q0 -157 -90 -256.5t-261 -99.5h-179zM114 17h158q163 0 248.5 94t85.5 245v8q0 148 -85.5 241t-249.5 93h-157v-681zM301 771l-113 117h20l103 -101l105 101h20l-115 -117h-20z" />
    <glyph glyph-name="dcaron" unicode="&#x10f;" horiz-adv-x="594" 
d="M275 9q91 0 156 68t65 180v8q0 114 -60.5 181.5t-152.5 67.5q-94 0 -159 -67.5t-65 -181.5v-8q0 -114 60.5 -181t155.5 -67zM275 -7q-101 0 -167.5 70.5t-66.5 193.5v8q0 119 70 192t172 73q84 0 136.5 -45.5t76.5 -114.5v403h18v-773h-18v157q-21 -66 -78 -115t-143 -49
zM578 626l13 147h19l-15 -147h-17z" />
    <glyph glyph-name="Dcroat" unicode="&#x110;" horiz-adv-x="675" 
d="M21 352v17h74v346h181q165 0 257 -98.5t92 -252.5v-8q0 -157 -90 -256.5t-261 -99.5h-179v352h-74zM114 17h158q163 0 248.5 94t85.5 245v8q0 148 -85.5 241t-249.5 93h-157v-329h210v-17h-210v-335z" />
    <glyph glyph-name="dcroat" unicode="&#x111;" horiz-adv-x="594" 
d="M275 9q91 0 156 68t65 180v8q0 114 -60.5 181.5t-152.5 67.5q-94 0 -159 -67.5t-65 -181.5v-8q0 -114 60.5 -181t155.5 -67zM295 633v16h201v124h18v-124h81v-16h-81v-633h-18v157q-21 -66 -78 -115t-143 -49q-101 0 -167.5 70.5t-66.5 193.5v8q0 119 70 192t172 73
q84 0 136.5 -45.5t76.5 -114.5v263h-201z" />
    <glyph glyph-name="Emacron" unicode="&#x112;" horiz-adv-x="566" 
d="M95 0v715h403v-17h-384v-320h313v-17h-313v-344h402v-17h-421zM179 797v17h226v-17h-226z" />
    <glyph glyph-name="emacron" unicode="&#x113;" horiz-adv-x="537" 
d="M282 -7q-113 0 -177 73t-64 191v8q0 116 66 190.5t168 74.5q100 0 160.5 -66.5t60.5 -182.5v-11h-437q0 -123 58 -192t165 -69q72 0 123 34t69 98h18q-19 -70 -75 -109t-135 -39zM59 286h419q-1 110 -56 169t-147 59q-91 0 -151.5 -62.5t-64.5 -165.5zM164 646v17h219
v-17h-219z" />
    <glyph glyph-name="Ebreve" unicode="&#x114;" horiz-adv-x="566" 
d="M95 0v715h403v-17h-384v-320h313v-17h-313v-344h402v-17h-421zM291 775q-47 0 -81 31.5t-38 80.5h18q3 -41 32 -68.5t69 -27.5q39 0 69 27.5t34 68.5h18q-4 -48 -39 -80t-82 -32z" />
    <glyph glyph-name="ebreve" unicode="&#x115;" horiz-adv-x="537" 
d="M282 -7q-113 0 -177 73t-64 191v8q0 116 66 190.5t168 74.5q100 0 160.5 -66.5t60.5 -182.5v-11h-437q0 -123 58 -192t165 -69q72 0 123 34t69 98h18q-19 -70 -75 -109t-135 -39zM59 286h419q-1 110 -56 169t-147 59q-91 0 -151.5 -62.5t-64.5 -165.5zM273 612
q-47 0 -77 29.5t-34 78.5h18q3 -42 28.5 -67t64.5 -25t65 25.5t30 66.5h18q-4 -49 -35 -78.5t-78 -29.5z" />
    <glyph glyph-name="Edotaccent" unicode="&#x116;" horiz-adv-x="566" 
d="M95 0v715h403v-17h-384v-320h313v-17h-313v-344h402v-17h-421zM292 787q-7 0 -12 5t-5 12t5 12t12 5t12 -5t5 -12t-5 -12t-12 -5z" />
    <glyph glyph-name="edotaccent" unicode="&#x117;" horiz-adv-x="537" 
d="M282 -7q-113 0 -177 73t-64 191v8q0 116 66 190.5t168 74.5q100 0 160.5 -66.5t60.5 -182.5v-11h-437q0 -123 58 -192t165 -69q72 0 123 34t69 98h18q-19 -70 -75 -109t-135 -39zM59 286h419q-1 110 -56 169t-147 59q-91 0 -151.5 -62.5t-64.5 -165.5zM274 639
q-7 0 -12 5t-5 12t5 12t12 5t12 -5t5 -12t-5 -12t-12 -5z" />
    <glyph glyph-name="Eogonek" unicode="&#x118;" horiz-adv-x="566" 
d="M416 -182q-38 0 -59.5 19.5t-21.5 50.5q0 61 77 112h-317v715h403v-17h-384v-320h313v-17h-313v-344h402v-17h-77q-85 -55 -85 -112q0 -53 62 -53q24 0 48 9v-17q-23 -9 -48 -9z" />
    <glyph glyph-name="eogonek" unicode="&#x119;" horiz-adv-x="537" 
d="M358 -182q-38 0 -59.5 19.5t-21.5 50.5q0 63 87 119q-42 -14 -82 -14q-113 0 -177 73t-64 191v8q0 116 66 190.5t168 74.5q100 0 160.5 -66.5t60.5 -182.5v-11h-437q0 -123 58 -192t165 -69q72 0 123 34t69 98h18q-19 -64 -67 -104q-11 -9 -40 -30.5t-45 -35t-30.5 -36.5
t-14.5 -47t16 -39t47 -15q24 0 48 9v-16q-23 -9 -48 -9zM59 286h419q-1 110 -56 169t-147 59q-91 0 -151.5 -62.5t-64.5 -165.5z" />
    <glyph glyph-name="Ecaron" unicode="&#x11a;" horiz-adv-x="566" 
d="M95 0v715h403v-17h-384v-320h313v-17h-313v-344h402v-17h-421zM281 771l-113 117h20l103 -101l105 101h20l-115 -117h-20z" />
    <glyph glyph-name="ecaron" unicode="&#x11b;" horiz-adv-x="537" 
d="M282 -7q-113 0 -177 73t-64 191v8q0 116 66 190.5t168 74.5q100 0 160.5 -66.5t60.5 -182.5v-11h-437q0 -123 58 -192t165 -69q72 0 123 34t69 98h18q-19 -70 -75 -109t-135 -39zM59 286h419q-1 110 -56 169t-147 59q-91 0 -151.5 -62.5t-64.5 -165.5zM263 613l-110 124
h20l100 -108l102 108h20l-112 -124h-20z" />
    <glyph glyph-name="Gcircumflex" unicode="&#x11c;" horiz-adv-x="744" 
d="M390 -6q-156 0 -248 99.5t-92 259.5v8q0 156 97 258t238 102q105 0 182.5 -49.5t99.5 -145.5h-19q-23 88 -93.5 133t-169.5 45q-136 0 -226 -96.5t-90 -245.5v-8q0 -156 85.5 -249.5t235.5 -93.5q137 0 211 76.5t74 220.5v9h-233v17h252v-26q0 -151 -81.5 -232.5
t-222.5 -81.5zM263 771l113 117h20l111 -117h-20l-101 101l-103 -101h-20z" />
    <glyph glyph-name="gcircumflex" unicode="&#x11d;" horiz-adv-x="594" 
d="M275 33q92 0 156.5 64.5t64.5 171.5v8q0 109 -60.5 173t-152.5 64q-94 0 -159 -63.5t-65 -173.5v-8q0 -110 60.5 -173t155.5 -63zM283 -185q-104 0 -162.5 44.5t-68.5 110.5h18q12 -62 64.5 -100.5t147.5 -38.5q98 0 156 48.5t58 154.5v142q-20 -64 -78 -111.5
t-143 -47.5q-101 0 -167.5 67t-66.5 185v8q0 114 70 183.5t172 69.5q84 0 136.5 -43.5t76.5 -110.5v147h18v-489q0 -112 -63 -165.5t-168 -53.5zM164 596l112 124h20l110 -124h-20l-100 108l-102 -108h-20z" />
    <glyph glyph-name="Gbreve" unicode="&#x11e;" horiz-adv-x="744" 
d="M390 -6q-156 0 -248 99.5t-92 259.5v8q0 156 97 258t238 102q105 0 182.5 -49.5t99.5 -145.5h-19q-23 88 -93.5 133t-169.5 45q-136 0 -226 -96.5t-90 -245.5v-8q0 -156 85.5 -249.5t235.5 -93.5q137 0 211 76.5t74 220.5v9h-233v17h252v-26q0 -151 -81.5 -232.5
t-222.5 -81.5zM384 775q-47 0 -81 31.5t-38 80.5h18q3 -41 32 -68.5t69 -27.5q39 0 69 27.5t34 68.5h18q-4 -48 -39 -80t-82 -32z" />
    <glyph glyph-name="gbreve" unicode="&#x11f;" horiz-adv-x="594" 
d="M275 33q92 0 156.5 64.5t64.5 171.5v8q0 109 -60.5 173t-152.5 64q-94 0 -159 -63.5t-65 -173.5v-8q0 -110 60.5 -173t155.5 -63zM283 -185q-104 0 -162.5 44.5t-68.5 110.5h18q12 -62 64.5 -100.5t147.5 -38.5q98 0 156 48.5t58 154.5v142q-20 -64 -78 -111.5
t-143 -47.5q-101 0 -167.5 67t-66.5 185v8q0 114 70 183.5t172 69.5q84 0 136.5 -43.5t76.5 -110.5v147h18v-489q0 -112 -63 -165.5t-168 -53.5zM284 612q-47 0 -77 29.5t-34 78.5h18q3 -42 28 -67t65 -25q39 0 65 25.5t30 66.5h18q-4 -49 -35 -78.5t-78 -29.5z" />
    <glyph glyph-name="Gdotaccent" unicode="&#x120;" horiz-adv-x="744" 
d="M390 -6q-156 0 -248 99.5t-92 259.5v8q0 156 97 258t238 102q105 0 182.5 -49.5t99.5 -145.5h-19q-23 88 -93.5 133t-169.5 45q-136 0 -226 -96.5t-90 -245.5v-8q0 -156 85.5 -249.5t235.5 -93.5q137 0 211 76.5t74 220.5v9h-233v17h252v-26q0 -151 -81.5 -232.5
t-222.5 -81.5zM385 787q-7 0 -12 5t-5 12t5 12t12 5t12 -5t5 -12t-5 -12t-12 -5z" />
    <glyph glyph-name="gdotaccent" unicode="&#x121;" horiz-adv-x="594" 
d="M275 33q92 0 156.5 64.5t64.5 171.5v8q0 109 -60.5 173t-152.5 64q-94 0 -159 -63.5t-65 -173.5v-8q0 -110 60.5 -173t155.5 -63zM283 -185q-104 0 -162.5 44.5t-68.5 110.5h18q12 -62 64.5 -100.5t147.5 -38.5q98 0 156 48.5t58 154.5v142q-20 -64 -78 -111.5
t-143 -47.5q-101 0 -167.5 67t-66.5 185v8q0 114 70 183.5t172 69.5q84 0 136.5 -43.5t76.5 -110.5v147h18v-489q0 -112 -63 -165.5t-168 -53.5zM285 639q-7 0 -12 5t-5 12t5 12t12 5t12 -5t5 -12t-5 -12t-12 -5z" />
    <glyph glyph-name="uni0122" unicode="&#x122;" horiz-adv-x="744" 
d="M390 -6q-156 0 -248 99.5t-92 259.5v8q0 156 97 258t238 102q105 0 182.5 -49.5t99.5 -145.5h-19q-23 88 -93.5 133t-169.5 45q-136 0 -226 -96.5t-90 -245.5v-8q0 -156 85.5 -249.5t235.5 -93.5q137 0 211 76.5t74 220.5v9h-233v17h252v-26q0 -151 -81.5 -232.5
t-222.5 -81.5zM342 -186l-15 6l58 134l19 -4z" />
    <glyph glyph-name="uni0123" unicode="&#x123;" horiz-adv-x="594" 
d="M275 33q92 0 156.5 64.5t64.5 171.5v8q0 109 -60.5 173t-152.5 64q-94 0 -159 -63.5t-65 -173.5v-8q0 -110 60.5 -173t155.5 -63zM283 -185q-104 0 -162.5 44.5t-68.5 110.5h18q12 -62 64.5 -100.5t147.5 -38.5q98 0 156 48.5t58 154.5v142q-20 -64 -78 -111.5
t-143 -47.5q-101 0 -167.5 67t-66.5 185v8q0 114 70 183.5t172 69.5q84 0 136.5 -43.5t76.5 -110.5v147h18v-489q0 -112 -63 -165.5t-168 -53.5zM286 613l-19 4l62 136l15 -6z" />
    <glyph glyph-name="Hcircumflex" unicode="&#x124;" horiz-adv-x="702" 
d="M95 0v715h19v-344h474v344h19v-715h-19v354h-474v-354h-19zM229 771l113 117h20l111 -117h-20l-101 101l-103 -101h-20z" />
    <glyph glyph-name="hcircumflex" unicode="&#x125;" horiz-adv-x="565" 
d="M80 0v773h18v-375q19 54 75.5 93t128.5 39q89 0 138.5 -51t49.5 -156v-323h-18v323q0 97 -44.5 144t-125.5 47q-80 0 -142 -53t-62 -144v-317h-18zM163 811l113 117h20l111 -117h-20l-101 101l-103 -101h-20z" />
    <glyph glyph-name="Hbar" unicode="&#x126;" horiz-adv-x="702" 
d="M114 371h474v160h-474v-160zM4 531v16h91v168h19v-168h474v168h19v-168h91v-16h-91v-531h-19v354h-474v-354h-19v531h-91z" />
    <glyph glyph-name="hbar" unicode="&#x127;" horiz-adv-x="565" 
d="M-1 633v16h81v124h18v-124h201v-16h-201v-235q19 54 75.5 93t128.5 39q89 0 138.5 -51t49.5 -156v-323h-18v323q0 97 -44.5 144t-125.5 47q-80 0 -142 -53t-62 -144v-317h-18v633h-81z" />
    <glyph glyph-name="Itilde" unicode="&#x128;" horiz-adv-x="219" 
d="M100 0v715h19v-715h-19zM180 773q-28 0 -74 32.5t-66 32.5q-47 0 -54 -63h-17q10 79 71 79q26 0 72.5 -32.5t67.5 -32.5q46 0 53 63h17q-10 -79 -70 -79z" />
    <glyph glyph-name="itilde" unicode="&#x129;" horiz-adv-x="182" 
d="M82 0v523h18v-523h-18zM162 613q-28 0 -74.5 32t-66.5 32t-34.5 -16t-18.5 -47h-17q10 79 71 79q26 0 73 -32t68 -32q19 0 33.5 16t18.5 47h17q-10 -79 -70 -79z" />
    <glyph glyph-name="Imacron" unicode="&#x12a;" horiz-adv-x="219" 
d="M100 0v715h19v-715h-19zM-4 797v17h226v-17h-226z" />
    <glyph glyph-name="imacron" unicode="&#x12b;" horiz-adv-x="182" 
d="M16 646v17h150v-17h-150zM82 0v523h18v-523h-18z" />
    <glyph glyph-name="Ibreve" unicode="&#x12c;" horiz-adv-x="219" 
d="M100 0v715h19v-715h-19zM108 775q-47 0 -81 31.5t-38 80.5h18q3 -41 32 -68.5t69 -27.5q39 0 69 27.5t34 68.5h18q-4 -48 -39 -80t-82 -32z" />
    <glyph glyph-name="ibreve" unicode="&#x12d;" horiz-adv-x="182" 
d="M82 0v523h18v-523h-18zM90 612q-47 0 -77 29.5t-34 78.5h18q3 -42 28 -67t65 -25q39 0 65 25.5t30 66.5h18q-4 -49 -35 -78.5t-78 -29.5z" />
    <glyph glyph-name="Iogonek" unicode="&#x12e;" horiz-adv-x="219" 
d="M116 -182q-38 0 -59.5 19.5t-21.5 50.5q0 53 65 116v711h19v-715q-65 -59 -65 -112t62 -53q24 0 48 9v-17q-23 -9 -48 -9z" />
    <glyph glyph-name="iogonek" unicode="&#x12f;" horiz-adv-x="182" 
d="M91 639q-7 0 -12 5t-5 12t5 12t12 5t12 -5t5 -12t-5 -12t-12 -5zM105 -182q-38 0 -59.5 19.5t-21.5 50.5q0 22 10 45t19.5 36t28.5 34v520h18v-523q-58 -64 -58 -112q0 -24 16 -39t47 -15q24 0 48 9v-16q-23 -9 -48 -9z" />
    <glyph glyph-name="Idotaccent" unicode="&#x130;" horiz-adv-x="219" 
d="M100 0v715h19v-715h-19zM109 787q-7 0 -12 5t-5 12t5 12t12 5t12 -5t5 -12t-5 -12t-12 -5z" />
    <glyph glyph-name="dotlessi" unicode="&#x131;" horiz-adv-x="182" 
d="M82 0v523h18v-523h-18z" />
    <glyph glyph-name="IJ" unicode="&#x132;" horiz-adv-x="567" 
d="M100 0v715h19v-715h-19zM325 -4q-57 0 -101 21v18q48 -22 101 -22q144 0 144 152v550h19v-550q0 -86 -43 -127.5t-120 -41.5z" />
    <glyph glyph-name="ij" unicode="&#x133;" horiz-adv-x="364" 
d="M91 639q-7 0 -12 5t-5 12t5 12t12 5t12 -5t5 -12t-5 -12t-12 -5zM82 0v523h18v-523h-18zM273 639q-7 0 -12 5t-5 12t5 12t12 5t12 -5t5 -12t-5 -12t-12 -5zM187 -184v16q43 4 60 27t17 75v589h18v-589q0 -60 -21.5 -88t-73.5 -30z" />
    <glyph glyph-name="Jcircumflex" unicode="&#x134;" horiz-adv-x="378" 
d="M136 -4q-57 0 -101 21v18q48 -22 101 -22q144 0 144 152v550h19v-550q0 -86 -43 -127.5t-120 -41.5zM169 771l113 117h20l111 -117h-20l-101 101l-103 -101h-20z" />
    <glyph glyph-name="jcircumflex" unicode="&#x135;" horiz-adv-x="182" 
d="M5 -184v16q43 4 60 27t17 75v589h18v-589q0 -60 -21.5 -88t-73.5 -30zM-29 596l112 124h20l110 -124h-20l-100 108l-102 -108h-20z" />
    <glyph glyph-name="uni0136" unicode="&#x136;" horiz-adv-x="579" 
d="M95 0v715h19v-715h-19zM521 0l-397 365l380 350h24l-379 -349l397 -366h-25zM257 -186l-15 6l58 134l19 -4z" />
    <glyph glyph-name="uni0137" unicode="&#x137;" horiz-adv-x="452" 
d="M80 0v773h18v-773h-18zM410 0l-307 277l293 246h24l-292 -246l307 -277h-25zM194 -186l-15 6l58 134l19 -4z" />
    <glyph glyph-name="Lacute" unicode="&#x139;" horiz-adv-x="525" 
d="M95 0v715h19v-698h371v-17h-390zM91 771l73 117h21l-76 -117h-18z" />
    <glyph glyph-name="lacute" unicode="&#x13a;" horiz-adv-x="182" 
d="M82 0v773h18v-773h-18zM75 811l73 117h21l-76 -117h-18z" />
    <glyph glyph-name="uni013B" unicode="&#x13b;" horiz-adv-x="525" 
d="M95 0v715h19v-698h371v-17h-390zM235 -186l-15 6l58 134l19 -4z" />
    <glyph glyph-name="uni013C" unicode="&#x13c;" horiz-adv-x="182" 
d="M82 0v773h18v-773h-18zM44 -186l-15 6l58 134l19 -4z" />
    <glyph glyph-name="Lcaron" unicode="&#x13d;" horiz-adv-x="525" 
d="M95 0v715h19v-698h371v-17h-390zM316 558l27 157h19l-29 -157h-17z" />
    <glyph glyph-name="lcaron" unicode="&#x13e;" horiz-adv-x="180" 
d="M82 0v773h18v-773h-18zM164 626l13 147h19l-15 -147h-17z" />
    <glyph glyph-name="Ldot" unicode="&#x13f;" horiz-adv-x="525" 
d="M95 0v715h19v-698h371v-17h-390zM443 350q-7 0 -12 5t-5 12t5 12t12 5t12 -5t5 -12t-5 -12t-12 -5z" />
    <glyph glyph-name="ldot" unicode="&#x140;" horiz-adv-x="222" 
d="M82 0v773h18v-773h-18zM202 363q-7 0 -12 5t-5 12t5 12t12 5t12 -5t5 -12t-5 -12t-12 -5z" />
    <glyph glyph-name="Lslash" unicode="&#x141;" horiz-adv-x="534" 
d="M25 269v17l79 29v400h19v-393l250 94v-17l-250 -94v-288h371v-17h-390v298z" />
    <glyph glyph-name="lslash" unicode="&#x142;" horiz-adv-x="196" 
d="M11 356v19l78 56v342h18v-329l82 59v-19l-82 -59v-425h-18v412z" />
    <glyph glyph-name="Nacute" unicode="&#x143;" horiz-adv-x="701" 
d="M95 0v715h31l461 -693v693h19v-715h-26l-466 700v-700h-19zM346 771l73 117h21l-76 -117h-18z" />
    <glyph glyph-name="nacute" unicode="&#x144;" horiz-adv-x="565" 
d="M80 0v523h18v-125q19 54 75.5 93t128.5 39q89 0 138.5 -51t49.5 -156v-323h-18v323q0 97 -44.5 144t-125.5 47q-80 0 -142 -53t-62 -144v-317h-18zM263 596l75 147h20l-78 -147h-17z" />
    <glyph glyph-name="uni0145" unicode="&#x145;" horiz-adv-x="701" 
d="M95 0v715h31l461 -693v693h19v-715h-26l-466 700v-700h-19zM299 -186l-15 6l58 134l19 -4z" />
    <glyph glyph-name="uni0146" unicode="&#x146;" horiz-adv-x="565" 
d="M80 0v523h18v-125q19 54 75.5 93t128.5 39q89 0 138.5 -51t49.5 -156v-323h-18v323q0 97 -44.5 144t-125.5 47q-80 0 -142 -53t-62 -144v-317h-18zM238 -186l-15 6l58 134l19 -4z" />
    <glyph glyph-name="Ncaron" unicode="&#x147;" horiz-adv-x="701" 
d="M95 0v715h31l461 -693v693h19v-715h-26l-466 700v-700h-19zM351 771l-113 117h20l103 -101l105 101h20l-115 -117h-20z" />
    <glyph glyph-name="ncaron" unicode="&#x148;" horiz-adv-x="565" 
d="M80 0v523h18v-125q19 54 75.5 93t128.5 39q89 0 138.5 -51t49.5 -156v-323h-18v323q0 97 -44.5 144t-125.5 47q-80 0 -142 -53t-62 -144v-317h-18zM270 613l-110 124h20l100 -108l102 108h20l-112 -124h-20z" />
    <glyph glyph-name="napostrophe" unicode="&#x149;" horiz-adv-x="580" 
d="M95 0v523h18v-125q19 54 75.5 93t128.5 39q89 0 138.5 -51t49.5 -156v-323h-18v323q0 97 -44.5 144t-125.5 47q-80 0 -142 -53t-62 -144v-317h-18zM-7 575l-15 6l59 137l18 -7z" />
    <glyph glyph-name="Eng" unicode="&#x14a;" horiz-adv-x="701" 
d="M443 -187q-57 0 -101 21v18q48 -22 101 -22q70 0 106.5 37t37.5 123l-473 710v-700h-19v715h31l461 -693v693h19v-722q0 -180 -163 -180z" />
    <glyph glyph-name="eng" unicode="&#x14b;" horiz-adv-x="565" 
d="M375 -184v16q53 5 75 32.5t22 93.5v365q0 97 -44.5 144t-125.5 47q-80 0 -142 -53t-62 -144v-317h-18v523h18v-125q19 54 75.5 93t128.5 39q89 0 138.5 -51t49.5 -156v-365q0 -74 -27 -106t-88 -36z" />
    <glyph glyph-name="Omacron" unicode="&#x14c;" horiz-adv-x="790" 
d="M397 -6q-147 0 -247 104.5t-100 254.5v8q0 152 100.5 256t244.5 104t244.5 -103.5t100.5 -253.5v-8q0 -151 -100 -256.5t-243 -105.5zM397 11q138 0 231 99.5t93 245.5v8q0 144 -93.5 242t-232.5 98q-140 0 -233 -99t-93 -244v-8q0 -144 94 -243t234 -99zM282 797v17h226
v-17h-226z" />
    <glyph glyph-name="omacron" unicode="&#x14d;" horiz-adv-x="576" 
d="M287 -7q-102 0 -174 75t-72 189v8q0 115 73.5 189.5t175.5 74.5t173.5 -73t71.5 -190v-8q0 -116 -73 -190.5t-175 -74.5zM288 9q95 0 162 68.5t67 180.5v8q0 114 -66.5 180.5t-160.5 66.5q-95 0 -163 -68.5t-68 -179.5v-8q0 -110 67 -179t162 -69zM178 646v17h219v-17
h-219z" />
    <glyph glyph-name="Obreve" unicode="&#x14e;" horiz-adv-x="790" 
d="M397 -6q-147 0 -247 104.5t-100 254.5v8q0 152 100.5 256t244.5 104t244.5 -103.5t100.5 -253.5v-8q0 -151 -100 -256.5t-243 -105.5zM397 11q138 0 231 99.5t93 245.5v8q0 144 -93.5 242t-232.5 98q-140 0 -233 -99t-93 -244v-8q0 -144 94 -243t234 -99zM394 775
q-47 0 -81 31.5t-38 80.5h18q3 -41 32 -68.5t69 -27.5q39 0 69 27.5t34 68.5h18q-4 -48 -39 -80t-82 -32z" />
    <glyph glyph-name="obreve" unicode="&#x14f;" horiz-adv-x="576" 
d="M287 -7q-102 0 -174 75t-72 189v8q0 115 73.5 189.5t175.5 74.5t173.5 -73t71.5 -190v-8q0 -116 -73 -190.5t-175 -74.5zM288 9q95 0 162 68.5t67 180.5v8q0 114 -66.5 180.5t-160.5 66.5q-95 0 -163 -68.5t-68 -179.5v-8q0 -110 67 -179t162 -69zM287 612
q-47 0 -77 29.5t-34 78.5h18q3 -42 28.5 -67t64.5 -25t65 25.5t30 66.5h18q-4 -49 -35 -78.5t-78 -29.5z" />
    <glyph glyph-name="Ohungarumlaut" unicode="&#x150;" horiz-adv-x="790" 
d="M397 -6q-147 0 -247 104.5t-100 254.5v8q0 152 100.5 256t244.5 104t244.5 -103.5t100.5 -253.5v-8q0 -151 -100 -256.5t-243 -105.5zM397 11q138 0 231 99.5t93 245.5v8q0 144 -93.5 242t-232.5 98q-140 0 -233 -99t-93 -244v-8q0 -144 94 -243t234 -99zM438 771l54 117
h20l-57 -117h-17zM332 771l54 117h20l-57 -117h-17z" />
    <glyph glyph-name="ohungarumlaut" unicode="&#x151;" horiz-adv-x="576" 
d="M287 -7q-102 0 -174 75t-72 189v8q0 115 73.5 189.5t175.5 74.5t173.5 -73t71.5 -190v-8q0 -116 -73 -190.5t-175 -74.5zM288 9q95 0 162 68.5t67 180.5v8q0 114 -66.5 180.5t-160.5 66.5q-95 0 -163 -68.5t-68 -179.5v-8q0 -110 67 -179t162 -69zM338 596l59 147h20
l-62 -147h-17zM232 596l59 147h20l-62 -147h-17z" />
    <glyph glyph-name="OE" unicode="&#x152;" horiz-adv-x="958" 
d="M50 358q0 157 90 257t261 100h489v-17h-370v-320h299v-17h-299v-344h388v-17h-509q-165 0 -257 98t-92 252v8zM501 698h-98q-163 0 -248.5 -94t-85.5 -245v-8q0 -148 85.5 -241t249.5 -93h97v681z" />
    <glyph glyph-name="oe" unicode="&#x153;" horiz-adv-x="1013" 
d="M287 -7q-102 0 -174 75t-72 189v8q0 115 73.5 189.5t175.5 74.5q85 0 150.5 -52t85.5 -141q18 89 79 141.5t146 52.5q100 0 160.5 -66.5t60.5 -182.5v-11h-437q0 -123 58 -192t165 -69q72 0 123 34t69 98h18q-19 -70 -75 -109t-135 -39q-95 0 -155.5 53t-77.5 142
q-21 -88 -87 -141.5t-151 -53.5zM535 286h419q-1 110 -56 169t-147 59q-91 0 -151.5 -62.5t-64.5 -165.5zM288 9q95 0 162 68.5t67 180.5v8q0 114 -66.5 180.5t-160.5 66.5q-95 0 -163 -68.5t-68 -179.5v-8q0 -110 67 -179t162 -69z" />
    <glyph glyph-name="Racute" unicode="&#x154;" horiz-adv-x="581" 
d="M113 360h154q217 0 217 168v4q0 166 -217 166h-154v-338zM95 0v715h172q236 0 236 -183v-4q0 -166 -195 -183l237 -345h-22l-236 343h-174v-343h-18zM260 771l73 117h21l-76 -117h-18z" />
    <glyph glyph-name="racute" unicode="&#x155;" horiz-adv-x="316" 
d="M80 0v523h18v-129q19 56 66 93.5t117 39.5v-16q-79 -2 -131 -56.5t-52 -161.5v-293h-18zM159 596l75 147h20l-78 -147h-17z" />
    <glyph glyph-name="uni0156" unicode="&#x156;" horiz-adv-x="581" 
d="M113 360h154q217 0 217 168v4q0 166 -217 166h-154v-338zM95 0v715h172q236 0 236 -183v-4q0 -166 -195 -183l237 -345h-22l-236 343h-174v-343h-18zM253 -186l-15 6l58 134l19 -4z" />
    <glyph glyph-name="uni0157" unicode="&#x157;" horiz-adv-x="316" 
d="M80 0v523h18v-129q19 56 66 93.5t117 39.5v-16q-79 -2 -131 -56.5t-52 -161.5v-293h-18zM43 -186l-15 6l58 134l19 -4z" />
    <glyph glyph-name="Rcaron" unicode="&#x158;" horiz-adv-x="581" 
d="M113 360h154q217 0 217 168v4q0 166 -217 166h-154v-338zM95 0v715h172q236 0 236 -183v-4q0 -166 -195 -183l237 -345h-22l-236 343h-174v-343h-18zM265 771l-113 117h20l103 -101l105 101h20l-115 -117h-20z" />
    <glyph glyph-name="rcaron" unicode="&#x159;" horiz-adv-x="316" 
d="M80 0v523h18v-129q19 56 66 93.5t117 39.5v-16q-79 -2 -131 -56.5t-52 -161.5v-293h-18zM166 613l-110 124h20l100 -108l102 108h20l-112 -124h-20z" />
    <glyph glyph-name="Sacute" unicode="&#x15a;" horiz-adv-x="572" 
d="M292 -6q-115 0 -179 54t-77 142h19q12 -80 70 -129.5t167 -49.5q99 0 155 49.5t56 125.5q0 88 -47.5 125t-166.5 54t-170.5 60t-51.5 118q0 83 59.5 130.5t159.5 47.5q90 0 143.5 -42t67.5 -117h-19q-28 142 -192 142q-94 0 -147 -41t-53 -120q0 -68 47 -106t159 -54
q127 -18 178.5 -59.5t51.5 -137.5q0 -82 -61.5 -137t-168.5 -55zM269 771l73 117h21l-76 -117h-18z" />
    <glyph glyph-name="sacute" unicode="&#x15b;" horiz-adv-x="448" 
d="M231 -9q-87 0 -138.5 44t-58.5 116h17q10 -65 55 -104.5t125 -39.5q72 0 114 36.5t42 90.5q0 60 -32 85.5t-122 41.5q-96 17 -137.5 45.5t-41.5 92.5q0 58 47.5 94t120.5 36q151 0 173 -131h-17q-22 115 -157 115q-67 0 -108.5 -31t-41.5 -83q0 -55 37 -80.5t130 -41.5
q92 -17 130 -47t38 -96q0 -61 -48 -102t-127 -41zM209 596l75 147h20l-78 -147h-17z" />
    <glyph glyph-name="Scircumflex" unicode="&#x15c;" horiz-adv-x="572" 
d="M292 -6q-115 0 -179 54t-77 142h19q12 -80 70 -129.5t167 -49.5q99 0 155 49.5t56 125.5q0 88 -47.5 125t-166.5 54t-170.5 60t-51.5 118q0 83 59.5 130.5t159.5 47.5q90 0 143.5 -42t67.5 -117h-19q-28 142 -192 142q-94 0 -147 -41t-53 -120q0 -68 47 -106t159 -54
q127 -18 178.5 -59.5t51.5 -137.5q0 -82 -61.5 -137t-168.5 -55zM164 771l113 117h20l111 -117h-20l-101 101l-103 -101h-20z" />
    <glyph glyph-name="scircumflex" unicode="&#x15d;" horiz-adv-x="448" 
d="M231 -9q-87 0 -138.5 44t-58.5 116h17q10 -65 55 -104.5t125 -39.5q72 0 114 36.5t42 90.5q0 60 -32 85.5t-122 41.5q-96 17 -137.5 45.5t-41.5 92.5q0 58 47.5 94t120.5 36q151 0 173 -131h-17q-22 115 -157 115q-67 0 -108.5 -31t-41.5 -83q0 -55 37 -80.5t130 -41.5
q92 -17 130 -47t38 -96q0 -61 -48 -102t-127 -41zM106 596l112 124h20l110 -124h-20l-100 108l-102 -108h-20z" />
    <glyph glyph-name="uni015E" unicode="&#x15e;" horiz-adv-x="572" 
d="M262 -210q-36 0 -61 19.5t-29 52.5h19q3 -26 21.5 -41t49.5 -15t49 16.5t18 42.5q0 55 -64 55q-27 0 -46 -12l-9 8l45 80q-97 8 -152.5 60.5t-66.5 133.5h19q12 -80 70 -129.5t167 -49.5q99 0 155 49.5t56 125.5q0 88 -47.5 125t-166.5 54t-170.5 60t-51.5 118
q0 83 59.5 130.5t159.5 47.5q90 0 143.5 -42t67.5 -117h-19q-28 142 -192 142q-94 0 -147 -41t-53 -120q0 -68 47 -106t159 -54q127 -18 178.5 -59.5t51.5 -137.5q0 -82 -61.5 -137t-168.5 -55q-13 0 -20 1l-37 -66q42 14 76.5 -3t34.5 -61q0 -35 -23.5 -55t-60.5 -20z" />
    <glyph glyph-name="uni015F" unicode="&#x15f;" horiz-adv-x="448" 
d="M208 -210q-36 0 -61 19.5t-29 52.5h19q3 -26 21.5 -41t49.5 -15t49 16.5t18 42.5q0 55 -64 55q-27 0 -46 -12l-9 8l44 77q-74 7 -117 50t-49 108h17q10 -65 55 -104.5t125 -39.5q72 0 114 36.5t42 90.5q0 60 -32 85.5t-122 41.5q-96 17 -137.5 45.5t-41.5 92.5
q0 58 47.5 94t120.5 36q151 0 173 -131h-17q-22 115 -157 115q-67 0 -108.5 -31t-41.5 -83q0 -55 37 -80.5t130 -41.5q92 -17 130 -47t38 -96q0 -61 -48 -102t-127 -41q-3 0 -7.5 0.5t-6.5 0.5l-36 -63q42 14 76.5 -3t34.5 -61q0 -35 -23.5 -55t-60.5 -20z" />
    <glyph glyph-name="Scaron" unicode="&#x160;" horiz-adv-x="572" 
d="M292 -6q-115 0 -179 54t-77 142h19q12 -80 70 -129.5t167 -49.5q99 0 155 49.5t56 125.5q0 88 -47.5 125t-166.5 54t-170.5 60t-51.5 118q0 83 59.5 130.5t159.5 47.5q90 0 143.5 -42t67.5 -117h-19q-28 142 -192 142q-94 0 -147 -41t-53 -120q0 -68 47 -106t159 -54
q127 -18 178.5 -59.5t51.5 -137.5q0 -82 -61.5 -137t-168.5 -55zM272 771l-113 117h20l103 -101l105 101h20l-115 -117h-20z" />
    <glyph glyph-name="scaron" unicode="&#x161;" horiz-adv-x="448" 
d="M231 -9q-87 0 -138.5 44t-58.5 116h17q10 -65 55 -104.5t125 -39.5q72 0 114 36.5t42 90.5q0 60 -32 85.5t-122 41.5q-96 17 -137.5 45.5t-41.5 92.5q0 58 47.5 94t120.5 36q151 0 173 -131h-17q-22 115 -157 115q-67 0 -108.5 -31t-41.5 -83q0 -55 37 -80.5t130 -41.5
q92 -17 130 -47t38 -96q0 -61 -48 -102t-127 -41zM216 613l-110 124h20l100 -108l102 108h20l-112 -124h-20z" />
    <glyph glyph-name="Tcommaaccent" unicode="&#x162;" horiz-adv-x="557" 
d="M269 0v698h-238v17h495v-17h-238v-698h-19zM235 -186l-15 6l58 134l19 -4z" />
    <glyph glyph-name="tcommaaccent" unicode="&#x163;" horiz-adv-x="319" 
d="M214 -7q-53 0 -82.5 32t-29.5 95v387h-80v16h80v119h18v-119h154v-16h-154v-387q0 -111 94 -111q34 0 67 11v-16q-31 -11 -67 -11zM130 -186l-15 6l58 134l19 -4z" />
    <glyph glyph-name="Tcaron" unicode="&#x164;" horiz-adv-x="557" 
d="M269 0v698h-238v17h495v-17h-238v-698h-19zM267 771l-113 117h20l103 -101l105 101h20l-115 -117h-20z" />
    <glyph glyph-name="tcaron" unicode="&#x165;" horiz-adv-x="319" 
d="M214 -7q-53 0 -82.5 32t-29.5 95v387h-80v16h80v119h18v-119h154v-16h-154v-387q0 -111 94 -111q34 0 67 11v-16q-31 -11 -67 -11zM229 626l13 147h19l-15 -147h-17z" />
    <glyph glyph-name="Tbar" unicode="&#x166;" horiz-adv-x="557" 
d="M109 396v16h160v286h-238v17h495v-17h-238v-286h161v-16h-161v-396h-19v396h-160z" />
    <glyph glyph-name="tbar" unicode="&#x167;" horiz-adv-x="319" 
d="M22 327v16h80v164h-80v16h80v119h18v-119h154v-16h-154v-164h154v-16h-154v-207q0 -111 94 -111q34 0 67 11v-16q-31 -11 -67 -11q-53 0 -82.5 32t-29.5 95v207h-80z" />
    <glyph glyph-name="Utilde" unicode="&#x168;" horiz-adv-x="666" 
d="M334 -4q-119 0 -187 65.5t-68 188.5v465h19v-464q0 -116 61.5 -177t174.5 -61q234 0 234 251v451h19v-454q0 -128 -63 -196.5t-190 -68.5zM404 773q-28 0 -74 32.5t-66 32.5q-47 0 -54 -63h-17q10 79 71 79q26 0 72.5 -32.5t67.5 -32.5q46 0 53 63h17q-10 -79 -70 -79z
" />
    <glyph glyph-name="utilde" unicode="&#x169;" horiz-adv-x="561" 
d="M262 -7q-187 0 -187 200v330h18v-330q0 -184 169 -184q80 0 140.5 52t60.5 142v320h18v-523h-18v121q-19 -54 -73.5 -91t-127.5 -37zM352 613q-28 0 -74.5 32t-66.5 32t-34.5 -16t-18.5 -47h-17q10 79 71 79q26 0 73 -32t68 -32q19 0 33.5 16t18.5 47h17q-10 -79 -70 -79
z" />
    <glyph glyph-name="Umacron" unicode="&#x16a;" horiz-adv-x="666" 
d="M334 -4q-119 0 -187 65.5t-68 188.5v465h19v-464q0 -116 61.5 -177t174.5 -61q234 0 234 251v451h19v-454q0 -128 -63 -196.5t-190 -68.5zM220 797v17h226v-17h-226z" />
    <glyph glyph-name="umacron" unicode="&#x16b;" horiz-adv-x="561" 
d="M262 -7q-187 0 -187 200v330h18v-330q0 -184 169 -184q80 0 140.5 52t60.5 142v320h18v-523h-18v121q-19 -54 -73.5 -91t-127.5 -37zM171 646v17h219v-17h-219z" />
    <glyph glyph-name="Ubreve" unicode="&#x16c;" horiz-adv-x="666" 
d="M334 -4q-119 0 -187 65.5t-68 188.5v465h19v-464q0 -116 61.5 -177t174.5 -61q234 0 234 251v451h19v-454q0 -128 -63 -196.5t-190 -68.5zM332 775q-47 0 -81 31.5t-38 80.5h18q3 -41 32 -68.5t69 -27.5q39 0 69 27.5t34 68.5h18q-4 -48 -39 -80t-82 -32z" />
    <glyph glyph-name="ubreve" unicode="&#x16d;" horiz-adv-x="561" 
d="M262 -7q-187 0 -187 200v330h18v-330q0 -184 169 -184q80 0 140.5 52t60.5 142v320h18v-523h-18v121q-19 -54 -73.5 -91t-127.5 -37zM280 612q-47 0 -77 29.5t-34 78.5h18q3 -42 28 -67t65 -25q39 0 65 25.5t30 66.5h18q-4 -49 -35 -78.5t-78 -29.5z" />
    <glyph glyph-name="Uring" unicode="&#x16e;" horiz-adv-x="666" 
d="M334 -4q-119 0 -187 65.5t-68 188.5v465h19v-464q0 -116 61.5 -177t174.5 -61q234 0 234 251v451h19v-454q0 -128 -63 -196.5t-190 -68.5zM333 719q-35 0 -61 25.5t-26 59.5q0 35 26 60.5t61 25.5q37 0 62.5 -25.5t25.5 -60.5t-25.5 -60t-62.5 -25zM333 734
q30 0 50.5 20.5t20.5 49.5q0 31 -20.5 51t-50.5 20q-29 0 -49.5 -20.5t-20.5 -50.5q0 -29 20.5 -49.5t49.5 -20.5z" />
    <glyph glyph-name="uring" unicode="&#x16f;" horiz-adv-x="561" 
d="M262 -7q-187 0 -187 200v330h18v-330q0 -184 169 -184q80 0 140.5 52t60.5 142v320h18v-523h-18v121q-19 -54 -73.5 -91t-127.5 -37zM281 604q-35 0 -61 25.5t-26 59.5q0 35 26 60.5t61 25.5q37 0 62.5 -25.5t25.5 -60.5t-25.5 -60t-62.5 -25zM281 619q30 0 50.5 20.5
t20.5 49.5q0 31 -20.5 51t-50.5 20q-29 0 -49.5 -20.5t-20.5 -50.5q0 -29 20.5 -49.5t49.5 -20.5z" />
    <glyph glyph-name="Uhungarumlaut" unicode="&#x170;" horiz-adv-x="666" 
d="M334 -4q-119 0 -187 65.5t-68 188.5v465h19v-464q0 -116 61.5 -177t174.5 -61q234 0 234 251v451h19v-454q0 -128 -63 -196.5t-190 -68.5zM376 771l54 117h20l-57 -117h-17zM270 771l54 117h20l-57 -117h-17z" />
    <glyph glyph-name="uhungarumlaut" unicode="&#x171;" horiz-adv-x="561" 
d="M262 -7q-187 0 -187 200v330h18v-330q0 -184 169 -184q80 0 140.5 52t60.5 142v320h18v-523h-18v121q-19 -54 -73.5 -91t-127.5 -37zM331 596l59 147h20l-62 -147h-17zM225 596l59 147h20l-62 -147h-17z" />
    <glyph glyph-name="Uogonek" unicode="&#x172;" horiz-adv-x="666" 
d="M378 -182q-38 0 -59.5 19.5t-21.5 50.5q0 32 22.5 61.5t58.5 48.5q-24 -2 -44 -2q-119 0 -187 65.5t-68 188.5v465h19v-464q0 -116 61.5 -177t174.5 -61q234 0 234 251v451h19v-454q0 -194 -138 -246q-133 -51 -133 -127q0 -53 62 -53q24 0 48 9v-17q-23 -9 -48 -9z" />
    <glyph glyph-name="uogonek" unicode="&#x173;" horiz-adv-x="561" 
d="M461 -182q-38 0 -59.5 19.5t-21.5 50.5q0 62 83 117v116q-19 -54 -73.5 -91t-127.5 -37q-187 0 -187 200v330h18v-330q0 -184 169 -184q80 0 140.5 52t60.5 142v320h18v-523q-83 -54 -83 -112q0 -24 16 -39t47 -15q24 0 48 9v-16q-23 -9 -48 -9z" />
    <glyph glyph-name="Wcircumflex" unicode="&#x174;" horiz-adv-x="910" 
d="M224 0l-193 715h19l186 -692l213 692h13l198 -694l202 694h17l-208 -715h-24l-192 676l-208 -676h-23zM333 771l113 117h20l111 -117h-20l-101 101l-103 -101h-20z" />
    <glyph glyph-name="wcircumflex" unicode="&#x175;" horiz-adv-x="755" 
d="M196 0l-166 523h19l160 -502l162 502h14l160 -502l162 502h18l-168 -523h-24l-155 491l-158 -491h-24zM258 596l112 124h20l110 -124h-20l-100 108l-102 -108h-20z" />
    <glyph glyph-name="Ycircumflex" unicode="&#x176;" horiz-adv-x="554" 
d="M275 0v325l-253 390h21l242 -372l227 372h20l-238 -390v-325h-19zM162 771l113 117h20l111 -117h-20l-101 101l-103 -101h-20z" />
    <glyph glyph-name="ycircumflex" unicode="&#x177;" horiz-adv-x="483" 
d="M145 -182l90 217l-209 488h19l200 -467l193 467h19l-293 -705h-19zM124 596l112 124h20l110 -124h-20l-100 108l-102 -108h-20z" />
    <glyph glyph-name="Ydieresis" unicode="&#x178;" horiz-adv-x="554" 
d="M275 0v325l-253 390h21l242 -372l227 372h20l-238 -390v-325h-19zM361 787q-7 0 -12 5t-5 12t5 12t12 5t12 -5t5 -12t-5 -12t-12 -5zM207 787q-7 0 -12 5t-5 12t5 12t12 5t12 -5t5 -12t-5 -12t-12 -5z" />
    <glyph glyph-name="Zacute" unicode="&#x179;" horiz-adv-x="577" 
d="M26 0v7l487 691h-451v17h480v-7l-487 -691h481v-17h-510zM283 771l73 117h21l-76 -117h-18z" />
    <glyph glyph-name="zacute" unicode="&#x17a;" horiz-adv-x="463" 
d="M27 0v5l376 502h-346v16h376v-5l-376 -502h367v-16h-397zM225 596l75 147h20l-78 -147h-17z" />
    <glyph glyph-name="Zdotaccent" unicode="&#x17b;" horiz-adv-x="577" 
d="M26 0v7l487 691h-451v17h480v-7l-487 -691h481v-17h-510zM299 787q-7 0 -12 5t-5 12t5 12t12 5t12 -5t5 -12t-5 -12t-12 -5z" />
    <glyph glyph-name="zdotaccent" unicode="&#x17c;" horiz-adv-x="463" 
d="M27 0v5l376 502h-346v16h376v-5l-376 -502h367v-16h-397zM243 639q-7 0 -12 5t-5 12t5 12t12 5t12 -5t5 -12t-5 -12t-12 -5z" />
    <glyph glyph-name="Zcaron" unicode="&#x17d;" horiz-adv-x="577" 
d="M26 0v7l487 691h-451v17h480v-7l-487 -691h481v-17h-510zM288 771l-113 117h20l103 -101l105 101h20l-115 -117h-20z" />
    <glyph glyph-name="zcaron" unicode="&#x17e;" horiz-adv-x="463" 
d="M27 0v5l376 502h-346v16h376v-5l-376 -502h367v-16h-397zM232 613l-110 124h20l100 -108l102 108h20l-112 -124h-20z" />
    <glyph glyph-name="uni0192" unicode="&#x192;" horiz-adv-x="369" 
d="M30 375v16h91l27 177q23 156 152 156q31 0 68 -11v-17q-36 12 -68 12q-53 0 -87.5 -31.5t-46.5 -108.5l-27 -177h160v-16h-163l-85 -557h-18l85 557h-88z" />
    <glyph glyph-name="Aringacute" unicode="&#x1fa;" horiz-adv-x="630" 
d="M313 700l-170 -448h341zM30 0l270 715h26l274 -715h-19l-90 235h-354l-89 -235h-18zM307 749q-35 0 -61 25.5t-26 59.5q0 35 26 60.5t61 25.5q37 0 62.5 -25.5t25.5 -60.5t-25.5 -60t-62.5 -25zM307 764q30 0 50.5 20.5t20.5 49.5q0 31 -20.5 51t-50.5 20
q-29 0 -49.5 -20.5t-20.5 -50.5q0 -29 20.5 -49.5t49.5 -20.5zM291 951l73 117h21l-76 -117h-18z" />
    <glyph glyph-name="aringacute" unicode="&#x1fb;" horiz-adv-x="515" 
d="M228 9q78 0 136 43t58 100v124h-149q-97 0 -152.5 -30t-55.5 -109q0 -62 43 -95t120 -33zM228 -7q-84 0 -132.5 38t-48.5 106q0 155 226 155h149v55q0 86 -38.5 126.5t-118.5 40.5q-69 0 -117 -32.5t-60 -98.5h-17q9 70 64 108.5t130 38.5q175 0 175 -183v-347h-18v96
q-22 -44 -73 -73.5t-121 -29.5zM265 604q-35 0 -61 25.5t-26 59.5q0 35 26 60.5t61 25.5q37 0 62.5 -25.5t25.5 -60.5t-25.5 -60t-62.5 -25zM265 619q30 0 50.5 20.5t20.5 49.5q0 31 -20.5 51t-50.5 20q-29 0 -49.5 -20.5t-20.5 -50.5q0 -29 20.5 -49.5t49.5 -20.5zM249 831
l73 117h21l-76 -117h-18z" />
    <glyph glyph-name="AEacute" unicode="&#x1fc;" horiz-adv-x="941" 
d="M396 698l-222 -446h296v446h-74zM28 0l355 715h490v-17h-384v-320h313v-17h-313v-344h402v-17h-421v235h-304l-117 -235h-21zM590 771l73 117h21l-76 -117h-18z" />
    <glyph glyph-name="aeacute" unicode="&#x1fd;" horiz-adv-x="918" 
d="M664 -7q-87 0 -144.5 45t-79.5 124q-7 -77 -69.5 -123t-141.5 -46q-84 0 -133 37.5t-49 104.5q0 84 60 117.5t164 33.5h155v61q0 86 -39.5 126.5t-120.5 40.5q-69 0 -117.5 -32.5t-60.5 -98.5h-17q9 70 64.5 108.5t130.5 38.5q167 0 175 -166q24 77 81 121.5t135 44.5
q100 0 160 -66.5t60 -182.5v-11h-433q0 -124 56.5 -192.5t163.5 -68.5q71 0 122 33.5t69 98.5h18q-19 -70 -74.5 -109t-134.5 -39zM444 286h415q-1 110 -55.5 169t-146.5 59q-91 0 -150 -62.5t-63 -165.5zM229 9q81 0 139 48t58 122v91h-155q-47 0 -81 -5.5t-64 -19
t-45.5 -41.5t-15.5 -69q0 -62 43 -94t121 -32zM447 596l75 147h20l-78 -147h-17z" />
    <glyph glyph-name="Oslashacute" unicode="&#x1fe;" horiz-adv-x="790" 
d="M69 353q0 -140 87 -236l454 505q-90 82 -215 82q-140 0 -233 -99t-93 -244v-8zM397 11q138 0 231 99.5t93 245.5v8q0 148 -99 247l-454 -506q92 -94 229 -94zM61 -14l-12 11l96 107q-95 103 -95 249v8q0 152 100.5 256t244.5 104q129 0 227 -87l90 101l12 -11l-90 -101
q106 -104 106 -259v-8q0 -151 -100 -256.5t-243 -105.5q-141 0 -241 98zM379 771l73 117h21l-76 -117h-18z" />
    <glyph glyph-name="oslashacute" unicode="&#x1ff;" horiz-adv-x="576" 
d="M59 257q0 -101 59 -171l326 366q-63 61 -154 61q-95 0 -163 -68.5t-68 -179.5v-8zM288 9q95 0 162 68.5t67 180.5v8q0 106 -61 175l-327 -366q66 -66 159 -66zM53 -11l-12 10l66 75q-66 74 -66 183v8q0 115 73.5 189.5t175.5 74.5q95 0 165 -65l62 69l12 -10l-63 -70
q69 -76 69 -187v-8q0 -116 -73 -190.5t-175 -74.5q-98 0 -169 69zM270 596l75 147h20l-78 -147h-17z" />
    <glyph glyph-name="uni0218" unicode="&#x218;" horiz-adv-x="572" 
d="M292 -6q-115 0 -179 54t-77 142h19q12 -80 70 -129.5t167 -49.5q99 0 155 49.5t56 125.5q0 88 -47.5 125t-166.5 54t-170.5 60t-51.5 118q0 83 59.5 130.5t159.5 47.5q90 0 143.5 -42t67.5 -117h-19q-28 142 -192 142q-94 0 -147 -41t-53 -120q0 -68 47 -106t159 -54
q127 -18 178.5 -59.5t51.5 -137.5q0 -82 -61.5 -137t-168.5 -55zM238 -186l-15 6l58 134l19 -4z" />
    <glyph glyph-name="uni0219" unicode="&#x219;" horiz-adv-x="448" 
d="M231 -9q-87 0 -138.5 44t-58.5 116h17q10 -65 55 -104.5t125 -39.5q72 0 114 36.5t42 90.5q0 60 -32 85.5t-122 41.5q-96 17 -137.5 45.5t-41.5 92.5q0 58 47.5 94t120.5 36q151 0 173 -131h-17q-22 115 -157 115q-67 0 -108.5 -31t-41.5 -83q0 -55 37 -80.5t130 -41.5
q92 -17 130 -47t38 -96q0 -61 -48 -102t-127 -41zM184 -186l-15 6l58 134l19 -4z" />
    <glyph glyph-name="uni021A" unicode="&#x21a;" horiz-adv-x="557" 
d="M269 0v698h-238v17h495v-17h-238v-698h-19zM235 -186l-15 6l58 134l19 -4z" />
    <glyph glyph-name="uni021B" unicode="&#x21b;" horiz-adv-x="319" 
d="M214 -7q-53 0 -82.5 32t-29.5 95v387h-80v16h80v119h18v-119h154v-16h-154v-387q0 -111 94 -111q34 0 67 11v-16q-31 -11 -67 -11zM130 -186l-15 6l58 134l19 -4z" />
    <glyph glyph-name="uni0237" unicode="&#x237;" horiz-adv-x="182" 
d="M5 -184v16q43 4 60 27t17 75v589h18v-589q0 -60 -21.5 -88t-73.5 -30z" />
    <glyph glyph-name="circumflex" unicode="&#x2c6;" horiz-adv-x="400" 
d="M79 596l112 124h20l110 -124h-20l-100 108l-102 -108h-20z" />
    <glyph glyph-name="caron" unicode="&#x2c7;" horiz-adv-x="400" 
d="M189 613l-110 124h20l100 -108l102 108h20l-112 -124h-20z" />
    <glyph glyph-name="breve" unicode="&#x2d8;" horiz-adv-x="400" 
d="M200 612q-47 0 -77 29.5t-34 78.5h18q3 -42 28 -67t65 -25q39 0 65 25.5t30 66.5h18q-4 -49 -35 -78.5t-78 -29.5z" />
    <glyph glyph-name="dotaccent" unicode="&#x2d9;" horiz-adv-x="400" 
d="M200 639q-7 0 -12 5t-5 12t5 12t12 5t12 -5t5 -12t-5 -12t-12 -5z" />
    <glyph glyph-name="ring" unicode="&#x2da;" horiz-adv-x="400" 
d="M200 604q-35 0 -61 25.5t-26 59.5q0 35 26 60.5t61 25.5q37 0 62.5 -25.5t25.5 -60.5t-25.5 -60t-62.5 -25zM200 619q30 0 50.5 20.5t20.5 49.5q0 31 -20.5 51t-50.5 20q-29 0 -49.5 -20.5t-20.5 -50.5q0 -29 20.5 -49.5t49.5 -20.5z" />
    <glyph glyph-name="ogonek" unicode="&#x2db;" horiz-adv-x="400" 
d="M210 -182q-38 0 -59.5 19.5t-21.5 50.5q0 59 81 112h23q-86 -56 -86 -112q0 -24 16 -39t47 -15q24 0 48 9v-16q-23 -9 -48 -9z" />
    <glyph glyph-name="tilde" unicode="&#x2dc;" horiz-adv-x="400" 
d="M275 613q-28 0 -74.5 32t-66.5 32t-34.5 -16t-18.5 -47h-17q10 79 71 79q27 0 74 -32t67 -32q19 0 33.5 16t18.5 47h17q-10 -79 -70 -79z" />
    <glyph glyph-name="hungarumlaut" unicode="&#x2dd;" horiz-adv-x="400" 
d="M237 596l59 147h20l-62 -147h-17zM131 596l59 147h20l-62 -147h-17z" />
    <glyph glyph-name="uni037E" unicode="&#x37e;" horiz-adv-x="172" 
d="M86 352q-7 0 -12 5t-5 12t5 12t12 5t12 -5t5 -12t-5 -12t-12 -5zM41 -109l-15 6l55 140l19 -7z" />
    <glyph glyph-name="tonos" unicode="&#x384;" horiz-adv-x="400" 
d="M191 596l75 147h20l-78 -147h-17z" />
    <glyph glyph-name="dieresistonos" unicode="&#x385;" horiz-adv-x="400" 
d="M187 638l45 147h20l-48 -147h-17zM285 639q-7 0 -12 5t-5 12t5 12t12 5t12 -5t5 -12t-5 -12t-12 -5zM115 639q-7 0 -12 5t-5 12t5 12t12 5t12 -5t5 -12t-5 -12t-12 -5z" />
    <glyph glyph-name="Alphatonos" unicode="&#x386;" horiz-adv-x="630" 
d="M313 700l-170 -448h341zM30 0l270 715h26l274 -715h-19l-90 235h-354l-89 -235h-18zM41 568l75 147h20l-78 -147h-17z" />
    <glyph glyph-name="anoteleia" unicode="&#x387;" horiz-adv-x="166" 
d="M83 303q-7 0 -12 5t-5 12t5 12t12 5t12 -5t5 -12t-5 -12t-12 -5z" />
    <glyph glyph-name="Epsilontonos" unicode="&#x388;" horiz-adv-x="566" 
d="M95 0v715h403v-17h-384v-320h313v-17h-313v-344h402v-17h-421zM-89 568l75 147h20l-78 -147h-17z" />
    <glyph glyph-name="Etatonos" unicode="&#x389;" horiz-adv-x="702" 
d="M95 0v715h19v-344h474v344h19v-715h-19v354h-474v-354h-19zM-89 568l75 147h20l-78 -147h-17z" />
    <glyph glyph-name="Iotatonos" unicode="&#x38a;" horiz-adv-x="219" 
d="M100 0v715h19v-715h-19zM-89 568l75 147h20l-78 -147h-17z" />
    <glyph glyph-name="Omicrontonos" unicode="&#x38c;" horiz-adv-x="790" 
d="M397 -6q-147 0 -247 104.5t-100 254.5v8q0 152 100.5 256t244.5 104t244.5 -103.5t100.5 -253.5v-8q0 -151 -100 -256.5t-243 -105.5zM397 11q138 0 231 99.5t93 245.5v8q0 144 -93.5 242t-232.5 98q-140 0 -233 -99t-93 -244v-8q0 -144 94 -243t234 -99zM-29 568l75 147
h20l-78 -147h-17z" />
    <glyph glyph-name="Upsilontonos" unicode="&#x38e;" horiz-adv-x="554" 
d="M275 0v325l-253 390h21l242 -372l227 372h20l-238 -390v-325h-19zM-119 568l75 147h20l-78 -147h-17z" />
    <glyph glyph-name="Omegatonos" unicode="&#x38f;" horiz-adv-x="790" 
d="M69 363v-8q0 -237 230 -341v-14h-247v17h205q-89 45 -148 129t-59 209v8q0 143 97.5 250.5t247.5 107.5t247.5 -106t97.5 -249v-8q0 -126 -59 -211.5t-148 -129.5h205v-17h-247v14q230 101 230 344v8q0 64 -23 124.5t-63.5 108t-103 76.5t-136.5 29q-98 0 -174 -50
t-114 -127t-38 -164zM-29 568l75 147h20l-78 -147h-17z" />
    <glyph glyph-name="iotadieresistonos" unicode="&#x390;" horiz-adv-x="182" 
d="M82 0v523h18v-523h-18zM82 638l45 147h20l-48 -147h-17zM180 639q-7 0 -12 5t-5 12t5 12t12 5t12 -5t5 -12t-5 -12t-12 -5zM10 639q-7 0 -12 5t-5 12t5 12t12 5t12 -5t5 -12t-5 -12t-12 -5z" />
    <glyph glyph-name="Alpha" unicode="&#x391;" horiz-adv-x="630" 
d="M313 700l-170 -448h341zM30 0l270 715h26l274 -715h-19l-90 235h-354l-89 -235h-18z" />
    <glyph glyph-name="Beta" unicode="&#x392;" horiz-adv-x="582" 
d="M95 0v715h188q92 0 146.5 -45.5t54.5 -131.5v-4q0 -67 -37.5 -107t-100.5 -52q84 -11 129.5 -56t45.5 -122v-4q0 -93 -55.5 -143t-152.5 -50h-218zM114 382h172q84 0 131.5 40.5t47.5 111.5v4q0 78 -48 119t-134 41h-169v-316zM114 17h199q91 0 140 45.5t49 130.5v4
q0 82 -56 125t-160 43h-172v-348z" />
    <glyph glyph-name="Gamma" unicode="&#x393;" horiz-adv-x="519" 
d="M95 0v715h393v-17h-374v-698h-19z" />
    <glyph glyph-name="uni0394" unicode="&#x394;" horiz-adv-x="630" 
d="M33 0v7l267 708h26l271 -708v-7h-564zM313 700l-259 -683h520z" />
    <glyph glyph-name="Epsilon" unicode="&#x395;" horiz-adv-x="566" 
d="M95 0v715h403v-17h-384v-320h313v-17h-313v-344h402v-17h-421z" />
    <glyph glyph-name="Zeta" unicode="&#x396;" horiz-adv-x="577" 
d="M26 0v7l487 691h-451v17h480v-7l-487 -691h481v-17h-510z" />
    <glyph glyph-name="Eta" unicode="&#x397;" horiz-adv-x="702" 
d="M95 0v715h19v-344h474v344h19v-715h-19v354h-474v-354h-19z" />
    <glyph glyph-name="Theta" unicode="&#x398;" horiz-adv-x="790" 
d="M397 -6q-147 0 -247 104.5t-100 254.5v8q0 152 100.5 256t244.5 104t244.5 -103.5t100.5 -253.5v-8q0 -151 -100 -256.5t-243 -105.5zM397 11q138 0 231 99.5t93 245.5v8q0 144 -93.5 242t-232.5 98q-140 0 -233 -99t-93 -244v-8q0 -144 94 -243t234 -99zM239 356v17h312
v-17h-312z" />
    <glyph glyph-name="Iota" unicode="&#x399;" horiz-adv-x="219" 
d="M100 0v715h19v-715h-19z" />
    <glyph glyph-name="Kappa" unicode="&#x39a;" horiz-adv-x="579" 
d="M95 0v715h19v-715h-19zM521 0l-397 365l380 350h24l-379 -349l397 -366h-25z" />
    <glyph glyph-name="Lambda" unicode="&#x39b;" horiz-adv-x="616" 
d="M324 715l271 -715h-19l-263 694l-260 -694h-18l267 715h22z" />
    <glyph glyph-name="Mu" unicode="&#x39c;" horiz-adv-x="846" 
d="M95 0v715h31l289 -680l298 680h30v-715h-19v695l-305 -695h-9l-296 695v-695h-19z" />
    <glyph glyph-name="Nu" unicode="&#x39d;" horiz-adv-x="701" 
d="M95 0v715h31l461 -693v693h19v-715h-26l-466 700v-700h-19z" />
    <glyph glyph-name="Xi" unicode="&#x39e;" horiz-adv-x="585" 
d="M60 715h465v-17h-465v17zM122 373h341v-17h-341v17zM52 0v17h481v-17h-481z" />
    <glyph glyph-name="Omicron" unicode="&#x39f;" horiz-adv-x="790" 
d="M397 -6q-147 0 -247 104.5t-100 254.5v8q0 152 100.5 256t244.5 104t244.5 -103.5t100.5 -253.5v-8q0 -151 -100 -256.5t-243 -105.5zM397 11q138 0 231 99.5t93 245.5v8q0 144 -93.5 242t-232.5 98q-140 0 -233 -99t-93 -244v-8q0 -144 94 -243t234 -99z" />
    <glyph glyph-name="Pi" unicode="&#x3a0;" horiz-adv-x="694" 
d="M95 0v715h504v-715h-19v698h-466v-698h-19z" />
    <glyph glyph-name="Rho" unicode="&#x3a1;" horiz-adv-x="552" 
d="M95 0v715h172q236 0 236 -191v-4q0 -197 -233 -197h-157v-323h-18zM113 340h157q214 0 214 180v4q0 174 -217 174h-154v-358z" />
    <glyph glyph-name="Sigma" unicode="&#x3a3;" horiz-adv-x="572" 
d="M316 362l-253 336v17h441v-17h-419l253 -336l-252 -345h436v-17h-462v11z" />
    <glyph glyph-name="Tau" unicode="&#x3a4;" horiz-adv-x="557" 
d="M269 0v698h-238v17h495v-17h-238v-698h-19z" />
    <glyph glyph-name="Upsilon" unicode="&#x3a5;" horiz-adv-x="554" 
d="M275 0v325l-253 390h21l242 -372l227 372h20l-238 -390v-325h-19z" />
    <glyph glyph-name="Phi" unicode="&#x3a6;" horiz-adv-x="821" 
d="M401 -12v63q-156 4 -253.5 91t-97.5 213v6q0 128 98 215t253 90v61h19v-61q155 -3 253 -89.5t98 -212.5v-7q0 -127 -98.5 -215.5t-252.5 -90.5v-63h-19zM69 361v-6q0 -121 92 -202.5t240 -85.5v583q-149 -3 -240.5 -85t-91.5 -204zM752 357v7q0 120 -92 201.5t-240 84.5
v-583q147 2 239.5 84.5t92.5 205.5z" />
    <glyph glyph-name="Chi" unicode="&#x3a7;" horiz-adv-x="632" 
d="M47 0l259 374l-233 341h21l225 -329l224 329h21l-234 -343l255 -372h-21l-247 360l-249 -360h-21z" />
    <glyph glyph-name="Psi" unicode="&#x3a8;" horiz-adv-x="738" 
d="M359 0v200q-134 3 -211.5 73.5t-77.5 192.5v249h19v-248q0 -115 71.5 -181.5t198.5 -69.5v499h19v-499q137 2 204 71t67 193v235h19v-238q0 -128 -73 -201.5t-217 -75.5v-200h-19z" />
    <glyph glyph-name="uni03A9" unicode="&#x3a9;" horiz-adv-x="790" 
d="M69 363v-8q0 -237 230 -341v-14h-247v17h205q-89 45 -148 129t-59 209v8q0 143 97.5 250.5t247.5 107.5t247.5 -106t97.5 -249v-8q0 -126 -59 -211.5t-148 -129.5h205v-17h-247v14q230 101 230 344v8q0 64 -23 124.5t-63.5 108t-103 76.5t-136.5 29q-98 0 -174 -50
t-114 -127t-38 -164z" />
    <glyph glyph-name="Iotadieresis" unicode="&#x3aa;" horiz-adv-x="219" 
d="M100 0v715h19v-715h-19zM186 787q-7 0 -12 5t-5 12t5 12t12 5t12 -5t5 -12t-5 -12t-12 -5zM32 787q-7 0 -12 5t-5 12t5 12t12 5t12 -5t5 -12t-5 -12t-12 -5z" />
    <glyph glyph-name="Upsilondieresis" unicode="&#x3ab;" horiz-adv-x="554" 
d="M275 0v325l-253 390h21l242 -372l227 372h20l-238 -390v-325h-19zM361 787q-7 0 -12 5t-5 12t5 12t12 5t12 -5t5 -12t-5 -12t-12 -5zM207 787q-7 0 -12 5t-5 12t5 12t12 5t12 -5t5 -12t-5 -12t-12 -5z" />
    <glyph glyph-name="alphatonos" unicode="&#x3ac;" horiz-adv-x="594" 
d="M275 9q91 0 156 68t65 180v8q0 114 -60.5 181.5t-152.5 67.5q-94 0 -159 -67.5t-65 -181.5v-8q0 -114 60.5 -181t155.5 -67zM275 -7q-101 0 -167.5 70.5t-66.5 193.5v8q0 119 70 192t172 73q84 0 136.5 -45.5t76.5 -114.5v153h18v-523h-18v157q-21 -66 -78 -115t-143 -49
zM289 596l75 147h20l-78 -147h-17z" />
    <glyph glyph-name="epsilontonos" unicode="&#x3ad;" horiz-adv-x="525" 
d="M159 270q-44 7 -73 39t-29 75q0 66 51 106t155 40q192 0 216 -134h-18q-12 55 -56 86.5t-142 31.5q-188 0 -188 -131q0 -43 35 -74t91 -31h132v-16h-135q-65 0 -100.5 -36t-35.5 -86q0 -63 50.5 -97t146.5 -34q185 0 212 134h17q-30 -150 -229 -150q-102 0 -158.5 38.5
t-56.5 108.5q0 50 31.5 86t83.5 44zM266 596l75 147h20l-78 -147h-17z" />
    <glyph glyph-name="etatonos" unicode="&#x3ae;" horiz-adv-x="565" 
d="M80 0v523h18v-125q19 54 75.5 93t128.5 39q89 0 138.5 -51t49.5 -156v-505h-18v505q0 97 -44.5 144t-125.5 47q-80 0 -142 -53t-62 -144v-317h-18zM256 596l75 147h20l-78 -147h-17z" />
    <glyph glyph-name="iotatonos" unicode="&#x3af;" horiz-adv-x="182" 
d="M82 0v523h18v-523h-18zM84 596l75 147h20l-78 -147h-17z" />
    <glyph glyph-name="upsilondieresistonos" unicode="&#x3b0;" horiz-adv-x="546" 
d="M273 -7q-86 0 -144.5 55t-58.5 157v318h18v-318q0 -96 53 -146t132 -50q80 0 132.5 48.5t52.5 146.5v319h18v-319q0 -102 -58.5 -156.5t-144.5 -54.5zM265 638l45 147h20l-48 -147h-17zM363 639q-7 0 -12 5t-5 12t5 12t12 5t12 -5t5 -12t-5 -12t-12 -5zM193 639
q-7 0 -12 5t-5 12t5 12t12 5t12 -5t5 -12t-5 -12t-12 -5z" />
    <glyph glyph-name="alpha" unicode="&#x3b1;" horiz-adv-x="594" 
d="M275 9q91 0 156 68t65 180v8q0 114 -60.5 181.5t-152.5 67.5q-94 0 -159 -67.5t-65 -181.5v-8q0 -114 60.5 -181t155.5 -67zM275 -7q-101 0 -167.5 70.5t-66.5 193.5v8q0 119 70 192t172 73q84 0 136.5 -45.5t76.5 -114.5v153h18v-523h-18v157q-21 -66 -78 -115t-143 -49
z" />
    <glyph glyph-name="beta" unicode="&#x3b2;" horiz-adv-x="568" 
d="M271 405v17q92 -3 147.5 51t55.5 120v4q0 75 -48.5 119t-132.5 44q-98 0 -146.5 -56t-48.5 -152v-341q0 -82 63.5 -142t145.5 -60q84 0 143 53.5t59 151.5v8q0 87 -62.5 135.5t-175.5 47.5zM333 415q83 -9 138.5 -58t55.5 -135v-8q0 -104 -65 -162.5t-155 -58.5
q-69 0 -125 38.5t-84 101.5v-315h-18v735q0 101 55.5 162t157.5 61q90 0 144.5 -49.5t54.5 -129.5v-4q0 -64 -48.5 -117t-110.5 -61z" />
    <glyph glyph-name="gamma" unicode="&#x3b3;" horiz-adv-x="531" 
d="M267 28l220 495h18l-229 -515v-190h-18v190l-232 515h19z" />
    <glyph glyph-name="delta" unicode="&#x3b4;" horiz-adv-x="576" 
d="M96 768v5h393v-16h-358l327 -324q77 -77 77 -178v-7q0 -105 -72.5 -180t-175.5 -75q-102 0 -174 73.5t-72 179.5v6q0 96 70.5 172.5t175.5 76.5q59 0 103 -24zM517 248v8q0 93 -66 161t-163 68t-163 -69.5t-66 -162.5v-8q0 -99 66.5 -167.5t162.5 -68.5t162.5 69.5
t66.5 169.5z" />
    <glyph glyph-name="epsilon" unicode="&#x3b5;" horiz-adv-x="525" 
d="M159 270q-44 7 -73 39t-29 75q0 66 51 106t155 40q192 0 216 -134h-18q-12 55 -56 86.5t-142 31.5q-188 0 -188 -131q0 -43 35 -74t91 -31h132v-16h-135q-65 0 -100.5 -36t-35.5 -86q0 -63 50.5 -97t146.5 -34q185 0 212 134h17q-30 -150 -229 -150q-102 0 -158.5 38.5
t-56.5 108.5q0 50 31.5 86t83.5 44z" />
    <glyph glyph-name="zeta" unicode="&#x3b6;" horiz-adv-x="466" 
d="M353 0h-81q-104 0 -167.5 55t-63.5 154q0 44 14 90.5t33 85.5t54 85.5t62.5 78t74 77t71 68t71.5 63.5h-348v16h382v-5q-95 -82 -160.5 -147t-122.5 -136.5t-85 -140t-28 -135.5q0 -93 57.5 -143t155.5 -50h82q102 0 102 -68q0 -40 -20 -102h-18q20 58 20 100
q0 29 -19.5 41.5t-65.5 12.5z" />
    <glyph glyph-name="eta" unicode="&#x3b7;" horiz-adv-x="565" 
d="M80 0v523h18v-125q19 54 75.5 93t128.5 39q89 0 138.5 -51t49.5 -156v-505h-18v505q0 97 -44.5 144t-125.5 47q-80 0 -142 -53t-62 -144v-317h-18z" />
    <glyph glyph-name="theta" unicode="&#x3b8;" horiz-adv-x="588" 
d="M528 413v-50q0 -179 -60.5 -274.5t-173.5 -95.5q-112 0 -173 95t-61 272v50q0 176 61 271t170 95t173 -95t64 -268zM291 760q-103 0 -157.5 -90.5t-54.5 -259.5v-7h430v10q0 168 -58 257.5t-160 89.5zM294 9q215 0 215 354v24h-430v-27q0 -171 55 -261t160 -90z" />
    <glyph glyph-name="iota" unicode="&#x3b9;" horiz-adv-x="182" 
d="M82 0v523h18v-523h-18z" />
    <glyph glyph-name="kappa" unicode="&#x3ba;" horiz-adv-x="459" 
d="M103 267l304 256h24l-303 -256l311 -267h-25zM98 523v-523h-18v523h18z" />
    <glyph glyph-name="lambda" unicode="&#x3bb;" horiz-adv-x="513" 
d="M236 522l-67 181q-11 30 -25 43.5t-39 13.5q-23 0 -53 -12v17q27 11 53 11q54 0 79 -65l241 -643q11 -30 26 -43t38 -13q18 0 32 6v-16q-18 -6 -32 -6q-30 0 -48.5 15.5t-31.5 49.5l-164 436l-200 -497h-19z" />
    <glyph glyph-name="uni03BC" unicode="&#x3bc;" horiz-adv-x="566" 
d="M81 -182v705h18v-340q0 -90 49 -132t130 -42q79 0 135 51.5t56 142.5v320h18v-523h-18v121q-19 -55 -69 -91.5t-122 -36.5q-140 0 -179 105v-280h-18z" />
    <glyph glyph-name="nu" unicode="&#x3bd;" horiz-adv-x="499" 
d="M238 0l-212 523h19l206 -507l204 507h18l-209 -523h-26z" />
    <glyph glyph-name="xi" unicode="&#x3be;" horiz-adv-x="487" 
d="M290 16h75q102 0 102 -68q0 -40 -20 -102h-18q20 58 20 100q0 29 -19.5 41.5t-65.5 12.5h-74q-113 0 -181 55t-68 154q0 87 53.5 145t126.5 71q-57 16 -92.5 59.5t-35.5 101.5q0 62 45.5 111.5t112.5 59.5h-196v16h400v-16h-121q-94 0 -158.5 -47t-64.5 -124
q0 -60 44 -107t123 -47h132v-16h-132q-98 0 -158.5 -59t-60.5 -148q0 -93 63.5 -143t167.5 -50z" />
    <glyph glyph-name="omicron" unicode="&#x3bf;" horiz-adv-x="576" 
d="M288 9q95 0 162 68.5t67 180.5v8q0 114 -66.5 180.5t-160.5 66.5q-95 0 -163 -68.5t-68 -179.5v-8q0 -110 67 -179t162 -69zM287 -7q-102 0 -174 75t-72 189v8q0 115 73.5 189.5t175.5 74.5t173.5 -73t71.5 -190v-8q0 -116 -73 -190.5t-175 -74.5z" />
    <glyph glyph-name="pi" unicode="&#x3c0;" horiz-adv-x="577" 
d="M457 0v507h-337v-507h-18v507h-80v16h533v-16h-80v-507h-18z" />
    <glyph glyph-name="rho" unicode="&#x3c1;" horiz-adv-x="574" 
d="M302 9q92 0 152.5 67t60.5 181v8q0 115 -61.5 181.5t-154.5 66.5q-94 0 -157.5 -68t-63.5 -180v-8q0 -111 66 -179.5t158 -68.5zM302 -7q-86 0 -144 49t-80 116v-340h-18v447q0 116 69 190t170 74t167.5 -72.5t66.5 -191.5v-8q0 -122 -66.5 -193t-164.5 -71z" />
    <glyph glyph-name="uni03C2" unicode="&#x3c2;" horiz-adv-x="539" 
d="M59 257q0 -110 62 -175.5t173 -65.5h51q102 0 102 -68q0 -40 -20 -102h-18q20 58 20 100q0 29 -19.5 41.5t-65.5 12.5h-50q-112 0 -182.5 68.5t-70.5 188.5v8q0 117 70.5 191t173.5 74q80 0 139.5 -45.5t69.5 -118.5h-18q-9 68 -63.5 108t-127.5 40q-96 0 -161 -68
t-65 -181v-8z" />
    <glyph glyph-name="sigma" unicode="&#x3c3;" horiz-adv-x="595" 
d="M287 -7q-102 0 -174 75t-72 189v8q0 114 73 186t176 72h275v-16h-193q74 -25 118.5 -88t44.5 -153v-8q0 -116 -73 -190.5t-175 -74.5zM288 9q95 0 162 68.5t67 180.5v8q0 112 -65 176.5t-162 64.5q-96 0 -163.5 -65.5t-67.5 -176.5v-8q0 -110 67 -179t162 -69z" />
    <glyph glyph-name="tau" unicode="&#x3c4;" horiz-adv-x="436" 
d="M304 -7q-102 0 -102 127v387h-180v16h392v-16h-194v-387q0 -111 84 -111q54 0 87 11v-16q-31 -11 -87 -11z" />
    <glyph glyph-name="upsilon" unicode="&#x3c5;" horiz-adv-x="546" 
d="M273 -7q-86 0 -144.5 55t-58.5 157v318h18v-318q0 -96 53 -146t132 -50q80 0 132.5 48.5t52.5 146.5v319h18v-319q0 -102 -58.5 -156.5t-144.5 -54.5z" />
    <glyph glyph-name="phi" unicode="&#x3c6;" horiz-adv-x="720" 
d="M679 270v-8q0 -120 -88.5 -192t-222.5 -75v-177h-18v177q-140 4 -224.5 77t-84.5 184v8q0 107 54 175t135 87v-16q-76 -19 -123.5 -83t-47.5 -163v-8q0 -106 79 -173.5t212 -71.5v518h12q155 0 236 -69.5t81 -189.5zM661 262v8q0 114 -74 178t-219 65v-502
q130 4 211.5 69.5t81.5 181.5z" />
    <glyph glyph-name="chi" unicode="&#x3c7;" horiz-adv-x="520" 
d="M42 -182l210 359l-165 303q-12 21 -20 27t-21 6q-14 0 -29 -6v16q16 6 29 6q18 0 30 -8t26 -33l160 -293l192 328h20l-202 -346l161 -293q16 -29 27.5 -41t28.5 -12q19 0 33 6v-16q-18 -6 -33 -6q-24 0 -38.5 13.5t-33.5 47.5l-156 284l-199 -342h-20z" />
    <glyph glyph-name="psi" unicode="&#x3c8;" horiz-adv-x="714" 
d="M88 523v-277q0 -100 65 -162.5t195 -68.5v508h18v-508q126 6 193 68t67 161v279h18v-277q0 -104 -72.5 -172t-205.5 -75v-181h-18v181q-137 7 -207.5 74t-70.5 173v277h18z" />
    <glyph glyph-name="omega" unicode="&#x3c9;" horiz-adv-x="725" 
d="M371 351v-198q0 -66 40 -105t99 -39q78 0 117 61t39 165v7q0 54 -8 96.5t-27.5 81t-57.5 63t-92 30.5v16q203 -22 203 -287v-8q0 -108 -45 -174.5t-128 -66.5q-59 0 -98 31.5t-51 82.5q-11 -49 -50 -81.5t-98 -32.5q-84 0 -128.5 66.5t-44.5 175.5v8q0 118 47.5 196
t155.5 90v-16q-185 -23 -185 -270v-8q0 -103 40.5 -164.5t115.5 -61.5q58 0 98 39t40 105v198h18z" />
    <glyph glyph-name="iotadieresis" unicode="&#x3ca;" horiz-adv-x="182" 
d="M82 0v523h18v-523h-18zM162 639q-7 0 -12 5t-5 12t5 12t12 5t12 -5t5 -12t-5 -12t-12 -5zM20 639q-7 0 -12 5t-5 12t5 12t12 5t12 -5t5 -12t-5 -12t-12 -5z" />
    <glyph glyph-name="upsilondieresis" unicode="&#x3cb;" horiz-adv-x="546" 
d="M273 -7q-86 0 -144.5 55t-58.5 157v318h18v-318q0 -96 53 -146t132 -50q80 0 132.5 48.5t52.5 146.5v319h18v-319q0 -102 -58.5 -156.5t-144.5 -54.5zM344 639q-7 0 -12 5t-5 12t5 12t12 5t12 -5t5 -12t-5 -12t-12 -5zM202 639q-7 0 -12 5t-5 12t5 12t12 5t12 -5t5 -12
t-5 -12t-12 -5z" />
    <glyph glyph-name="omicrontonos" unicode="&#x3cc;" horiz-adv-x="576" 
d="M287 -7h-10q-2 0 -5.5 0.5t-4.5 0.5q-20 2 -29 4q-3 1 -9.5 2t-9.5 2q-12 4 -36 14q-22 12 -33 19q-25 19 -43 39l-12 15q-37 48 -49 112q0 2 -3 22q-1 3 -1 11q-1 4 -1 11v12v8q0 61 24 117l5 9q12 26 33 50l6 8q42 45 95 64l6 2t6.5 2t5.5 2q12 4 29 7q19 3 39 3h10
l19 -2q8 -1 29 -5q3 0 9 -2l18 -6l9 -4l8 -3l17 -9q1 -1 4 -2.5t4 -2.5q16 -10 24 -16l7 -6l14 -13q19 -20 30 -38l10 -17l5 -9l8 -19q1 -2 4 -10l6 -20q5 -17 6 -33q4 -30 4 -46v-8v-12q0 -2 -0.5 -6t-0.5 -6q-1 -4 -1 -11q-3 -24 -11 -53l-4 -11l-3 -9q-1 -2 -4 -10l-5 -9
l-4 -9q-13 -24 -35 -49q-9 -11 -20 -20l-8 -7q-10 -8 -15 -11l-17 -10q-13 -8 -34 -17l-19 -6l-9 -2l-19 -4l-29 -3h-10zM288 9q18 0 27 1l9 2q16 3 17 3q15 3 34 11q22 8 46 26q9 7 27 23l6 7l12 14q15 20 28 48q2 3 4 9q7 16 12 39q4 19 5 32q2 22 2 34v8q0 12 -2 34
q-3 30 -10 52q-6 18 -15 37l-4 8q-5 9 -10 16q-10 16 -28 36l-13 12l-7 5q-16 13 -29 19q-16 8 -24 11l-24 9q-18 5 -43 7q-6 1 -18 1h-9q-1 0 -4 -0.5t-5 -0.5q-6 0 -9 -1q-18 -2 -27 -4l-17 -5l-8 -3q-9 -3 -25 -11q-5 -2 -15 -8l-15 -10l-14 -11l-7 -6l-6 -6
q-4 -4 -12 -14l-12 -14q-25 -36 -37 -79l-2 -10q-7 -29 -7 -65v-8q0 -57 18 -103q13 -32 33 -57l5 -7l6 -7q8 -9 26 -25q24 -19 45 -28l17 -7l17 -6l17 -4q22 -4 36 -4h9zM281 596l75 147h20l-78 -147h-17z" />
    <glyph glyph-name="upsilontonos" unicode="&#x3cd;" horiz-adv-x="546" 
d="M273 -7q-86 0 -144.5 55t-58.5 157v318h18v-318q0 -96 53 -146t132 -50q80 0 132.5 48.5t52.5 146.5v319h18v-319q0 -102 -58.5 -156.5t-144.5 -54.5zM261 596l75 147h20l-78 -147h-17z" />
    <glyph glyph-name="omegatonos" unicode="&#x3ce;" horiz-adv-x="725" 
d="M371 351v-198q0 -66 40 -105t99 -39q78 0 117 61t39 165v7q0 54 -8 96.5t-27.5 81t-57.5 63t-92 30.5v16q203 -22 203 -287v-8q0 -108 -45 -174.5t-128 -66.5q-59 0 -98 31.5t-51 82.5q-11 -49 -50 -81.5t-98 -32.5q-84 0 -128.5 66.5t-44.5 175.5v8q0 118 47.5 196
t155.5 90v-16q-185 -23 -185 -270v-8q0 -103 40.5 -164.5t115.5 -61.5q58 0 98 39t40 105v198h18zM353 596l75 147h20l-78 -147h-17z" />
    <glyph glyph-name="uni0401" unicode="&#x401;" horiz-adv-x="566" 
d="M95 0v715h403v-17h-384v-320h313v-17h-313v-344h402v-17h-421zM369 787q-7 0 -12 5t-5 12t5 12t12 5t12 -5t5 -12t-5 -12t-12 -5zM215 787q-7 0 -12 5t-5 12t5 12t12 5t12 -5t5 -12t-5 -12t-12 -5z" />
    <glyph glyph-name="uni0402" unicode="&#x402;" horiz-adv-x="757" 
d="M288 333q2 4 6 11t21 24.5t38 30.5t58.5 24t81.5 11q104 0 156.5 -61.5t52.5 -166.5q0 -95 -45 -152.5t-128 -57.5q-54 0 -98 21v18q48 -22 98 -22q76 0 116 52.5t40 140.5q0 97 -48 154t-143 57q-45 0 -83 -11.5t-59.5 -28.5t-37 -33.5t-20.5 -27.5l-6 -12v-304h-19v698
h-238v17h515v-17h-258v-365z" />
    <glyph glyph-name="uni0403" unicode="&#x403;" horiz-adv-x="516" 
d="M278 771l73 117h21l-76 -117h-18zM95 0v715h383v-17h-364v-698h-19z" />
    <glyph glyph-name="uni0404" unicode="&#x404;" horiz-adv-x="720" 
d="M675 221q-21 -105 -102 -166t-193 -61q-149 0 -239.5 100t-90.5 259v8q0 155 96 257.5t233 102.5q111 0 188 -55.5t98 -155.5h-19q-21 92 -90.5 143t-176.5 51q-130 0 -218.5 -94t-91.5 -239h427v-17h-427q0 -154 85 -248.5t226 -94.5q107 0 181.5 56.5t95.5 153.5h18z
" />
    <glyph glyph-name="uni0405" unicode="&#x405;" horiz-adv-x="572" 
d="M292 -6q-115 0 -179 54t-77 142h19q12 -80 70 -129.5t167 -49.5q99 0 155 49.5t56 125.5q0 88 -47.5 125t-166.5 54t-170.5 60t-51.5 118q0 83 59.5 130.5t159.5 47.5q90 0 143.5 -42t67.5 -117h-19q-28 142 -192 142q-94 0 -147 -41t-53 -120q0 -68 47 -106t159 -54
q127 -18 178.5 -59.5t51.5 -137.5q0 -82 -61.5 -137t-168.5 -55z" />
    <glyph glyph-name="uni0406" unicode="&#x406;" horiz-adv-x="219" 
d="M100 0v715h19v-715h-19z" />
    <glyph glyph-name="uni0407" unicode="&#x407;" horiz-adv-x="219" 
d="M100 0v715h19v-715h-19zM186 787q-7 0 -12 5t-5 12t5 12t12 5t12 -5t5 -12t-5 -12t-12 -5zM32 787q-7 0 -12 5t-5 12t5 12t12 5t12 -5t5 -12t-5 -12t-12 -5z" />
    <glyph glyph-name="uni0408" unicode="&#x408;" horiz-adv-x="378" 
d="M136 -4q-57 0 -101 21v18q48 -22 101 -22q144 0 144 152v550h19v-550q0 -86 -43 -127.5t-120 -41.5z" />
    <glyph glyph-name="uni0409" unicode="&#x409;" horiz-adv-x="1007" 
d="M549 0v698h-344q0 -250 -15 -449q-11 -144 -36 -199.5t-88 -55.5q-12 0 -23 2.5t-16 5.5l-5 2v19q23 -11 43 -11q52 0 75 55.5t32 187.5q7 93 10.5 208t3.5 183l1 69h380v-313h163q110 0 172.5 -49t62.5 -140v-4q0 -95 -56.5 -152t-151.5 -57h-208zM567 17h190
q90 0 139.5 52.5t49.5 139.5v4q0 82 -56 127t-160 45h-163v-368z" />
    <glyph glyph-name="uni040A" unicode="&#x40a;" horiz-adv-x="1026" 
d="M586 17h190q90 0 139.5 50t49.5 136v4q0 83 -56.5 130.5t-159.5 47.5h-163v-368zM568 0v354h-454v-354h-19v715h19v-344h454v344h18v-313h163q109 0 172 -51.5t63 -143.5v-4q0 -94 -56 -148.5t-152 -54.5h-208z" />
    <glyph glyph-name="uni040B" unicode="&#x40b;" horiz-adv-x="777" 
d="M288 333q2 4 6.5 11t21.5 24.5t38 30.5t57 24t78 11q109 0 156 -60.5t47 -188.5v-185h-19v184q0 120 -42.5 176.5t-141.5 56.5q-41 0 -76.5 -11.5t-57.5 -28.5t-38 -33.5t-23 -27.5l-6 -12v-304h-19v698h-238v17h515v-17h-258v-365z" />
    <glyph glyph-name="uni040C" unicode="&#x40c;" horiz-adv-x="579" 
d="M95 0v715h19v-715h-19zM521 0l-397 365l380 350h24l-379 -349l397 -366h-25zM268 771l73 117h21l-76 -117h-18z" />
    <glyph glyph-name="uni040D" unicode="&#x40d;" horiz-adv-x="712" 
d="M113 0h-18v715h19v-687l485 687h18v-715h-19v687zM361 771l-76 117h21l73 -117h-18z" />
    <glyph glyph-name="uni040E" unicode="&#x40e;" horiz-adv-x="562" 
d="M294 775q-47 0 -81 31.5t-38 80.5h18q3 -42 31.5 -70t69.5 -28t70 28t33 70h18q-4 -48 -39 -80t-82 -32zM141 -6q-16 0 -29 2.5t-18 5.5l-6 2l1 19q22 -11 51 -11q45 0 75.5 31t60.5 96l-243 576h20l233 -552l232 552h18l-231 -552q-37 -87 -71.5 -128t-92.5 -41z" />
    <glyph glyph-name="uni040F" unicode="&#x40f;" horiz-adv-x="692" 
d="M337 0h-242v715h19v-698h464v698h19v-715h-241l-2 -130h-15z" />
    <glyph glyph-name="uni0410" unicode="&#x410;" horiz-adv-x="630" 
d="M313 700l-170 -448h341zM30 0l270 715h26l274 -715h-19l-90 235h-354l-89 -235h-18z" />
    <glyph glyph-name="uni0411" unicode="&#x411;" horiz-adv-x="582" 
d="M521 203q0 -94 -56 -148.5t-152 -54.5h-218v715h382v-17h-363v-296h172q109 0 172 -51.5t63 -143.5v-4zM114 17h199q90 0 139.5 50t49.5 136v4q0 83 -56.5 130.5t-159.5 47.5h-172v-368z" />
    <glyph glyph-name="uni0412" unicode="&#x412;" horiz-adv-x="582" 
d="M95 0v715h188q92 0 146.5 -45.5t54.5 -131.5v-4q0 -67 -37.5 -107t-100.5 -52q84 -11 129.5 -56t45.5 -122v-4q0 -93 -55.5 -143t-152.5 -50h-218zM114 382h172q84 0 131.5 40.5t47.5 111.5v4q0 78 -48 119t-134 41h-169v-316zM114 17h199q91 0 140 45.5t49 130.5v4
q0 82 -56 125t-160 43h-172v-348z" />
    <glyph glyph-name="uni0413" unicode="&#x413;" horiz-adv-x="516" 
d="M95 0v715h383v-17h-364v-698h-19z" />
    <glyph glyph-name="uni0414" unicode="&#x414;" horiz-adv-x="691" 
d="M167 289q-12 -119 -28.5 -185t-47.5 -87h459v681h-358q-7 -226 -25 -409zM29 0l-3 -130h-16v147h53q36 15 54.5 83t31.5 195q9 93 15.5 198t8.5 163l2 59h394v-698h100v-147h-16l-3 130h-621z" />
    <glyph glyph-name="uni0415" unicode="&#x415;" horiz-adv-x="566" 
d="M95 0v715h403v-17h-384v-320h313v-17h-313v-344h402v-17h-421z" />
    <glyph glyph-name="uni0416" unicode="&#x416;" horiz-adv-x="858" 
d="M420 0v715h18v-715h-18zM830 0h-25l-355 365l338 350h24l-341 -349zM53 0h-25l359 365l-341 350h24l338 -351z" />
    <glyph glyph-name="uni0417" unicode="&#x417;" horiz-adv-x="577" 
d="M282 -6q-104 0 -165 54t-74 142h19q12 -79 67 -129t153 -50q102 0 158.5 48.5t56.5 135.5q0 84 -53.5 127t-157.5 43h-95v17h95q84 0 132.5 43t48.5 116q0 80 -48 121.5t-134 41.5q-164 0 -192 -142h-19q14 75 67.5 117t143.5 42q92 0 146.5 -46.5t54.5 -133.5
q0 -69 -38.5 -111.5t-101.5 -54.5q170 -21 170 -180q0 -95 -63 -148t-171 -53z" />
    <glyph glyph-name="uni0418" unicode="&#x418;" horiz-adv-x="712" 
d="M113 0h-18v715h19v-687l485 687h18v-715h-19v687z" />
    <glyph glyph-name="uni0419" unicode="&#x419;" horiz-adv-x="712" 
d="M367 775q-47 0 -81 31.5t-38 80.5h18q3 -42 31.5 -70t69.5 -28t70 28t33 70h18q-4 -48 -39 -80t-82 -32zM113 0h-18v715h19v-687l485 687h18v-715h-19v687z" />
    <glyph glyph-name="uni041A" unicode="&#x41a;" horiz-adv-x="579" 
d="M95 0v715h19v-715h-19zM521 0l-397 365l380 350h24l-379 -349l397 -366h-25z" />
    <glyph glyph-name="uni041B" unicode="&#x41b;" horiz-adv-x="673" 
d="M190 249q-11 -144 -36 -199.5t-88 -55.5q-12 0 -23 2.5t-16 5.5l-5 2v19q23 -11 43 -11q52 0 75 55.5t32 187.5q7 93 10.5 208t3.5 183l1 69h391v-715h-19v698h-354q0 -250 -15 -449z" />
    <glyph glyph-name="uni041C" unicode="&#x41c;" horiz-adv-x="846" 
d="M95 0v715h31l289 -680l298 680h30v-715h-19v695l-305 -695h-9l-296 695v-695h-19z" />
    <glyph glyph-name="uni041D" unicode="&#x41d;" horiz-adv-x="702" 
d="M95 0v715h19v-344h474v344h19v-715h-19v354h-474v-354h-19z" />
    <glyph glyph-name="uni041E" unicode="&#x41e;" horiz-adv-x="790" 
d="M397 -6q-147 0 -247 104.5t-100 254.5v8q0 152 100.5 256t244.5 104t244.5 -103.5t100.5 -253.5v-8q0 -151 -100 -256.5t-243 -105.5zM397 11q138 0 231 99.5t93 245.5v8q0 144 -93.5 242t-232.5 98q-140 0 -233 -99t-93 -244v-8q0 -144 94 -243t234 -99z" />
    <glyph glyph-name="uni041F" unicode="&#x41f;" horiz-adv-x="692" 
d="M578 0v698h-464v-698h-19v715h502v-715h-19z" />
    <glyph glyph-name="uni0420" unicode="&#x420;" horiz-adv-x="552" 
d="M95 0v715h172q236 0 236 -191v-4q0 -197 -233 -197h-157v-323h-18zM113 340h157q214 0 214 180v4q0 174 -217 174h-154v-358z" />
    <glyph glyph-name="uni0421" unicode="&#x421;" horiz-adv-x="720" 
d="M380 -6q-149 0 -239.5 100t-90.5 259v8q0 155 96 257.5t233 102.5q111 0 188 -55.5t98 -155.5h-19q-21 92 -90.5 143t-176.5 51q-132 0 -221 -97t-89 -245v-8q0 -154 85 -248.5t226 -94.5q107 0 181.5 56.5t95.5 153.5h18q-21 -105 -102 -166t-193 -61z" />
    <glyph glyph-name="uni0422" unicode="&#x422;" horiz-adv-x="557" 
d="M269 0v698h-238v17h495v-17h-238v-698h-19z" />
    <glyph glyph-name="uni0423" unicode="&#x423;" horiz-adv-x="562" 
d="M141 -6q-16 0 -29 2.5t-18 5.5l-6 2l1 19q22 -11 51 -11q45 0 75.5 31t60.5 96l-243 576h20l233 -552l232 552h18l-231 -552q-37 -87 -71.5 -128t-92.5 -41z" />
    <glyph glyph-name="uni0424" unicode="&#x424;" horiz-adv-x="753" 
d="M386 634q150 0 236 -71t86 -198v-8q0 -128 -87 -199t-235 -71v-97h-19v97q-150 0 -236 71t-86 198v8q0 128 87 199t235 71v91h19v-91zM386 617v-513q143 0 223 66t80 187v8q0 120 -79.5 186t-223.5 66zM367 104v513q-143 0 -223 -66t-80 -187v-8q0 -120 79.5 -186
t223.5 -66z" />
    <glyph glyph-name="uni0425" unicode="&#x425;" horiz-adv-x="632" 
d="M47 0l259 374l-233 341h21l225 -329l224 329h21l-234 -343l255 -372h-21l-247 360l-249 -360h-21z" />
    <glyph glyph-name="uni0426" unicode="&#x426;" horiz-adv-x="719" 
d="M697 -130h-16l-3 130h-583v715h19v-698h464v698h19v-698h100v-147z" />
    <glyph glyph-name="uni0427" unicode="&#x427;" horiz-adv-x="622" 
d="M527 0h-19v393q-73 -98 -230 -98q-109 0 -161 60t-52 185v175h19v-174q0 -117 47.5 -173t145.5 -56q55 0 101 14t72.5 35t39 34.5t18.5 23.5v296h19v-715z" />
    <glyph glyph-name="uni0428" unicode="&#x428;" horiz-adv-x="975" 
d="M95 0v715h19v-698h364v698h19v-698h364v698h19v-715h-785z" />
    <glyph glyph-name="uni0429" unicode="&#x429;" horiz-adv-x="1002" 
d="M980 -130h-16l-3 130h-866v715h19v-698h364v698h19v-698h364v698h19v-698h100v-147z" />
    <glyph glyph-name="uni042A" unicode="&#x42a;" horiz-adv-x="701" 
d="M233 0v698h-202v17h220v-313h173q109 0 172 -51.5t63 -143.5v-4q0 -94 -56 -148.5t-152 -54.5h-218zM251 17h200q90 0 139.5 50t49.5 136v4q0 83 -56.5 130.5t-159.5 47.5h-173v-368z" />
    <glyph glyph-name="uni042B" unicode="&#x42b;" horiz-adv-x="748" 
d="M653 715v-715h-18v715h18zM95 0v715h18v-313h163q109 0 172 -51.5t63 -143.5v-4q0 -94 -56 -148.5t-152 -54.5h-208zM113 17h190q90 0 139.5 50t49.5 136v4q0 83 -56.5 130.5t-159.5 47.5h-163v-368z" />
    <glyph glyph-name="uni042C" unicode="&#x42c;" horiz-adv-x="563" 
d="M95 0v715h18v-313h173q109 0 172 -51.5t63 -143.5v-4q0 -94 -56 -148.5t-152 -54.5h-218zM113 17h200q90 0 139.5 50t49.5 136v4q0 83 -56.5 130.5t-159.5 47.5h-173v-368z" />
    <glyph glyph-name="uni042D" unicode="&#x42d;" horiz-adv-x="714" 
d="M339 -6q-113 0 -192.5 55.5t-100.5 155.5h19q21 -92 93 -143t181 -51q130 0 218 97t88 246h-417v17h417q-3 152 -83 242.5t-217 90.5q-108 0 -182 -55.5t-100 -154.5h-18q25 106 106 166.5t194 60.5q147 0 233 -99t86 -260v-8q0 -155 -94.5 -257.5t-230.5 -102.5z" />
    <glyph glyph-name="uni042E" unicode="&#x42e;" horiz-adv-x="1000" 
d="M617 -6q-146 0 -241.5 104t-95.5 256h-166v-354h-19v715h19v-344h166q4 149 99 249.5t236 100.5q143 0 239 -103t96 -254v-8q0 -152 -95.5 -257t-237.5 -105zM617 11q137 0 225.5 99t88.5 246v8q0 145 -89 242.5t-227 97.5q-139 0 -227.5 -98t-88.5 -245v-8
q0 -145 89.5 -243.5t228.5 -98.5z" />
    <glyph glyph-name="uni042F" unicode="&#x42f;" horiz-adv-x="596" 
d="M483 698h-200q-91 0 -140 -46t-49 -131v-4q0 -84 57 -133.5t159 -49.5h173v364zM501 715v-715h-18v318h-173q-23 0 -34 1l-218 -319h-23l221 322q-85 13 -133 64t-48 131v4q0 93 55.5 143.5t152.5 50.5h218z" />
    <glyph glyph-name="uni0430" unicode="&#x430;" horiz-adv-x="515" 
d="M228 9q78 0 136 43t58 100v124h-149q-97 0 -152.5 -30t-55.5 -109q0 -62 43 -95t120 -33zM228 -7q-84 0 -132.5 38t-48.5 106q0 155 226 155h149v55q0 86 -38.5 126.5t-118.5 40.5q-69 0 -117 -32.5t-60 -98.5h-17q9 70 64 108.5t130 38.5q175 0 175 -183v-347h-18v96
q-22 -44 -73 -73.5t-121 -29.5z" />
    <glyph glyph-name="uni0431" unicode="&#x431;" horiz-adv-x="587" 
d="M298 -7q-104 0 -175 75t-71 203v86q0 207 66.5 306.5t217.5 102.5l53 1q81 2 125 15v-16q-30 -13 -123 -15l-55 -1q-141 -2 -204 -96.5t-65 -297.5h2q23 80 89 126.5t153 46.5q101 0 168 -72.5t67 -190.5v-8q0 -116 -73 -190.5t-175 -74.5zM299 9q95 0 162 68.5t67 180.5
v8q0 115 -62 181t-155 66q-98 0 -169.5 -65t-71.5 -176v-2q0 -120 66.5 -190.5t162.5 -70.5z" />
    <glyph glyph-name="uni0432" unicode="&#x432;" horiz-adv-x="503" 
d="M81 0v523h192q70 0 110.5 -33.5t40.5 -96.5v-3q0 -95 -100 -114q61 -8 94 -41t33 -89v-3q0 -70 -42 -106.5t-125 -36.5h-203zM273 507h-174v-225h175q62 0 96.5 28t34.5 80v3q0 57 -34.5 85.5t-97.5 28.5zM274 266h-175v-250h185q148 0 148 127v3q0 120 -158 120z" />
    <glyph glyph-name="uni0433" unicode="&#x433;" horiz-adv-x="437" 
d="M413 507h-314v-507h-18v523h332v-16z" />
    <glyph glyph-name="uni0434" unicode="&#x434;" horiz-adv-x="560" 
d="M147 270q-11 -116 -24.5 -173.5t-43.5 -80.5h366v491h-282q-6 -139 -16 -237zM32 0l-3 -127h-14v143h33q37 10 53.5 71t28.5 188l17 248h316v-507h69v-143h-14l-3 127h-483z" />
    <glyph glyph-name="uni0435" unicode="&#x435;" horiz-adv-x="537" 
d="M282 -7q-113 0 -177 73t-64 191v8q0 116 66 190.5t168 74.5q100 0 160.5 -66.5t60.5 -182.5v-11h-437q0 -123 58 -192t165 -69q72 0 123 34t69 98h18q-19 -70 -75 -109t-135 -39zM59 286h419q-1 110 -56 169t-147 59q-91 0 -151.5 -62.5t-64.5 -165.5z" />
    <glyph glyph-name="uni0436" unicode="&#x436;" horiz-adv-x="642" 
d="M312 0v523h17v-523h-17zM624 0h-23l-266 274l252 249h22l-254 -249zM40 0h-23l269 274l-254 249h22l252 -249z" />
    <glyph glyph-name="uni0437" unicode="&#x437;" horiz-adv-x="466" 
d="M388 401v-3q0 -51 -27 -82t-73 -40q60 -6 93 -40t33 -90v-7q0 -61 -49.5 -104.5t-128.5 -43.5q-82 0 -132 40t-61 105h18q13 -59 56.5 -94t118.5 -35q72 0 115.5 38.5t43.5 93.5v7q0 120 -154 120h-95v16h95q61 0 94.5 31t33.5 85v3q0 54 -36.5 83.5t-101.5 29.5
q-63 0 -103.5 -35.5t-49.5 -97.5h-17q7 68 53.5 108.5t116.5 40.5q71 0 114 -34.5t43 -94.5z" />
    <glyph glyph-name="uni0438" unicode="&#x438;" horiz-adv-x="561" 
d="M99 0h-18v523h18v-495l363 495h18v-523h-18v497z" />
    <glyph glyph-name="uni0439" unicode="&#x439;" horiz-adv-x="561" 
d="M276 612q-47 0 -81 31.5t-38 80.5h18q3 -42 31.5 -70t69.5 -28t70 28t33 70h18q-4 -48 -39 -80t-82 -32zM99 0h-18v523h18v-495l363 495h18v-523h-18v497z" />
    <glyph glyph-name="uni043A" unicode="&#x43a;" horiz-adv-x="452" 
d="M80 0v523h18v-523h-18zM410 0l-307 274l293 249h24l-292 -249l307 -274h-25z" />
    <glyph glyph-name="uni043B" unicode="&#x43b;" horiz-adv-x="551" 
d="M165 270q-7 -72 -14.5 -116t-20.5 -83t-33.5 -56.5t-50.5 -17.5q-11 0 -21 2t-15 5l-5 2v18q21 -10 40 -10q47 0 68.5 64t34.5 197l17 248h305v-523h-18v507h-271q-6 -139 -16 -237z" />
    <glyph glyph-name="uni043C" unicode="&#x43c;" horiz-adv-x="664" 
d="M324 0l-225 499v-499h-18v523h27l222 -492l228 492h25v-523h-18v499l-231 -499h-10z" />
    <glyph glyph-name="uni043D" unicode="&#x43d;" horiz-adv-x="551" 
d="M452 0v266h-353v-266h-18v523h18v-241h353v241h18v-523h-18z" />
    <glyph glyph-name="uni043E" unicode="&#x43e;" horiz-adv-x="576" 
d="M287 -7q-102 0 -174 75t-72 189v8q0 115 73.5 189.5t175.5 74.5t173.5 -73t71.5 -190v-8q0 -116 -73 -190.5t-175 -74.5zM288 9q95 0 162 68.5t67 180.5v8q0 114 -66.5 180.5t-160.5 66.5q-95 0 -163 -68.5t-68 -179.5v-8q0 -110 67 -179t162 -69z" />
    <glyph glyph-name="uni043F" unicode="&#x43f;" horiz-adv-x="541" 
d="M442 0v507h-343v-507h-18v523h379v-523h-18z" />
    <glyph glyph-name="uni0440" unicode="&#x440;" horiz-adv-x="594" 
d="M322 9q92 0 152.5 67t60.5 181v8q0 114 -62 181.5t-151 67.5q-87 0 -155.5 -69t-68.5 -180v-8q0 -111 66 -179.5t158 -68.5zM80 -182v705h18v-163q23 71 84 120.5t140 49.5q97 0 164 -73t67 -192v-8q0 -122 -66.5 -193t-164.5 -71q-86 0 -144 49t-80 116v-340h-18z" />
    <glyph glyph-name="uni0441" unicode="&#x441;" horiz-adv-x="539" 
d="M283 -7q-102 0 -172 74t-70 190v8q0 117 70.5 191t173.5 74q80 0 139.5 -45.5t69.5 -118.5h-18q-9 68 -63.5 108t-127.5 40q-96 0 -161 -68t-65 -181v-8q0 -111 65 -179.5t159 -68.5q78 0 133 43.5t68 120.5h17q-13 -82 -73.5 -131t-144.5 -49z" />
    <glyph glyph-name="uni0442" unicode="&#x442;" horiz-adv-x="446" 
d="M426 523v-16h-194v-507h-18v507h-194v16h406z" />
    <glyph glyph-name="uni0443" unicode="&#x443;" horiz-adv-x="483" 
d="M145 -182l90 217l-209 488h19l200 -467l193 467h19l-293 -705h-19z" />
    <glyph glyph-name="uni0444" unicode="&#x444;" horiz-adv-x="658" 
d="M338 529q125 -2 202 -75t77 -189v-8q0 -117 -77.5 -189.5t-201.5 -74.5v-175h-18v175q-125 2 -202 75t-77 189v8q0 117 77.5 189.5t201.5 74.5v244h18v-244zM320 8v506q-117 -2 -189 -68.5t-72 -180.5v-8q0 -112 72 -179.5t189 -69.5zM338 514v-506q117 2 189 68.5
t72 180.5v8q0 112 -72 179.5t-189 69.5z" />
    <glyph glyph-name="uni0445" unicode="&#x445;" horiz-adv-x="491" 
d="M31 0l201 272l-189 251h22l179 -239l175 239h21l-185 -251l205 -272h-22l-195 260l-191 -260h-21z" />
    <glyph glyph-name="uni0446" unicode="&#x446;" horiz-adv-x="557" 
d="M529 -127h-14l-3 127h-431v523h18v-507h343v507h18v-507h69v-143z" />
    <glyph glyph-name="uni0447" unicode="&#x447;" horiz-adv-x="561" 
d="M456 0h-18v286q-63 -93 -186 -93q-177 0 -177 200v130h18v-130q0 -184 159 -184q38 0 71.5 11t53.5 27t34.5 32t20.5 27l6 11v206h18v-523z" />
    <glyph glyph-name="uni0448" unicode="&#x448;" horiz-adv-x="782" 
d="M81 0v523h18v-507h283v507h18v-507h283v507h18v-523h-620z" />
    <glyph glyph-name="uni0449" unicode="&#x449;" horiz-adv-x="798" 
d="M770 -127h-14l-3 127h-672v523h18v-507h283v507h18v-507h283v507h18v-507h69v-143z" />
    <glyph glyph-name="uni044A" unicode="&#x44a;" horiz-adv-x="565" 
d="M186 0v507h-166v16h184v-202h138q87 0 137 -41.5t50 -114.5v-3q0 -75 -44.5 -118.5t-121.5 -43.5h-177zM204 15h159q70 0 109 39.5t39 107.5v3q0 66 -45 103.5t-124 37.5h-138v-291z" />
    <glyph glyph-name="uni044B" unicode="&#x44b;" horiz-adv-x="630" 
d="M531 0v523h18v-523h-18zM81 0v523h18v-202h138q87 0 137 -41.5t50 -114.5v-3q0 -75 -44.5 -118.5t-121.5 -43.5h-177zM99 15h159q70 0 109 39.5t39 107.5v3q0 66 -45 103.5t-124 37.5h-138v-291z" />
    <glyph glyph-name="uni044C" unicode="&#x44c;" horiz-adv-x="460" 
d="M81 0v523h18v-202h138q87 0 137 -41.5t50 -114.5v-3q0 -75 -44.5 -118.5t-121.5 -43.5h-177zM99 15h159q70 0 109 39.5t39 107.5v3q0 66 -45 103.5t-124 37.5h-138v-291z" />
    <glyph glyph-name="uni044D" unicode="&#x44d;" horiz-adv-x="539" 
d="M260 -7q-86 0 -148 48.5t-74 131.5h17q12 -78 69 -121t136 -43q100 0 160 69t60 188h-304v16h304q-6 106 -68 169t-152 63q-74 0 -126 -38t-72 -110h-18q21 77 78.5 120.5t137.5 43.5q101 0 169.5 -74t68.5 -191v-8q0 -118 -65 -191t-173 -73z" />
    <glyph glyph-name="uni044E" unicode="&#x44e;" horiz-adv-x="757" 
d="M478 -7q-102 0 -169 75t-67 197v1h-143v-266h-18v523h18v-241h143q6 109 74 178t165 69q101 0 168 -72.5t67 -190.5v-8q0 -117 -68.5 -191t-169.5 -74zM479 9q94 0 156.5 68t62.5 181v8q0 115 -62 181t-155 66q-94 0 -157.5 -68t-63.5 -180v-8q0 -111 62.5 -179.5
t156.5 -68.5z" />
    <glyph glyph-name="uni044F" unicode="&#x44f;" horiz-adv-x="493" 
d="M394 508h-159q-71 0 -109.5 -34t-38.5 -101v-3q0 -65 44 -99t125 -34h138v271zM412 523v-523h-18v222h-138q-20 0 -30 1l-158 -223h-23l162 225q-66 10 -102 47t-36 98v3q0 74 44 112t122 38h177z" />
    <glyph glyph-name="uni0451" unicode="&#x451;" horiz-adv-x="537" 
d="M345 639q-7 0 -12 5t-5 12t5 12t12 5t12 -5t5 -12t-5 -12t-12 -5zM203 639q-7 0 -12 5t-5 12t5 12t12 5t12 -5t5 -12t-5 -12t-12 -5zM282 -7q-113 0 -177 73t-64 191v8q0 116 66 190.5t168 74.5q100 0 160.5 -66.5t60.5 -182.5v-11h-437q0 -123 58 -192t165 -69
q72 0 123 34t69 98h18q-19 -70 -75 -109t-135 -39zM59 286h419q-1 110 -56 169t-147 59q-91 0 -151.5 -62.5t-64.5 -165.5z" />
    <glyph glyph-name="uni0452" unicode="&#x452;" horiz-adv-x="565" 
d="M472 -66v389q0 97 -44.5 144t-125.5 47q-80 0 -142 -53t-62 -144v-317h-18v633h-81v16h81v124h18v-124h201v-16h-201v-235q19 54 75.5 93t128.5 39q89 0 138.5 -51t49.5 -156v-389q0 -60 -21.5 -88t-73.5 -30v16q43 4 60 27t17 75z" />
    <glyph glyph-name="uni0453" unicode="&#x453;" horiz-adv-x="437" 
d="M413 507h-314v-507h-18v523h332v-16zM221 596l75 147h20l-78 -147h-17z" />
    <glyph glyph-name="uni0454" unicode="&#x454;" horiz-adv-x="539" 
d="M501 173q-13 -82 -73.5 -131t-144.5 -49q-102 0 -172 74t-70 190v8q0 117 70.5 191t173.5 74q80 0 139.5 -45.5t69.5 -118.5h-18q-9 68 -63.5 108t-127.5 40q-92 0 -156 -63.5t-70 -168.5h304v-16h-304q0 -118 64.5 -187.5t159.5 -69.5q78 0 133 43.5t68 120.5h17z" />
    <glyph glyph-name="uni0455" unicode="&#x455;" horiz-adv-x="448" 
d="M231 -9q-87 0 -138.5 44t-58.5 116h17q10 -65 55 -104.5t125 -39.5q72 0 114 36.5t42 90.5q0 60 -32 85.5t-122 41.5q-96 17 -137.5 45.5t-41.5 92.5q0 58 47.5 94t120.5 36q151 0 173 -131h-17q-22 115 -157 115q-67 0 -108.5 -31t-41.5 -83q0 -55 37 -80.5t130 -41.5
q92 -17 130 -47t38 -96q0 -61 -48 -102t-127 -41z" />
    <glyph glyph-name="uni0456" unicode="&#x456;" horiz-adv-x="182" 
d="M91 639q-7 0 -12 5t-5 12t5 12t12 5t12 -5t5 -12t-5 -12t-12 -5zM82 0v523h18v-523h-18z" />
    <glyph glyph-name="uni0457" unicode="&#x457;" horiz-adv-x="182" 
d="M147 639q-7 0 -12 5t-5 12t5 12t12 5t12 -5t5 -12t-5 -12t-12 -5zM35 639q-7 0 -12 5t-5 12t5 12t12 5t12 -5t5 -12t-5 -12t-12 -5zM82 0v523h18v-523h-18z" />
    <glyph glyph-name="uni0458" unicode="&#x458;" horiz-adv-x="182" 
d="M91 639q-7 0 -12 5t-5 12t5 12t12 5t12 -5t5 -12t-5 -12t-12 -5zM5 -184v16q43 4 60 27t17 75v589h18v-589q0 -60 -21.5 -88t-73.5 -30z" />
    <glyph glyph-name="uni0459" unicode="&#x459;" horiz-adv-x="811" 
d="M442 0v507h-261q-6 -139 -16 -237q-7 -72 -14.5 -116t-20.5 -83t-33.5 -56.5t-50.5 -17.5q-11 0 -21 2t-15 5l-5 2v18q21 -10 40 -10q47 0 68.5 64t34.5 197l17 248h295v-202h128q87 0 137 -41.5t50 -114.5v-3q0 -75 -44.5 -118.5t-121.5 -43.5h-167zM460 15h149
q70 0 109 39.5t39 107.5v3q0 66 -45 103.5t-124 37.5h-128v-291z" />
    <glyph glyph-name="uni045A" unicode="&#x45a;" horiz-adv-x="811" 
d="M460 15h149q70 0 109 39.5t39 107.5v3q0 66 -45 103.5t-124 37.5h-128v-291zM442 0v266h-343v-266h-18v523h18v-241h343v241h18v-202h128q87 0 137 -41.5t50 -114.5v-3q0 -75 -44.5 -118.5t-121.5 -43.5h-167z" />
    <glyph glyph-name="uni045B" unicode="&#x45b;" horiz-adv-x="565" 
d="M-1 633v16h81v124h18v-124h201v-16h-201v-235q19 54 75.5 93t128.5 39q89 0 138.5 -51t49.5 -156v-323h-18v323q0 97 -44.5 144t-125.5 47q-80 0 -142 -53t-62 -144v-317h-18v633h-81z" />
    <glyph glyph-name="uni045C" unicode="&#x45c;" horiz-adv-x="452" 
d="M221 596l75 147h20l-78 -147h-17zM80 0v523h18v-523h-18zM410 0l-307 274l293 249h24l-292 -249l307 -274h-25z" />
    <glyph glyph-name="uni045D" unicode="&#x45d;" horiz-adv-x="561" 
d="M99 0h-18v523h18v-495l363 495h18v-523h-18v497zM293 596l-78 147h20l75 -147h-17z" />
    <glyph glyph-name="uni045E" unicode="&#x45e;" horiz-adv-x="483" 
d="M246 612q-47 0 -81 31.5t-38 80.5h18q3 -42 31.5 -70t69.5 -28t70 28t33 70h18q-4 -48 -39 -80t-82 -32zM145 -182l90 217l-209 488h19l200 -467l193 467h19l-293 -705h-19z" />
    <glyph glyph-name="uni045F" unicode="&#x45f;" horiz-adv-x="541" 
d="M262 0h-181v523h18v-507h343v507h18v-523h-181l-2 -127h-13z" />
    <glyph glyph-name="uni0490" unicode="&#x490;" horiz-adv-x="524" 
d="M478 698h-364v-698h-19v715h364l3 134h16v-151z" />
    <glyph glyph-name="uni0491" unicode="&#x491;" horiz-adv-x="433" 
d="M403 507h-304v-507h-18v523h305l3 134h14v-150z" />
    <glyph glyph-name="Wgrave" unicode="&#x1e80;" horiz-adv-x="910" 
d="M224 0l-193 715h19l186 -692l213 692h13l198 -694l202 694h17l-208 -715h-24l-192 676l-208 -676h-23zM452 771l-76 117h21l73 -117h-18z" />
    <glyph glyph-name="wgrave" unicode="&#x1e81;" horiz-adv-x="755" 
d="M196 0l-166 523h19l160 -502l162 502h14l160 -502l162 502h18l-168 -523h-24l-155 491l-158 -491h-24zM375 596l-78 147h20l75 -147h-17z" />
    <glyph glyph-name="Wacute" unicode="&#x1e82;" horiz-adv-x="910" 
d="M224 0l-193 715h19l186 -692l213 692h13l198 -694l202 694h17l-208 -715h-24l-192 676l-208 -676h-23zM439 771l73 117h21l-76 -117h-18z" />
    <glyph glyph-name="wacute" unicode="&#x1e83;" horiz-adv-x="755" 
d="M196 0l-166 523h19l160 -502l162 502h14l160 -502l162 502h18l-168 -523h-24l-155 491l-158 -491h-24zM361 596l75 147h20l-78 -147h-17z" />
    <glyph glyph-name="Wdieresis" unicode="&#x1e84;" horiz-adv-x="910" 
d="M224 0l-193 715h19l186 -692l213 692h13l198 -694l202 694h17l-208 -715h-24l-192 676l-208 -676h-23zM532 787q-7 0 -12 5t-5 12t5 12t12 5t12 -5t5 -12t-5 -12t-12 -5zM378 787q-7 0 -12 5t-5 12t5 12t12 5t12 -5t5 -12t-5 -12t-12 -5z" />
    <glyph glyph-name="wdieresis" unicode="&#x1e85;" horiz-adv-x="755" 
d="M196 0l-166 523h19l160 -502l162 502h14l160 -502l162 502h18l-168 -523h-24l-155 491l-158 -491h-24zM450 639q-7 0 -12 5t-5 12t5 12t12 5t12 -5t5 -12t-5 -12t-12 -5zM308 639q-7 0 -12 5t-5 12t5 12t12 5t12 -5t5 -12t-5 -12t-12 -5z" />
    <glyph glyph-name="Ygrave" unicode="&#x1ef2;" horiz-adv-x="554" 
d="M275 0v325l-253 390h21l242 -372l227 372h20l-238 -390v-325h-19zM281 771l-76 117h21l73 -117h-18z" />
    <glyph glyph-name="ygrave" unicode="&#x1ef3;" horiz-adv-x="483" 
d="M145 -182l90 217l-209 488h19l200 -467l193 467h19l-293 -705h-19zM241 596l-78 147h20l75 -147h-17z" />
    <glyph glyph-name="uni2009" unicode="&#x2009;" horiz-adv-x="110" 
 />
    <glyph glyph-name="endash" unicode="&#x2013;" horiz-adv-x="476" 
d="M48 271v16h380v-16h-380z" />
    <glyph glyph-name="emdash" unicode="&#x2014;" horiz-adv-x="850" 
d="M48 271v16h754v-16h-754z" />
    <glyph glyph-name="quoteleft" unicode="&#x2018;" horiz-adv-x="166" 
d="M63 575l-18 7l62 136l15 -6z" />
    <glyph glyph-name="quoteright" unicode="&#x2019;" horiz-adv-x="166" 
d="M59 575l-15 6l59 137l18 -7z" />
    <glyph glyph-name="quotesinglbase" unicode="&#x201a;" horiz-adv-x="166" 
d="M59 -55l-15 6l59 137l18 -7z" />
    <glyph glyph-name="quotedblleft" unicode="&#x201c;" horiz-adv-x="262" 
d="M159 575l-18 7l62 136l15 -6zM63 575l-18 7l62 136l15 -6z" />
    <glyph glyph-name="quotedblright" unicode="&#x201d;" horiz-adv-x="262" 
d="M155 575l-15 6l59 137l18 -7zM59 575l-15 6l59 137l18 -7z" />
    <glyph glyph-name="quotedblbase" unicode="&#x201e;" horiz-adv-x="262" 
d="M155 -55l-15 6l59 137l18 -7zM59 -55l-15 6l59 137l18 -7z" />
    <glyph glyph-name="dagger" unicode="&#x2020;" horiz-adv-x="320" 
d="M151 230v326h-122v16h122v143h18v-143h122v-16h-122v-326h-18z" />
    <glyph glyph-name="daggerdbl" unicode="&#x2021;" horiz-adv-x="320" 
d="M151 389v167h-122v16h122v143h18v-143h122v-16h-122v-167h122v-16h-122v-143h-18v143h-122v16h122z" />
    <glyph glyph-name="bullet" unicode="&#x2022;" horiz-adv-x="298" 
d="M149 210q-40 0 -67 27.5t-27 66.5t27 66.5t67 27.5t67 -27.5t27 -66.5t-27 -66.5t-67 -27.5z" />
    <glyph glyph-name="ellipsis" unicode="&#x2026;" horiz-adv-x="568" 
d="M485 -5q-7 0 -12 5t-5 12t5 12t12 5t12 -5t5 -12t-5 -12t-12 -5zM284 -5q-7 0 -12 5t-5 12t5 12t12 5t12 -5t5 -12t-5 -12t-12 -5zM83 -5q-7 0 -12 5t-5 12t5 12t12 5t12 -5t5 -12t-5 -12t-12 -5z" />
    <glyph glyph-name="perthousand" unicode="&#x2030;" horiz-adv-x="1090" 
d="M195 415q-60 0 -103.5 41t-43.5 109t43.5 111t103.5 43q62 0 105 -42.5t43 -109.5q0 -69 -43.5 -110.5t-104.5 -41.5zM123 0l477 715h20l-477 -715h-20zM195 431q54 0 92 37t38 99q0 61 -37.5 98.5t-92.5 37.5q-53 0 -91 -38t-38 -100q0 -61 38 -97.5t91 -36.5zM894 -5
q-60 0 -103.5 41t-43.5 109t43.5 111t103.5 43q62 0 105 -42.5t43 -109.5q0 -69 -43.5 -110.5t-104.5 -41.5zM547 -5q-60 0 -103.5 41t-43.5 109t43.5 111t103.5 43q62 0 105 -42.5t43 -109.5q0 -69 -43.5 -110.5t-104.5 -41.5zM894 11q54 0 92 37t38 99q0 61 -37.5 98.5
t-92.5 37.5q-53 0 -91 -38t-38 -100q0 -61 38 -97.5t91 -36.5zM547 11q54 0 92 37t38 99q0 61 -37.5 98.5t-92.5 37.5q-53 0 -91 -38t-38 -100q0 -61 38 -97.5t91 -36.5z" />
    <glyph glyph-name="uni2032" unicode="&#x2032;" horiz-adv-x="130" 
d="M40 548l35 167h20l-38 -167h-17z" />
    <glyph glyph-name="uni2033" unicode="&#x2033;" horiz-adv-x="223" 
d="M133 548l35 167h20l-38 -167h-17zM40 548l35 167h20l-38 -167h-17z" />
    <glyph glyph-name="guilsinglleft" unicode="&#x2039;" horiz-adv-x="253" 
d="M189 83l-140 178l140 178h21l-140 -178l140 -178h-21z" />
    <glyph glyph-name="guilsinglright" unicode="&#x203a;" horiz-adv-x="253" 
d="M43 83l140 178l-140 178h21l140 -178l-140 -178h-21z" />
    <glyph glyph-name="fraction" unicode="&#x2044;" horiz-adv-x="113" 
d="M-217 0l527 715h20l-527 -715h-20z" />
    <glyph glyph-name="Euro" unicode="&#x20ac;" horiz-adv-x="636" 
d="M31 419v16h65q3 130 71 208t185 78q100 0 156.5 -50.5t68.5 -141.5h-18q-26 175 -207 175q-110 0 -172.5 -72.5t-64.5 -196.5h268l-3 -16h-265v-120h242l-3 -16h-239q2 -127 63 -199.5t174 -72.5q96 0 150.5 51t67.5 141h17q-13 -99 -73.5 -154t-161.5 -55
q-121 0 -187 77.5t-69 211.5h-65v16h65v120h-65z" />
    <glyph glyph-name="uni20B4" unicode="&#x20b4;" horiz-adv-x="554" 
d="M265 -6q-99 0 -154.5 41t-55.5 119q0 81 68 134h-93v16h115q16 10 140 79q62 36 70 41h-325v16h349q37 27 54.5 58t17.5 78q0 64 -42 96t-119 32q-163 0 -191 -142h-19q14 75 67 117t143 42q85 0 132.5 -37t47.5 -108q0 -82 -64 -136h118v-16h-139q-30 -22 -97 -58
q-108 -59 -113 -62h349v-16h-374q-39 -27 -57.5 -57.5t-18.5 -76.5q0 -69 51.5 -106t139.5 -37q99 0 152 49.5t65 129.5h19q-13 -89 -71.5 -142.5t-164.5 -53.5z" />
    <glyph glyph-name="uni20B8" unicode="&#x20b8;" horiz-adv-x="557" 
d="M526 699h-495v16h495v-16zM269 0v568h-238v17h495v-17h-238v-568h-19z" />
    <glyph glyph-name="uni20BD" unicode="&#x20bd;" horiz-adv-x="592" 
d="M153 340h157q214 0 214 180v4q0 174 -217 174h-154v-358zM425 188h-272v-188h-18v188h-100v16h100v120h-100v16h100v375h172q236 0 236 -191v-4q0 -197 -233 -197h-157v-119h272v-16z" />
    <glyph glyph-name="uni2116" unicode="&#x2116;" horiz-adv-x="1025" 
d="M819 356q-70 0 -118 50.5t-48 129.5v5q0 81 49 130t119 49q71 0 118.5 -48t47.5 -130v-6q0 -81 -48.5 -130.5t-119.5 -49.5zM820 372q63 0 106 45t43 119v6q0 75 -42.5 118.5t-105.5 43.5q-62 0 -106 -45t-44 -118v-5q0 -73 43.5 -118.5t105.5 -45.5zM95 0v715h31
l419 -692v692h19v-715h-26l-424 699v-699h-19zM674 240v17h292v-17h-292z" />
    <glyph glyph-name="trademark" unicode="&#x2122;" horiz-adv-x="627" 
d="M124 408v291h-98v16h214v-16h-98v-291h-18zM302 408v307h27l114 -273l114 273h27v-307h-18v285l-120 -285h-7l-120 285v-285h-17z" />
    <glyph glyph-name="Omega" unicode="&#x2126;" horiz-adv-x="790" 
d="M69 363v-8q0 -237 230 -341v-14h-247v17h205q-89 45 -148 129t-59 209v8q0 143 97.5 250.5t247.5 107.5t247.5 -106t97.5 -249v-8q0 -126 -59 -211.5t-148 -129.5h205v-17h-247v14q230 101 230 344v8q0 64 -23 124.5t-63.5 108t-103 76.5t-136.5 29q-98 0 -174 -50
t-114 -127t-38 -164z" />
    <glyph glyph-name="onethird" unicode="&#x2153;" horiz-adv-x="680" 
d="M123 370v320l-95 -68v19l103 74h10v-345h-18zM22 0l527 715h20l-527 -715h-20zM526 -3q-54 0 -88.5 28.5t-37.5 69.5h18q4 -34 32.5 -58t75.5 -24q44 0 69.5 21.5t25.5 60.5q0 34 -24 56t-64 22h-27v16h25q37 0 57.5 20.5t20.5 50.5q0 33 -23.5 53t-61.5 20
q-43 0 -66.5 -22t-27.5 -57h-17q3 40 32.5 67t78.5 27q46 0 74.5 -25t28.5 -63q0 -30 -16.5 -50.5t-44.5 -27.5q32 -6 52.5 -29t20.5 -58q0 -46 -31 -72t-82 -26z" />
    <glyph glyph-name="twothirds" unicode="&#x2154;" horiz-adv-x="723" 
d="M27 370v7l131 126q40 39 56.5 65t16.5 56q0 37 -23.5 58t-61.5 21q-42 0 -65.5 -24.5t-28.5 -67.5h-17q4 50 33.5 78.5t77.5 28.5q46 0 74.5 -26t28.5 -68q0 -35 -17 -62.5t-62 -69.5l-111 -106h194v-16h-226zM89 0l527 715h20l-527 -715h-20zM569 -3q-54 0 -88.5 28.5
t-37.5 69.5h18q4 -34 32.5 -58t75.5 -24q44 0 69.5 21.5t25.5 60.5q0 34 -24 56t-64 22h-27v16h25q37 0 57.5 20.5t20.5 50.5q0 33 -23.5 53t-61.5 20q-43 0 -66.5 -22t-27.5 -57h-17q3 40 32.5 67t78.5 27q46 0 74.5 -25t28.5 -63q0 -30 -16.5 -50.5t-44.5 -27.5
q32 -6 52.5 -29t20.5 -58q0 -46 -31 -72t-82 -26z" />
    <glyph glyph-name="oneeighth" unicode="&#x215b;" horiz-adv-x="675" 
d="M116 370v320l-95 -68v19l103 74h10v-345h-18zM28 0l527 715h20l-527 -715h-20zM515 -3q-54 0 -88 25t-34 72q0 36 24 59.5t62 30.5q-30 7 -50.5 28.5t-20.5 50.5q0 38 31.5 61.5t75.5 23.5t75 -23.5t31 -60.5q0 -30 -19.5 -51.5t-48.5 -28.5q83 -18 83 -89q0 -48 -33 -73
t-88 -25zM516 192q37 0 62 19t25 53q0 30 -25 49t-63 19q-39 0 -64 -19t-25 -50q0 -32 27.5 -51.5t62.5 -19.5zM515 13q48 0 75.5 20.5t27.5 61.5q0 38 -29 59.5t-73 21.5q-45 0 -75 -22t-30 -60q0 -40 29 -60.5t75 -20.5z" />
    <glyph glyph-name="threeeighths" unicode="&#x215c;" horiz-adv-x="715" 
d="M157 367q-54 0 -88.5 28.5t-37.5 69.5h18q4 -34 32.5 -58t75.5 -24q44 0 69.5 21.5t25.5 60.5q0 34 -24 56t-64 22h-27v16h25q37 0 57.5 20.5t20.5 50.5q0 33 -23.5 53t-61.5 20q-43 0 -66.5 -22t-27.5 -57h-17q3 40 32.5 67t78.5 27q46 0 74.5 -25t28.5 -63
q0 -30 -16.5 -50.5t-44.5 -27.5q32 -6 52.5 -29t20.5 -58q0 -46 -31 -72t-82 -26zM80 0l527 715h20l-527 -715h-20zM555 -3q-54 0 -88 25t-34 72q0 36 24 59.5t62 30.5q-30 7 -50.5 28.5t-20.5 50.5q0 38 31.5 61.5t75.5 23.5t75 -23.5t31 -60.5q0 -30 -19.5 -51.5
t-48.5 -28.5q83 -18 83 -89q0 -48 -33 -73t-88 -25zM556 192q37 0 62 19t25 53q0 30 -25 49t-63 19q-39 0 -64 -19t-25 -50q0 -32 27.5 -51.5t62.5 -19.5zM555 13q48 0 75.5 20.5t27.5 61.5q0 38 -29 59.5t-73 21.5q-45 0 -75 -22t-30 -60q0 -40 29 -60.5t75 -20.5z" />
    <glyph glyph-name="fiveeighths" unicode="&#x215d;" horiz-adv-x="699" 
d="M141 367q-49 0 -78.5 26t-33.5 63h18q5 -31 29.5 -52t64.5 -21q44 0 70 26.5t26 71.5q0 43 -26 70t-64 27q-60 0 -91 -40h-8v177h187v-16h-170v-135q30 30 84 30q45 0 75.5 -31t30.5 -82q0 -53 -31.5 -83.5t-82.5 -30.5zM63 0l527 715h20l-527 -715h-20zM539 -3
q-54 0 -88 25t-34 72q0 36 24 59.5t62 30.5q-30 7 -50.5 28.5t-20.5 50.5q0 38 31.5 61.5t75.5 23.5t75 -23.5t31 -60.5q0 -30 -19.5 -51.5t-48.5 -28.5q83 -18 83 -89q0 -48 -33 -73t-88 -25zM540 192q37 0 62 19t25 53q0 30 -25 49t-63 19q-39 0 -64 -19t-25 -50
q0 -32 27.5 -51.5t62.5 -19.5zM539 13q48 0 75.5 20.5t27.5 61.5q0 38 -29 59.5t-73 21.5q-45 0 -75 -22t-30 -60q0 -40 29 -60.5t75 -20.5z" />
    <glyph glyph-name="seveneighths" unicode="&#x215e;" horiz-adv-x="674" 
d="M89 370l143 329h-208v16h233v-4l-148 -341h-20zM24 0l527 715h20l-527 -715h-20zM514 -3q-54 0 -88 25t-34 72q0 36 24 59.5t62 30.5q-30 7 -50.5 28.5t-20.5 50.5q0 38 31.5 61.5t75.5 23.5t75 -23.5t31 -60.5q0 -30 -19.5 -51.5t-48.5 -28.5q83 -18 83 -89
q0 -48 -33 -73t-88 -25zM515 192q37 0 62 19t25 53q0 30 -25 49t-63 19q-39 0 -64 -19t-25 -50q0 -32 27.5 -51.5t62.5 -19.5zM514 13q48 0 75.5 20.5t27.5 61.5q0 38 -29 59.5t-73 21.5q-45 0 -75 -22t-30 -60q0 -40 29 -60.5t75 -20.5z" />
    <glyph glyph-name="Delta" unicode="&#x2206;" horiz-adv-x="630" 
d="M33 0v7l267 708h26l271 -708v-7h-564zM313 700l-259 -683h520z" />
    <glyph glyph-name="minus" unicode="&#x2212;" horiz-adv-x="500" 
d="M37 334v16h426v-16h-426z" />
    <glyph glyph-name="approxequal" unicode="&#x2248;" horiz-adv-x="491" 
d="M35 351q6 36 29.5 59.5t65.5 23.5q39 0 117 -32.5t115 -32.5q33 0 52.5 19.5t23.5 47.5h18q-6 -36 -29.5 -59.5t-65.5 -23.5q-39 0 -117 32.5t-115 32.5q-33 0 -52.5 -19.5t-23.5 -47.5h-18zM35 196q6 36 29.5 59.5t65.5 23.5q39 0 117 -32.5t115 -32.5q33 0 52.5 19.5
t23.5 47.5h18q-6 -36 -29.5 -59.5t-65.5 -23.5q-39 0 -117 32.5t-115 32.5q-33 0 -52.5 -19.5t-23.5 -47.5h-18z" />
    <glyph glyph-name="notequal" unicode="&#x2260;" horiz-adv-x="484" 
d="M40 385v16h233l65 133h18l-65 -133h153v-16h-160l-66 -136h226v-16h-234l-64 -133h-18l64 133h-152v16h160l66 136h-226z" />
    <glyph glyph-name="lessequal" unicode="&#x2264;" horiz-adv-x="487" 
d="M432 115l-384 204v6l384 204v-19l-356 -188l356 -188v-19zM48 0v16h384v-16h-384z" />
    <glyph glyph-name="greaterequal" unicode="&#x2265;" horiz-adv-x="487" 
d="M55 115v19l356 188l-356 188v19l384 -204v-6zM55 0v16h384v-16h-384z" />
    <glyph glyph-name="uni24C5" unicode="&#x24c5;" horiz-adv-x="844" 
d="M421 -9q-153 0 -259.5 105.5t-106.5 260.5q0 153 107 260t261 107q155 0 260.5 -106t105.5 -259q0 -156 -106.5 -262t-261.5 -106zM421 6q148 0 249.5 101.5t101.5 251.5q0 147 -100.5 248.5t-248.5 101.5q-147 0 -249 -102.5t-102 -249.5q0 -149 101.5 -250t247.5 -101z
M319 146v425h107q142 0 142 -117v-2q0 -118 -142 -118h-89v-188h-18zM337 350h89q124 0 124 102v2q0 101 -124 101h-89v-205z" />
    <glyph glyph-name="zero.tab" unicode="&#xe44f;" 
d="M301 -6q-114 0 -178 74t-64 207v164q0 132 64 207t175 75t177.5 -74.5t66.5 -204.5v-164q0 -135 -63 -209.5t-178 -74.5zM301 11q108 0 165 68.5t57 198.5v164q0 121 -60 191.5t-165 70.5q-104 0 -162 -70t-58 -195v-164q0 -128 59 -196t164 -68z" />
    <glyph glyph-name="one.tab" unicode="&#xe450;" 
d="M340 0v687l-246 -193v20l256 201h8v-715h-18z" />
    <glyph glyph-name="two.tab" unicode="&#xe451;" 
d="M62 0v5l291 294q66 66 94 120.5t28 114.5q0 83 -49.5 126.5t-130.5 43.5q-80 0 -132 -47t-62 -136h-18q8 95 66.5 147.5t145.5 52.5q88 0 143.5 -48.5t55.5 -138.5q0 -64 -30.5 -122t-95.5 -123l-272 -272h415v-17h-449z" />
    <glyph glyph-name="three.tab" unicode="&#xe452;" 
d="M298 -6q-101 0 -162 58t-65 139h18q7 -77 61 -128.5t148 -51.5q91 0 144.5 48t53.5 137q0 74 -45.5 122t-133.5 48h-49v17h46q79 0 118 45.5t39 107.5q0 74 -44.5 121t-122.5 47q-80 0 -130 -47t-58 -119h-18q6 79 63.5 131t142.5 52q86 0 136 -52t50 -133
q0 -58 -33 -102.5t-89 -57.5q66 -12 106.5 -59.5t40.5 -120.5q0 -95 -59 -148.5t-158 -53.5z" />
    <glyph glyph-name="four.tab" unicode="&#xe453;" 
d="M418 0v173h-371v5l358 537h32v-525h99v-17h-99v-173h-19zM76 190h342v514z" />
    <glyph glyph-name="five.tab" unicode="&#xe454;" 
d="M286 -6q-95 0 -154 53t-66 126h18q8 -66 61.5 -114t140.5 -48q100 0 156 58.5t56 159.5q0 93 -57 152t-140 59q-119 0 -188 -88h-8v363h376v-17h-358v-312q27 29 74 50t104 21q92 0 154 -62.5t62 -165.5q0 -109 -62.5 -172t-168.5 -63z" />
    <glyph glyph-name="six.tab" unicode="&#xe455;" 
d="M312 -6q-119 0 -179.5 74.5t-60.5 198.5v91q0 363 257 363q77 0 128.5 -37t62.5 -113h-18q-22 133 -173 133q-114 0 -176 -80t-62 -267v-64q22 73 85 112t134 39q113 0 173.5 -62t60.5 -161q0 -100 -64 -163.5t-168 -63.5zM312 11q97 0 155 58.5t58 151.5
q0 95 -54.5 150.5t-160.5 55.5q-86 0 -149.5 -54t-63.5 -145q0 -40 12 -76.5t36 -69t67 -52t100 -19.5z" />
    <glyph glyph-name="seven.tab" unicode="&#xe456;" 
d="M213 0l286 698h-415v17h440v-5l-291 -710h-20z" />
    <glyph glyph-name="eight.tab" unicode="&#xe457;" 
d="M301 -6q-101 0 -166.5 53t-65.5 148q0 76 51 126.5t133 63.5q-65 12 -108 54.5t-43 109.5q0 77 58 124.5t141 47.5q82 0 140 -47.5t58 -122.5q0 -69 -40 -111.5t-104 -54.5q80 -13 128.5 -62t48.5 -126q0 -97 -64 -150t-167 -53zM304 393q76 0 126 41t50 117
q0 67 -50.5 110t-128.5 43q-79 0 -129.5 -42.5t-50.5 -112.5q0 -73 55.5 -114.5t127.5 -41.5zM301 11q98 0 155 47.5t57 138.5q0 83 -60 131t-150 48t-152.5 -49t-62.5 -132q0 -89 59.5 -136.5t153.5 -47.5z" />
    <glyph glyph-name="nine.tab" unicode="&#xe458;" 
d="M288 287q88 0 153.5 52.5t65.5 139.5q0 90 -54 157.5t-163 67.5q-97 0 -155 -58.5t-58 -151.5q0 -94 53.5 -150.5t157.5 -56.5zM284 -6q-78 0 -135 39.5t-72 115.5h19q15 -66 65 -102t123 -36q56 0 95 13.5t70.5 47.5t46.5 98t15 160v83q-23 -70 -86.5 -106.5
t-136.5 -36.5q-111 0 -170.5 61.5t-59.5 162.5q0 102 64 164.5t168 62.5q121 0 180.5 -75.5t59.5 -191.5v-125q0 -99 -16.5 -165.5t-50.5 -103t-76.5 -51.5t-102.5 -15z" />
    <glyph glyph-name="cent.tab" unicode="&#xe459;" 
d="M90 257q0 -113 61.5 -179t154.5 -69v505q-94 -4 -155 -69.5t-61 -179.5v-8zM306 -135v128q-101 3 -167.5 74.5t-66.5 189.5v8q0 119 66.5 190t167.5 75v99h17v-99q78 -2 135 -47t67 -117h-18q-9 66 -61 106t-123 42v-505q74 2 126.5 45.5t65.5 118.5h17
q-13 -80 -70.5 -128.5t-138.5 -51.5v-128h-17z" />
    <glyph glyph-name="dollar.tab" unicode="&#xe45a;" 
d="M94 543q0 -67 44.5 -104t150.5 -54v319q-91 -2 -143 -43.5t-52 -117.5zM517 186q0 86 -47.5 124t-162.5 55v-354q99 0 154.5 49.5t55.5 125.5zM289 -135v129q-107 4 -167 57.5t-72 138.5h19q11 -77 65.5 -126t154.5 -53v356q-114 18 -164 60.5t-50 115.5q0 81 58.5 128.5
t155.5 49.5v92h18v-92q86 -3 138 -45t66 -114h-19q-13 65 -59.5 102.5t-125.5 39.5v-322q125 -18 177 -59.5t52 -136.5q0 -82 -61 -136.5t-168 -55.5v-129h-18z" />
    <glyph glyph-name="Euro.tab" unicode="&#xe45b;" 
d="M40 419v16h61q0 134 60 210t172 76q182 0 207 -186h-18q-25 169 -189 169q-104 0 -158.5 -70.5t-54.5 -198.5h238l-3 -16h-235v-120h212l-3 -16h-209q0 -131 53 -201.5t160 -70.5q173 0 200 186h17q-13 -99 -68 -151t-149 -52q-114 0 -173 76t-59 213h-61v16h61v120h-61z
" />
    <glyph glyph-name="a.alt" unicode="&#xe4c0;" horiz-adv-x="586" 
d="M272 9q89 0 152.5 68.5t63.5 179.5v8q0 114 -60 181.5t-148 67.5q-91 0 -156 -67.5t-65 -181.5v-8q0 -114 61 -181t152 -67zM272 -7q-97 0 -164 71t-67 193v8q0 118 70 191.5t169 73.5q80 0 132 -45.5t76 -113.5v152h18v-523h-18v158q-21 -66 -77.5 -115.5t-138.5 -49.5z
" />
    <glyph glyph-name="t.alt" unicode="&#xe4d3;" horiz-adv-x="296" 
d="M116 0v507h-94v16h94v119h18v-119h140v-16h-140v-507h-18z" />
    <glyph glyph-name="f_i" unicode="&#xfb01;" horiz-adv-x="490" 
d="M109 0v507h-85v16h85v104q0 79 37.5 114t93.5 35q28 0 53 -7v-17q-26 8 -53 8q-113 0 -113 -133v-104h166v-16h-166v-507h-18zM399 639q-7 0 -12 5t-5 12t5 12t12 5t12 -5t5 -12t-5 -12t-12 -5zM390 0v523h18v-523h-18z" />
    <glyph glyph-name="f_l" unicode="&#xfb02;" horiz-adv-x="490" 
d="M109 0v507h-85v16h85v104q0 79 37.5 114t93.5 35q28 0 53 -7v-17q-26 8 -53 8q-113 0 -113 -133v-104h166v-16h-166v-507h-18zM390 0v773h18v-773h-18z" />
    <glyph glyph-name="idotaccent" horiz-adv-x="182" 
d="M91 639q-7 0 -12 5t-5 12t5 12t12 5t12 -5t5 -12t-5 -12t-12 -5zM82 0v523h18v-523h-18z" />
    <glyph glyph-name="space_uni0326" horiz-adv-x="400" 
d="M168 -186l-15 6l58 134l19 -4z" />
    <glyph glyph-name="dollar.old" horiz-adv-x="564" 
d="M83 527q0 -65 43 -101t146 -52v308q-88 -2 -138.5 -42t-50.5 -113zM492 180q0 84 -45.5 121t-156.5 53v-343q95 0 148.5 47.5t53.5 121.5zM272 -135v129q-104 4 -162.5 56t-69.5 134h19q11 -74 63.5 -121.5t149.5 -51.5v345q-111 17 -159.5 58.5t-48.5 112.5q0 78 57 124
t151 48v90h18v-90q83 -2 134 -43t64 -111h-19q-28 133 -179 137v-311q120 -18 170.5 -58.5t50.5 -132.5q0 -79 -59 -132t-162 -54v-129h-18z" />
    <glyph glyph-name="Euro.old" horiz-adv-x="636" 
d="M30 406v16h63q3 126 68.5 201.5t179.5 75.5q97 0 152 -49t67 -137h-18q-24 169 -201 169q-106 0 -166.5 -70.5t-62.5 -189.5h260l-3 -16h-257v-116h234l-3 -16h-231q2 -123 61 -193t168 -70q93 0 146 49t66 137h17q-12 -96 -71 -149.5t-158 -53.5q-117 0 -181 75t-67 205
h-63v16h63v116h-63z" />
    <glyph glyph-name="sterling.old" horiz-adv-x="581" 
d="M49 332v16h75q-29 93 -29 157q0 88 57 141t148 53t141 -45.5t59 -124.5h-18q-21 153 -182 153q-84 0 -135 -48t-51 -129q0 -59 30 -157h240v-16h-235q24 -78 24 -139q0 -53 -25 -101h6q40 0 122.5 -40.5t127.5 -40.5q51 0 80 32t33 90h19q-4 -64 -40 -101.5t-92 -37.5
q-50 0 -132 40.5t-118 40.5q-37 0 -60.5 -20.5t-28.5 -54.5h-20q5 32 25.5 56.5t55.5 32.5q28 46 28 104q0 56 -25 139h-80z" />
    <glyph glyph-name="yen.old" horiz-adv-x="508" 
d="M53 323v16h185l-215 355h21l210 -348l196 348h19l-200 -355h181v-16h-187v-116h187v-16h-187v-191h-19v191h-191v16h191v116h-191z" />
    <glyph glyph-name="zero.old" horiz-adv-x="605" 
d="M302 -7q-114 0 -185.5 79.5t-71.5 213.5v46q0 134 72 213.5t185 79.5q114 0 186 -78.5t72 -212.5v-46q0 -136 -71.5 -215.5t-186.5 -79.5zM303 9q107 0 173 74t66 205v46q0 126 -67.5 200.5t-172.5 74.5t-172 -74.5t-67 -202.5v-46q0 -129 67 -203t173 -74z" />
    <glyph glyph-name="one.old" horiz-adv-x="331" 
d="M188 0v592l-167 -112v18l177 120h8v-618h-18z" />
    <glyph glyph-name="two.old" horiz-adv-x="510" 
d="M26 0v5l253 222q80 70 115.5 119t35.5 112q0 72 -45.5 111.5t-123.5 39.5t-129.5 -46.5t-61.5 -127.5h-18q8 88 66.5 139t142.5 51q85 0 136 -44t51 -123q0 -68 -37.5 -120t-117.5 -121l-230 -201h402v-16h-439z" />
    <glyph glyph-name="three.old" horiz-adv-x="533" 
d="M269 -102q-106 0 -169.5 58t-67.5 139h17q7 -77 64 -129t156 -52q92 0 147 47t55 135q0 74 -51.5 125t-139.5 51h-54v16h51q80 0 122.5 44.5t42.5 107.5q0 75 -46.5 122t-126.5 47q-81 0 -132 -47.5t-59 -119.5h-17q6 79 64.5 131t143.5 52q86 0 138.5 -52t52.5 -133
q0 -61 -35.5 -104t-93.5 -55q66 -10 112 -61t46 -124q0 -93 -60 -145.5t-160 -52.5z" />
    <glyph glyph-name="four.old" horiz-adv-x="569" 
d="M408 -97v173h-381v5l368 537h32v-525h99v-17h-99v-173h-19zM56 93h352v514z" />
    <glyph glyph-name="five.old" horiz-adv-x="527" 
d="M249 -102q-94 0 -153.5 51t-66.5 125h17q8 -66 62 -113t141 -47q99 0 156 59t57 160q0 94 -55.5 150.5t-138.5 56.5q-119 0 -188 -88h-8v366h372v-16h-355v-318q26 30 73.5 51t105.5 21q91 0 151.5 -60.5t60.5 -162.5q0 -109 -62.5 -172t-168.5 -63z" />
    <glyph glyph-name="six.old" horiz-adv-x="547" 
d="M281 -7q-117 0 -174.5 73.5t-57.5 193.5v109q0 184 68.5 268t184.5 84q75 0 122 -38t59 -107h-18q-11 60 -53 94.5t-110 34.5q-235 0 -235 -337v-84q20 70 81.5 108t130.5 38q109 0 168 -60.5t59 -156.5q0 -97 -62.5 -158.5t-162.5 -61.5zM281 9q94 0 150.5 57t56.5 147
q0 93 -53 147t-156 54q-84 0 -145.5 -53t-61.5 -140q0 -83 52 -147.5t157 -64.5z" />
    <glyph glyph-name="seven.old" horiz-adv-x="470" 
d="M144 -97l287 699h-407v16h430v-5l-291 -710h-19z" />
    <glyph glyph-name="eight.old" horiz-adv-x="546" 
d="M273 -6q-99 0 -164.5 52t-65.5 147q0 75 49 124.5t128 64.5q-63 15 -103.5 57t-40.5 108q0 77 58.5 125.5t138.5 48.5t138.5 -48.5t58.5 -123.5q0 -69 -38 -111t-100 -56q77 -15 124 -63t47 -124q0 -96 -64.5 -148.5t-165.5 -52.5zM276 389q75 0 125.5 42t50.5 118
q0 67 -51.5 111.5t-127.5 44.5q-77 0 -128 -44t-51 -114q0 -73 55.5 -115.5t126.5 -42.5zM273 10q96 0 154 47.5t58 137.5q0 83 -61 130.5t-149 47.5q-89 0 -151.5 -48.5t-62.5 -131.5q0 -89 60 -136t152 -47z" />
    <glyph glyph-name="nine.old" horiz-adv-x="547" 
d="M268 204q84 0 145.5 53t61.5 143q0 84 -51.5 146.5t-157.5 62.5q-94 0 -150.5 -57t-56.5 -147q0 -93 53 -147t156 -54zM259 -103q-78 0 -135 41t-68 116h18q10 -66 60.5 -103.5t124.5 -37.5q105 0 163 75.5t58 251.5v95q-20 -72 -81.5 -109.5t-130.5 -37.5
q-109 0 -168 60.5t-59 156.5q0 97 62.5 158.5t162.5 61.5q118 0 175 -72.5t57 -198.5v-115q0 -342 -239 -342z" />
    <glyph glyph-name="space.tab" horiz-adv-x="300" 
 />
    <glyph glyph-name="sterling.tab" 
d="M55 342v16h78q-31 103 -31 163q0 91 57 145.5t149 54.5q91 0 141.5 -47t59.5 -129h-18q-22 159 -183 159q-83 0 -135 -51t-52 -132q0 -63 32 -163h247v-16h-242q24 -79 24 -143q0 -57 -26 -104h2q40 0 126 -42t131 -42q51 0 80 33.5t33 92.5h19q-4 -67 -40 -105t-92 -38
q-49 0 -134.5 42t-122.5 42t-60 -21.5t-28 -56.5h-20q13 80 85 93q28 46 28 106q0 58 -25 143h-83z" />
    <glyph glyph-name="yen.tab" 
d="M101 333v16h191l-222 366h21l217 -358l202 358h20l-207 -366h187v-16h-193v-120h193v-16h-193v-197h-19v197h-197v16h197v120h-197z" />
    <glyph glyph-name="florin.tab" 
d="M111 375v16h126l24 158q27 175 175 175q38 0 72 -12v-17q-32 13 -72 13q-64 0 -104 -37t-53 -122l-24 -158h200v-16h-203l-85 -557h-18l85 557h-123z" />
    <glyph glyph-name="percent.tab" horiz-adv-x="800" 
d="M203 415q-60 0 -103.5 41t-43.5 109t43.5 111t103.5 43q62 0 105 -42.5t43 -109.5q0 -69 -43.5 -110.5t-104.5 -41.5zM152 0l477 715h20l-477 -715h-20zM203 431q54 0 92 37t38 99q0 61 -37.5 98.5t-92.5 37.5q-53 0 -91 -38t-38 -100q0 -61 38 -97.5t91 -36.5zM596 -5
q-60 0 -103.5 41t-43.5 109t43.5 111t103.5 43q62 0 105 -42.5t43 -109.5q0 -69 -43.5 -110.5t-104.5 -41.5zM596 11q54 0 92 37t38 99q0 61 -37.5 98.5t-92.5 37.5q-53 0 -91 -38t-38 -100q0 -61 38 -97.5t91 -36.5z" />
    <glyph glyph-name="perthousand.tab" horiz-adv-x="1000" 
d="M190 434q-59 0 -101.5 40t-42.5 102t42.5 104t101.5 42q60 0 102 -41.5t42 -103.5t-42.5 -102.5t-101.5 -40.5zM78 0l477 715h20l-477 -715h-20zM190 450q53 0 89.5 36t36.5 91q0 56 -36.5 92.5t-89.5 36.5t-89.5 -37t-36.5 -93q0 -54 37 -90t89 -36zM810 -5
q-58 0 -100.5 40.5t-42.5 102.5t42 103.5t101 41.5q60 0 102 -41t42 -103q0 -63 -42 -103.5t-102 -40.5zM468 -5q-58 0 -100.5 40.5t-42.5 102.5t42 103.5t101 41.5q60 0 102 -41t42 -103q0 -63 -42 -103.5t-102 -40.5zM810 11q53 0 89.5 36t36.5 92t-36.5 92t-89.5 36
q-52 0 -88.5 -36.5t-36.5 -92.5q0 -55 36.5 -91t88.5 -36zM468 11q53 0 89.5 36t36.5 92t-36.5 92t-89.5 36q-52 0 -88.5 -36.5t-36.5 -92.5q0 -55 36.5 -91t88.5 -36z" />
    <glyph glyph-name="plus.tab" 
d="M291 115v219h-204v16h204v219h18v-219h204v-16h-204v-219h-18z" />
    <glyph glyph-name="minus.tab" 
d="M87 334v16h426v-16h-426z" />
    <glyph glyph-name="plusminus.tab" 
d="M291 115v219h-204v16h204v219h18v-219h204v-16h-204v-219h-18zM87 0v16h426v-16h-426z" />
    <glyph glyph-name="multiply.tab" 
d="M122 156l-12 12l169 168l-169 169l12 12l168 -168l169 168l12 -12l-169 -169l169 -168l-12 -12l-169 168z" />
    <glyph glyph-name="divide.tab" 
d="M300 489q-7 0 -12 5t-5 12t5 12t12 5t12 -5t5 -12t-5 -12t-12 -5zM87 334v16h426v-16h-426zM300 161q-7 0 -12 5t-5 12t5 12t12 5t12 -5t5 -12t-5 -12t-12 -5z" />
    <glyph glyph-name="equal.tab" 
d="M98 385v16h404v-16h-404zM98 233v16h404v-16h-404z" />
    <glyph glyph-name="notequal.tab" 
d="M98 385v16h233l65 133h18l-65 -133h153v-16h-160l-66 -136h226v-16h-234l-64 -133h-18l64 133h-152v16h160l66 136h-226z" />
    <glyph glyph-name="approxequal.tab" 
d="M90 351q6 36 29.5 59.5t65.5 23.5q39 0 117 -32.5t115 -32.5q33 0 52.5 19.5t23.5 47.5h18q-6 -36 -29.5 -59.5t-65.5 -23.5q-39 0 -117 32.5t-115 32.5q-33 0 -52.5 -19.5t-23.5 -47.5h-18zM90 196q6 36 29.5 59.5t65.5 23.5q39 0 117 -32.5t115 -32.5q33 0 52.5 19.5
t23.5 47.5h18q-6 -36 -29.5 -59.5t-65.5 -23.5q-39 0 -117 32.5t-115 32.5q-33 0 -52.5 -19.5t-23.5 -47.5h-18z" />
    <glyph glyph-name="less.tab" 
d="M489 115l-384 204v6l384 204v-19l-356 -188l356 -188v-19z" />
    <glyph glyph-name="greater.tab" 
d="M112 115v19l356 188l-356 188v19l384 -204v-6z" />
    <glyph glyph-name="lessequal.tab" 
d="M489 115l-384 204v6l384 204v-19l-356 -188l356 -188v-19zM105 0v16h384v-16h-384z" />
    <glyph glyph-name="greaterequal.tab" 
d="M112 115v19l356 188l-356 188v19l384 -204v-6zM112 0v16h384v-16h-384z" />
    <glyph glyph-name="period.tab" horiz-adv-x="300" 
d="M150 -5q-7 0 -12 5t-5 12t5 12t12 5t12 -5t5 -12t-5 -12t-12 -5z" />
    <glyph glyph-name="comma.tab" horiz-adv-x="300" 
d="M111 -109l-15 6l56 140l18 -7z" />
    <glyph glyph-name="colon.tab" horiz-adv-x="300" 
d="M150 352q-7 0 -12 5t-5 12t5 12t12 5t12 -5t5 -12t-5 -12t-12 -5zM150 -5q-7 0 -12 5t-5 12t5 12t12 5t12 -5t5 -12t-5 -12t-12 -5z" />
    <glyph glyph-name="semicolon.tab" horiz-adv-x="300" 
d="M150 352q-7 0 -12 5t-5 12t5 12t12 5t12 -5t5 -12t-5 -12t-12 -5zM105 -109l-15 6l56 140l18 -7z" />
    <glyph glyph-name="parenleft.tab" horiz-adv-x="300" 
d="M241 -148q-164 195 -164 460q0 266 164 461h19q-165 -205 -165 -461q0 -255 165 -460h-19z" />
    <glyph glyph-name="parenright.tab" horiz-adv-x="300" 
d="M41 -148q165 205 165 460q0 256 -165 461h19q164 -195 164 -461q0 -265 -164 -460h-19z" />
    <glyph glyph-name="bracketleft.tab" horiz-adv-x="300" 
d="M83 -148v924h174v-16h-156v-892h156v-16h-174z" />
    <glyph glyph-name="bracketright.tab" horiz-adv-x="300" 
d="M43 -148v16h156v892h-156v16h174v-924h-174z" />
    <glyph glyph-name="braceleft.tab" horiz-adv-x="300" 
d="M257 -144q-91 0 -130 43t-17 144l28 126q14 63 -15 100.5t-94 38.5v16q65 1 94 38.5t15 100.5l-28 126q-22 101 17 144t130 43v-16q-82 -1 -116 -38t-14 -130l28 -126q27 -120 -80 -150q107 -30 80 -150l-28 -126q-20 -93 15 -130t115 -38v-16z" />
    <glyph glyph-name="braceright.tab" horiz-adv-x="300" 
d="M43 -144v16q80 1 115 38t15 130l-28 126q-27 120 80 150q-107 30 -80 150l28 126q20 93 -14 130t-116 38v16q91 0 130 -43t17 -144l-28 -126q-14 -63 15 -100.5t94 -38.5v-16q-65 -1 -94 -38.5t-15 -100.5l28 -126q22 -101 -17 -144t-130 -43z" />
    <glyph glyph-name="dollar.oldtab" 
d="M104 527q0 -65 43 -101t146 -52v308q-88 -2 -138.5 -42t-50.5 -113zM513 180q0 84 -45.5 121t-156.5 53v-343q95 0 148.5 47.5t53.5 121.5zM293 -135v129q-104 4 -162.5 56t-69.5 134h19q11 -74 63.5 -121.5t149.5 -51.5v345q-111 17 -159.5 58.5t-48.5 112.5
q0 78 57 124t151 48v90h18v-90q83 -2 134 -43t64 -111h-19q-28 133 -179 137v-311q120 -18 170.5 -58.5t50.5 -132.5q0 -79 -59 -132t-162 -54v-129h-18z" />
    <glyph glyph-name="Euro.oldtab" 
d="M32 406v16h63q0 129 61 203t171 74q178 0 204 -182h-18q-24 165 -186 165q-102 0 -158 -68.5t-56 -191.5h241l-3 -16h-238v-116h215l-3 -16h-212q0 -126 54.5 -194.5t159.5 -68.5q169 0 197 182h17q-12 -95 -67 -147t-147 -52q-111 0 -171.5 74t-60.5 206h-63v16h63v116
h-63z" />
    <glyph glyph-name="sterling.oldtab" 
d="M59 332v16h75q-29 93 -29 157q0 88 57 141t148 53t141 -45.5t59 -124.5h-18q-21 153 -182 153q-84 0 -135 -48t-51 -129q0 -59 30 -157h240v-16h-235q24 -78 24 -139q0 -53 -25 -101h6q40 0 122.5 -40.5t127.5 -40.5q51 0 80 32t33 90h19q-4 -64 -40 -101.5t-92 -37.5
q-50 0 -132 40.5t-118 40.5q-37 0 -60.5 -20.5t-28.5 -54.5h-20q5 32 25.5 56.5t55.5 32.5q28 46 28 104q0 56 -25 139h-80z" />
    <glyph glyph-name="yen.oldtab" 
d="M99 323v16h185l-215 355h21l210 -348l196 348h19l-200 -355h181v-16h-187v-116h187v-16h-187v-191h-19v191h-191v16h191v116h-191z" />
    <glyph glyph-name="zero.oldtab" 
d="M301 -7q-114 0 -177.5 74t-63.5 207v69q0 132 63.5 207t174.5 75t177 -74.5t66 -204.5v-69q0 -135 -62.5 -209.5t-177.5 -74.5zM301 9q108 0 165 69t57 199v69q0 121 -60.5 192t-164.5 71t-162 -70.5t-58 -195.5v-69q0 -128 59 -196.5t164 -68.5z" />
    <glyph glyph-name="one.oldtab" 
d="M336 0v591l-236 -183v19l245 191h8v-618h-17z" />
    <glyph glyph-name="two.oldtab" 
d="M71 0v5l253 222q80 70 115.5 119t35.5 112q0 72 -45.5 111.5t-123.5 39.5t-129.5 -46.5t-61.5 -127.5h-18q8 88 66.5 139t142.5 51q85 0 136 -44t51 -123q0 -68 -37.5 -120t-117.5 -121l-230 -201h402v-16h-439z" />
    <glyph glyph-name="three.oldtab" 
d="M301 -102q-106 0 -169.5 58t-67.5 139h17q7 -77 64 -129t156 -52q92 0 147 47t55 135q0 74 -51.5 125t-139.5 51h-54v16h51q80 0 122.5 44.5t42.5 107.5q0 75 -46.5 122t-126.5 47q-81 0 -132 -47.5t-59 -119.5h-17q6 79 64.5 131t143.5 52q86 0 138.5 -52t52.5 -133
q0 -61 -35.5 -104t-93.5 -55q66 -10 112 -61t46 -124q0 -93 -60 -145.5t-160 -52.5z" />
    <glyph glyph-name="four.oldtab" 
d="M424 -97v173h-381v5l368 537h32v-525h99v-17h-99v-173h-19zM72 93h352v514z" />
    <glyph glyph-name="five.oldtab" 
d="M286 -102q-94 0 -153.5 52t-66.5 124h17q8 -66 62 -113t141 -47q99 0 156 57.5t57 158.5q0 94 -56 152t-138 58q-119 0 -188 -88h-8v366h372v-16h-355v-318q26 30 73.5 51t105.5 21q91 0 151.5 -61.5t60.5 -164.5q0 -108 -63.5 -170t-167.5 -62z" />
    <glyph glyph-name="six.oldtab" 
d="M308 -7q-117 0 -174.5 73.5t-57.5 193.5v109q0 184 68.5 268t184.5 84q75 0 122 -38t59 -107h-18q-11 60 -53 94.5t-110 34.5q-235 0 -235 -337v-84q20 70 81.5 108t130.5 38q109 0 168 -60.5t59 -156.5q0 -97 -62.5 -158.5t-162.5 -61.5zM308 9q94 0 150.5 57t56.5 147
q0 93 -53 147t-156 54q-84 0 -145.5 -53t-61.5 -140q0 -83 52 -147.5t157 -64.5z" />
    <glyph glyph-name="seven.oldtab" 
d="M209 -97l287 699h-407v16h430v-5l-291 -710h-19z" />
    <glyph glyph-name="eight.oldtab" 
d="M300 -6q-99 0 -164.5 52t-65.5 147q0 75 49 124.5t128 64.5q-63 15 -103.5 57t-40.5 108q0 77 58.5 125.5t138.5 48.5t138.5 -48.5t58.5 -123.5q0 -69 -38 -111t-100 -56q77 -15 124 -63t47 -124q0 -96 -64.5 -148.5t-165.5 -52.5zM303 389q75 0 125.5 42t50.5 118
q0 67 -51.5 111.5t-127.5 44.5q-77 0 -128 -44t-51 -114q0 -73 55.5 -115.5t126.5 -42.5zM300 10q96 0 154 47.5t58 137.5q0 83 -61 130.5t-149 47.5q-89 0 -151.5 -48.5t-62.5 -131.5q0 -89 60 -136t152 -47z" />
    <glyph glyph-name="nine.oldtab" 
d="M295 204q84 0 145.5 53t61.5 143q0 84 -51.5 146.5t-157.5 62.5q-94 0 -150.5 -57t-56.5 -147q0 -93 53 -147t156 -54zM286 -103q-78 0 -135 41t-68 116h18q10 -66 60.5 -103.5t124.5 -37.5q105 0 163 75.5t58 251.5v95q-20 -72 -81.5 -109.5t-130.5 -37.5
q-109 0 -168 60.5t-59 156.5q0 97 62.5 158.5t162.5 61.5q118 0 175 -72.5t57 -198.5v-115q0 -342 -239 -342z" />
    <glyph glyph-name="zero.num" horiz-adv-x="349" 
d="M175 367q-63 0 -100 40.5t-37 117.5v34q0 76 36.5 117.5t98.5 41.5q63 0 100.5 -41t37.5 -116v-35q0 -77 -36 -118t-100 -41zM175 383q56 0 87 36t31 108v34q0 68 -33 104.5t-87 36.5q-53 0 -85 -36.5t-32 -105.5v-35q0 -71 32.5 -106.5t86.5 -35.5z" />
    <glyph glyph-name="one.num" horiz-adv-x="205" 
d="M113 370v320l-95 -68v19l103 74h10v-345h-18z" />
    <glyph glyph-name="two.num" horiz-adv-x="284" 
d="M24 370v7l131 126q40 39 56.5 65t16.5 56q0 37 -23.5 58t-61.5 21q-42 0 -65.5 -24.5t-28.5 -67.5h-17q4 50 33.5 78.5t77.5 28.5q46 0 74.5 -26t28.5 -68q0 -35 -17 -62.5t-62 -69.5l-111 -106h194v-16h-226z" />
    <glyph glyph-name="three.num" horiz-adv-x="305" 
d="M154 367q-54 0 -88.5 28.5t-37.5 69.5h18q4 -34 32.5 -58t75.5 -24q44 0 69.5 21.5t25.5 60.5q0 34 -24 56t-64 22h-27v16h25q37 0 57.5 20.5t20.5 50.5q0 33 -23.5 53t-61.5 20q-43 0 -66.5 -22t-27.5 -57h-17q3 40 32.5 67t78.5 27q46 0 74.5 -25t28.5 -63
q0 -30 -16.5 -50.5t-44.5 -27.5q32 -6 52.5 -29t20.5 -58q0 -46 -31 -72t-82 -26z" />
    <glyph glyph-name="four.num" horiz-adv-x="301" 
d="M205 370v80h-186v6l177 259h27v-249h48v-16h-48v-80h-18zM45 466h160v236z" />
    <glyph glyph-name="five.num" horiz-adv-x="287" 
d="M138 367q-49 0 -78.5 26t-33.5 63h18q5 -31 29.5 -52t64.5 -21q44 0 70 26.5t26 71.5q0 43 -26 70t-64 27q-60 0 -91 -40h-8v177h187v-16h-170v-135q30 30 84 30q45 0 75.5 -31t30.5 -82q0 -53 -31.5 -83.5t-82.5 -30.5z" />
    <glyph glyph-name="six.num" horiz-adv-x="314" 
d="M160 367q-61 0 -90.5 39t-29.5 104v29q0 91 35 135t94 44q86 0 98 -76h-16q-11 60 -83 60q-50 0 -80 -38.5t-30 -119.5v-19q11 29 41 45.5t63 16.5q54 0 85 -30.5t31 -78.5q0 -50 -33 -80.5t-85 -30.5zM160 383q44 0 72 26.5t28 68.5t-26.5 68t-71.5 26q-41 0 -71 -25
t-30 -67q0 -40 25.5 -68.5t73.5 -28.5z" />
    <glyph glyph-name="seven.num" horiz-adv-x="271" 
d="M81 370l143 329h-208v16h233v-4l-148 -341h-20z" />
    <glyph glyph-name="eight.num" horiz-adv-x="315" 
d="M158 367q-54 0 -88 25t-34 72q0 36 24 59.5t62 30.5q-30 7 -50.5 28.5t-20.5 50.5q0 38 31.5 61.5t75.5 23.5t75 -23.5t31 -60.5q0 -30 -19.5 -51.5t-48.5 -28.5q83 -18 83 -89q0 -48 -33 -73t-88 -25zM159 562q37 0 62 19t25 53q0 30 -25 49t-63 19q-39 0 -64 -19
t-25 -50q0 -32 27.5 -51.5t62.5 -19.5zM158 383q48 0 75.5 20.5t27.5 61.5q0 38 -29 59.5t-73 21.5q-45 0 -75 -22t-30 -60q0 -40 29 -60.5t75 -20.5z" />
    <glyph glyph-name="nine.num" horiz-adv-x="313" 
d="M152 513q41 0 71 25t30 67q0 40 -25.5 68.5t-73.5 28.5q-44 0 -72 -26.5t-28 -69.5q0 -42 26.5 -67.5t71.5 -25.5zM147 367q-40 0 -69.5 21.5t-35.5 59.5h17q15 -65 89 -65q108 0 108 144v32q-13 -29 -42 -45t-62 -16q-54 0 -85 30t-31 78q0 50 33 81t85 31
q61 0 90.5 -39t29.5 -104v-43q0 -90 -33 -127.5t-94 -37.5z" />
    <glyph glyph-name="zero.den" horiz-adv-x="349" 
d="M175 -3q-63 0 -100 40.5t-37 117.5v34q0 76 36.5 117.5t98.5 41.5q63 0 100.5 -41t37.5 -116v-35q0 -77 -36 -118t-100 -41zM175 13q56 0 87 36t31 108v34q0 68 -33 104.5t-87 36.5q-53 0 -85 -36.5t-32 -105.5v-35q0 -71 32.5 -106.5t86.5 -35.5z" />
    <glyph glyph-name="one.den" horiz-adv-x="205" 
d="M113 0v320l-95 -68v19l103 74h10v-345h-18z" />
    <glyph glyph-name="two.den" horiz-adv-x="284" 
d="M24 0v7l131 126q40 39 56.5 65t16.5 56q0 37 -23.5 58t-61.5 21q-42 0 -65.5 -24.5t-28.5 -67.5h-17q4 50 33.5 78.5t77.5 28.5q46 0 74.5 -26t28.5 -68q0 -35 -17 -62.5t-62 -69.5l-111 -106h194v-16h-226z" />
    <glyph glyph-name="three.den" horiz-adv-x="305" 
d="M154 -3q-54 0 -88.5 28.5t-37.5 69.5h18q4 -34 32.5 -58t75.5 -24q44 0 69.5 21.5t25.5 60.5q0 34 -24 56t-64 22h-27v16h25q37 0 57.5 20.5t20.5 50.5q0 33 -23.5 53t-61.5 20q-43 0 -66.5 -22t-27.5 -57h-17q3 40 32.5 67t78.5 27q46 0 74.5 -25t28.5 -63
q0 -30 -16.5 -50.5t-44.5 -27.5q32 -6 52.5 -29t20.5 -58q0 -46 -31 -72t-82 -26z" />
    <glyph glyph-name="four.den" horiz-adv-x="301" 
d="M205 0v80h-186v6l177 259h27v-249h48v-16h-48v-80h-18zM45 96h160v236z" />
    <glyph glyph-name="five.den" horiz-adv-x="287" 
d="M138 -3q-49 0 -78.5 26t-33.5 63h18q5 -31 29.5 -52t64.5 -21q44 0 70 26.5t26 71.5q0 43 -26 70t-64 27q-60 0 -91 -40h-8v177h187v-16h-170v-135q30 30 84 30q45 0 75.5 -31t30.5 -82q0 -53 -31.5 -83.5t-82.5 -30.5z" />
    <glyph glyph-name="six.den" horiz-adv-x="314" 
d="M160 -3q-61 0 -90.5 39t-29.5 104v29q0 91 35 135t94 44q86 0 98 -76h-16q-11 60 -83 60q-50 0 -80 -38.5t-30 -119.5v-22q10 30 40.5 47.5t63.5 17.5q54 0 85 -30.5t31 -78.5q0 -50 -33 -80.5t-85 -30.5zM160 13q44 0 72 26.5t28 68.5t-26.5 68t-71.5 26q-41 0 -71 -25
t-30 -67q0 -40 25.5 -68.5t73.5 -28.5z" />
    <glyph glyph-name="seven.den" horiz-adv-x="271" 
d="M81 0l143 329h-208v16h233v-4l-148 -341h-20z" />
    <glyph glyph-name="eight.den" horiz-adv-x="315" 
d="M158 -3q-54 0 -88 25t-34 72q0 36 24 59.5t62 30.5q-30 7 -50.5 28.5t-20.5 50.5q0 38 31.5 61.5t75.5 23.5t75 -23.5t31 -60.5q0 -30 -19.5 -51.5t-48.5 -28.5q83 -18 83 -89q0 -48 -33 -73t-88 -25zM159 192q37 0 62 19t25 53q0 30 -25 49t-63 19q-39 0 -64 -19
t-25 -50q0 -32 27.5 -51.5t62.5 -19.5zM158 13q48 0 75.5 20.5t27.5 61.5q0 38 -29 59.5t-73 21.5q-45 0 -75 -22t-30 -60q0 -40 29 -60.5t75 -20.5z" />
    <glyph glyph-name="nine.den" horiz-adv-x="313" 
d="M152 143q41 0 71 25t30 67q0 40 -25.5 68.5t-73.5 28.5q-44 0 -72 -26.5t-28 -69.5q0 -42 26.5 -67.5t71.5 -25.5zM147 -3q-40 0 -69.5 21.5t-35.5 59.5h17q15 -65 89 -65q108 0 108 144v32q-13 -29 -42 -45t-62 -16q-54 0 -85 30t-31 78q0 50 33 81t85 31q61 0 90.5 -39
t29.5 -104v-43q0 -90 -33 -127.5t-94 -37.5z" />
    <glyph glyph-name="zero.sub" horiz-adv-x="349" 
d="M175 -89q-63 0 -100 40.5t-37 117.5v34q0 76 36.5 117.5t98.5 41.5q63 0 100.5 -41t37.5 -116v-35q0 -77 -36 -118t-100 -41zM175 -73q56 0 87 36t31 108v34q0 68 -33 104.5t-87 36.5q-53 0 -85 -36.5t-32 -105.5v-35q0 -71 32.5 -106.5t86.5 -35.5z" />
    <glyph glyph-name="one.sub" horiz-adv-x="205" 
d="M113 -86v320l-95 -68v19l103 74h10v-345h-18z" />
    <glyph glyph-name="two.sub" horiz-adv-x="284" 
d="M24 -86v7l131 126q40 39 56.5 65t16.5 56q0 37 -23.5 58t-61.5 21q-42 0 -65.5 -24.5t-28.5 -67.5h-17q4 50 33.5 78.5t77.5 28.5q46 0 74.5 -26t28.5 -68q0 -35 -17 -62.5t-62 -69.5l-111 -106h194v-16h-226z" />
    <glyph glyph-name="three.sub" horiz-adv-x="305" 
d="M154 -89q-54 0 -88.5 28.5t-37.5 69.5h18q4 -34 32.5 -58t75.5 -24q44 0 69.5 21.5t25.5 60.5q0 34 -24 56t-64 22h-27v16h25q37 0 57.5 20.5t20.5 50.5q0 33 -23.5 53t-61.5 20q-43 0 -66.5 -22t-27.5 -57h-17q3 40 32.5 67t78.5 27q46 0 74.5 -25t28.5 -63
q0 -30 -16.5 -50.5t-44.5 -27.5q32 -6 52.5 -29t20.5 -58q0 -46 -31 -72t-82 -26z" />
    <glyph glyph-name="four.sub" horiz-adv-x="301" 
d="M205 -86v80h-186v6l177 259h27v-249h48v-16h-48v-80h-18zM45 10h160v236z" />
    <glyph glyph-name="five.sub" horiz-adv-x="287" 
d="M138 -89q-49 0 -78.5 26t-33.5 63h18q5 -31 29.5 -52t64.5 -21q44 0 70 26.5t26 71.5q0 43 -26 70t-64 27q-60 0 -91 -40h-8v177h187v-16h-170v-135q30 30 84 30q45 0 75.5 -31t30.5 -82q0 -53 -31.5 -83.5t-82.5 -30.5z" />
    <glyph glyph-name="six.sub" horiz-adv-x="314" 
d="M160 -89q-61 0 -90.5 39t-29.5 104v29q0 91 35 135t94 44q86 0 98 -76h-16q-11 60 -83 60q-50 0 -80 -38.5t-30 -119.5v-22q10 30 40.5 47.5t63.5 17.5q54 0 85 -30.5t31 -78.5q0 -50 -33 -80.5t-85 -30.5zM160 -73q44 0 72 26.5t28 68.5t-26.5 68t-71.5 26
q-41 0 -71 -25t-30 -67q0 -40 25.5 -68.5t73.5 -28.5z" />
    <glyph glyph-name="seven.sub" horiz-adv-x="271" 
d="M81 -86l143 329h-208v16h233v-4l-148 -341h-20z" />
    <glyph glyph-name="eight.sub" horiz-adv-x="315" 
d="M158 -89q-54 0 -88 25t-34 72q0 36 24 59.5t62 30.5q-30 7 -50.5 28.5t-20.5 50.5q0 38 31.5 61.5t75.5 23.5t75 -23.5t31 -60.5q0 -30 -19.5 -51.5t-48.5 -28.5q83 -18 83 -89q0 -48 -33 -73t-88 -25zM159 106q37 0 62 19t25 53q0 30 -25 49t-63 19q-39 0 -64 -19
t-25 -50q0 -32 27.5 -51.5t62.5 -19.5zM158 -73q48 0 75.5 20.5t27.5 61.5q0 38 -29 59.5t-73 21.5q-45 0 -75 -22t-30 -60q0 -40 29 -60.5t75 -20.5z" />
    <glyph glyph-name="nine.sub" horiz-adv-x="313" 
d="M152 57q41 0 71 25t30 67q0 40 -25.5 68.5t-73.5 28.5q-44 0 -72 -26.5t-28 -69.5q0 -42 26.5 -67.5t71.5 -25.5zM147 -89q-40 0 -69.5 21.5t-35.5 59.5h17q15 -65 89 -65q108 0 108 144v32q-13 -29 -42 -45t-62 -16q-54 0 -85 30t-31 78q0 50 33 81t85 31q61 0 90.5 -39
t29.5 -104v-43q0 -90 -33 -127.5t-94 -37.5z" />
    <glyph glyph-name="plus.sub" horiz-adv-x="305" 
d="M143 -39v113h-109v16h109v114h18v-114h110v-16h-110v-113h-18z" />
    <glyph glyph-name="minus.sub" horiz-adv-x="305" 
d="M34 74v16h237v-16h-237z" />
    <glyph glyph-name="zero.sup" horiz-adv-x="349" 
d="M175 425q-63 0 -100 40.5t-37 117.5v34q0 76 36.5 117.5t98.5 41.5q63 0 100.5 -41t37.5 -116v-35q0 -77 -36 -118t-100 -41zM175 441q56 0 87 36t31 108v34q0 68 -33 104.5t-87 36.5q-53 0 -85 -36.5t-32 -105.5v-35q0 -71 32.5 -106.5t86.5 -35.5z" />
    <glyph glyph-name="one.sup" horiz-adv-x="205" 
d="M113 428v320l-95 -68v19l103 74h10v-345h-18z" />
    <glyph glyph-name="two.sup" horiz-adv-x="284" 
d="M24 428v7l131 126q40 39 56.5 65t16.5 56q0 37 -23.5 58t-61.5 21q-42 0 -65.5 -24.5t-28.5 -67.5h-17q4 50 33.5 78.5t77.5 28.5q46 0 74.5 -26t28.5 -68q0 -35 -17 -62.5t-62 -69.5l-111 -106h194v-16h-226z" />
    <glyph glyph-name="three.sup" horiz-adv-x="305" 
d="M154 425q-54 0 -88.5 28.5t-37.5 69.5h18q4 -34 32.5 -58t75.5 -24q44 0 69.5 21.5t25.5 60.5q0 34 -24 56t-64 22h-27v16h25q37 0 57.5 20.5t20.5 50.5q0 33 -23.5 53t-61.5 20q-43 0 -66.5 -22t-27.5 -57h-17q3 40 32.5 67t78.5 27q46 0 74.5 -25t28.5 -63
q0 -30 -16.5 -50.5t-44.5 -27.5q32 -6 52.5 -29t20.5 -58q0 -46 -31 -72t-82 -26z" />
    <glyph glyph-name="four.sup" horiz-adv-x="301" 
d="M205 428v80h-186v6l177 259h27v-249h48v-16h-48v-80h-18zM45 524h160v236z" />
    <glyph glyph-name="five.sup" horiz-adv-x="287" 
d="M138 425q-49 0 -78.5 26t-33.5 63h18q5 -31 29.5 -52t64.5 -21q44 0 70 26.5t26 71.5q0 43 -26 70t-64 27q-60 0 -91 -40h-8v177h187v-16h-170v-135q30 30 84 30q45 0 75.5 -31t30.5 -82q0 -53 -31.5 -83.5t-82.5 -30.5z" />
    <glyph glyph-name="six.sup" horiz-adv-x="314" 
d="M160 425q-61 0 -90.5 39t-29.5 104v29q0 91 35 135t94 44q86 0 98 -76h-16q-11 60 -83 60q-50 0 -80 -38.5t-30 -119.5v-19q11 29 41 45.5t63 16.5q54 0 85 -30.5t31 -78.5q0 -50 -33 -80.5t-85 -30.5zM160 441q44 0 72 26.5t28 68.5t-26.5 68t-71.5 26q-41 0 -71 -25
t-30 -67q0 -40 25.5 -68.5t73.5 -28.5z" />
    <glyph glyph-name="seven.sup" horiz-adv-x="271" 
d="M81 428l143 329h-208v16h233v-4l-148 -341h-20z" />
    <glyph glyph-name="eight.sup" horiz-adv-x="315" 
d="M158 425q-54 0 -88 25t-34 72q0 36 24 59.5t62 30.5q-30 7 -50.5 28.5t-20.5 50.5q0 38 31.5 61.5t75.5 23.5t75 -23.5t31 -60.5q0 -30 -19.5 -51.5t-48.5 -28.5q83 -18 83 -89q0 -48 -33 -73t-88 -25zM159 620q37 0 62 19t25 53q0 30 -25 49t-63 19q-39 0 -64 -19
t-25 -50q0 -32 27.5 -51.5t62.5 -19.5zM158 441q48 0 75.5 20.5t27.5 61.5q0 38 -29 59.5t-73 21.5q-45 0 -75 -22t-30 -60q0 -40 29 -60.5t75 -20.5z" />
    <glyph glyph-name="nine.sup" horiz-adv-x="313" 
d="M152 571q41 0 71 25t30 67q0 40 -25.5 68.5t-73.5 28.5q-44 0 -72 -26.5t-28 -69.5q0 -42 26.5 -67.5t71.5 -25.5zM147 425q-40 0 -69.5 21.5t-35.5 59.5h17q15 -65 89 -65q108 0 108 144v32q-13 -29 -42 -45t-62 -16q-54 0 -85 30t-31 78q0 50 33 81t85 31
q61 0 90.5 -39t29.5 -104v-43q0 -90 -33 -127.5t-94 -37.5z" />
    <glyph glyph-name="plus.sup" horiz-adv-x="305" 
d="M143 479v113h-109v16h109v114h18v-114h110v-16h-110v-113h-18z" />
    <glyph glyph-name="minus.sup" horiz-adv-x="305" 
d="M34 592v16h237v-16h-237z" />
    <glyph glyph-name="aacute.alt" horiz-adv-x="586" 
d="M272 9q89 0 152.5 68.5t63.5 179.5v8q0 114 -60 181.5t-148 67.5q-91 0 -156 -67.5t-65 -181.5v-8q0 -114 61 -181t152 -67zM272 -7q-97 0 -164 71t-67 193v8q0 118 70 191.5t169 73.5q80 0 132 -45.5t76 -113.5v152h18v-523h-18v158q-21 -66 -77.5 -115.5t-138.5 -49.5z
M268 596l75 147h20l-78 -147h-17z" />
    <glyph glyph-name="abreve.alt" horiz-adv-x="586" 
d="M272 9q89 0 152.5 68.5t63.5 179.5v8q0 114 -60 181.5t-148 67.5q-91 0 -156 -67.5t-65 -181.5v-8q0 -114 61 -181t152 -67zM272 -7q-97 0 -164 71t-67 193v8q0 118 70 191.5t169 73.5q80 0 132 -45.5t76 -113.5v152h18v-523h-18v158q-21 -66 -77.5 -115.5t-138.5 -49.5z
M285 612q-47 0 -77 29.5t-34 78.5h18q3 -42 28.5 -67t64.5 -25t65 25.5t30 66.5h18q-4 -49 -35 -78.5t-78 -29.5z" />
    <glyph glyph-name="acircumflex.alt" horiz-adv-x="586" 
d="M272 9q89 0 152.5 68.5t63.5 179.5v8q0 114 -60 181.5t-148 67.5q-91 0 -156 -67.5t-65 -181.5v-8q0 -114 61 -181t152 -67zM272 -7q-97 0 -164 71t-67 193v8q0 118 70 191.5t169 73.5q80 0 132 -45.5t76 -113.5v152h18v-523h-18v158q-21 -66 -77.5 -115.5t-138.5 -49.5z
M165 596l112 124h20l110 -124h-20l-100 108l-102 -108h-20z" />
    <glyph glyph-name="adieresis.alt" horiz-adv-x="586" 
d="M272 9q89 0 152.5 68.5t63.5 179.5v8q0 114 -60 181.5t-148 67.5q-91 0 -156 -67.5t-65 -181.5v-8q0 -114 61 -181t152 -67zM272 -7q-97 0 -164 71t-67 193v8q0 118 70 191.5t169 73.5q80 0 132 -45.5t76 -113.5v152h18v-523h-18v158q-21 -66 -77.5 -115.5t-138.5 -49.5z
M357 639q-7 0 -12 5t-5 12t5 12t12 5t12 -5t5 -12t-5 -12t-12 -5zM215 639q-7 0 -12 5t-5 12t5 12t12 5t12 -5t5 -12t-5 -12t-12 -5z" />
    <glyph glyph-name="agrave.alt" horiz-adv-x="586" 
d="M272 9q89 0 152.5 68.5t63.5 179.5v8q0 114 -60 181.5t-148 67.5q-91 0 -156 -67.5t-65 -181.5v-8q0 -114 61 -181t152 -67zM272 -7q-97 0 -164 71t-67 193v8q0 118 70 191.5t169 73.5q80 0 132 -45.5t76 -113.5v152h18v-523h-18v158q-21 -66 -77.5 -115.5t-138.5 -49.5z
M282 596l-78 147h20l75 -147h-17z" />
    <glyph glyph-name="amacron.alt" horiz-adv-x="586" 
d="M272 9q89 0 152.5 68.5t63.5 179.5v8q0 114 -60 181.5t-148 67.5q-91 0 -156 -67.5t-65 -181.5v-8q0 -114 61 -181t152 -67zM272 -7q-97 0 -164 71t-67 193v8q0 118 70 191.5t169 73.5q80 0 132 -45.5t76 -113.5v152h18v-523h-18v158q-21 -66 -77.5 -115.5t-138.5 -49.5z
M176 646v17h219v-17h-219z" />
    <glyph glyph-name="aogonek.alt" horiz-adv-x="586" 
d="M486 -182q-38 0 -59.5 19.5t-21.5 50.5q0 62 83 117v153q-21 -66 -77.5 -115.5t-138.5 -49.5q-97 0 -164 71t-67 193v8q0 118 70 191.5t169 73.5q80 0 132 -45.5t76 -113.5v152h18v-523q-83 -54 -83 -112q0 -24 16 -39t47 -15q24 0 48 9v-16q-23 -9 -48 -9zM272 9
q89 0 152.5 68.5t63.5 179.5v8q0 114 -60 181.5t-148 67.5q-91 0 -156 -67.5t-65 -181.5v-8q0 -114 61 -181t152 -67z" />
    <glyph glyph-name="aring.alt" horiz-adv-x="586" 
d="M272 9q89 0 152.5 68.5t63.5 179.5v8q0 114 -60 181.5t-148 67.5q-91 0 -156 -67.5t-65 -181.5v-8q0 -114 61 -181t152 -67zM272 -7q-97 0 -164 71t-67 193v8q0 118 70 191.5t169 73.5q80 0 132 -45.5t76 -113.5v152h18v-523h-18v158q-21 -66 -77.5 -115.5t-138.5 -49.5z
M286 604q-35 0 -61 25.5t-26 59.5q0 35 26 60.5t61 25.5q37 0 62.5 -25.5t25.5 -60.5t-25.5 -60t-62.5 -25zM286 619q30 0 50.5 20.5t20.5 49.5q0 31 -20.5 51t-50.5 20q-29 0 -49.5 -20.5t-20.5 -50.5q0 -29 20.5 -49.5t49.5 -20.5z" />
    <glyph glyph-name="aringacute.alt" horiz-adv-x="586" 
d="M272 9q89 0 152.5 68.5t63.5 179.5v8q0 114 -60 181.5t-148 67.5q-91 0 -156 -67.5t-65 -181.5v-8q0 -114 61 -181t152 -67zM272 -7q-97 0 -164 71t-67 193v8q0 118 70 191.5t169 73.5q80 0 132 -45.5t76 -113.5v152h18v-523h-18v158q-21 -66 -77.5 -115.5t-138.5 -49.5z
M286 604q-35 0 -61 25.5t-26 59.5q0 35 26 60.5t61 25.5q37 0 62.5 -25.5t25.5 -60.5t-25.5 -60t-62.5 -25zM286 619q30 0 50.5 20.5t20.5 49.5q0 31 -20.5 51t-50.5 20q-29 0 -49.5 -20.5t-20.5 -50.5q0 -29 20.5 -49.5t49.5 -20.5zM270 831l73 117h21l-76 -117h-18z" />
    <glyph glyph-name="atilde.alt" horiz-adv-x="586" 
d="M272 9q89 0 152.5 68.5t63.5 179.5v8q0 114 -60 181.5t-148 67.5q-91 0 -156 -67.5t-65 -181.5v-8q0 -114 61 -181t152 -67zM272 -7q-97 0 -164 71t-67 193v8q0 118 70 191.5t169 73.5q80 0 132 -45.5t76 -113.5v152h18v-523h-18v158q-21 -66 -77.5 -115.5t-138.5 -49.5z
M357 613q-28 0 -74.5 32t-66.5 32t-34.5 -16t-18.5 -47h-17q10 79 71 79q27 0 74 -32t67 -32q19 0 33.5 16t18.5 47h17q-10 -79 -70 -79z" />
    <glyph glyph-name="germandbls.alt" horiz-adv-x="572" 
d="M373 -4q-76 0 -120.5 40.5t-49.5 96.5h18q6 -49 44.5 -85t107.5 -36q65 0 105 36t40 97q0 16 -4 30t-7.5 23.5t-17 21.5t-18.5 17.5t-26.5 17.5t-27.5 15t-34 18q-85 44 -103 60q-27 24 -27 57q0 25 19 48t46 42t54 39.5t46 48t19 59.5q0 55 -39.5 86.5t-106.5 31.5
q-91 0 -142 -58.5t-51 -155.5v-546h-18v546q0 104 57 167t154 63q76 0 120 -36t44 -98q0 -34 -19 -63.5t-46.5 -50.5t-54.5 -39.5t-46 -40t-19 -43.5q0 -8 2.5 -15.5t5.5 -13.5t10.5 -12.5t13 -11t18 -11.5t19.5 -11t24 -12.5t26 -13.5q83 -44 104 -62q44 -38 44 -97
q0 -69 -45.5 -109t-118.5 -40z" />
    <glyph glyph-name="tbar.alt" horiz-adv-x="296" 
d="M22 327v16h94v164h-94v16h94v119h18v-119h140v-16h-140v-164h140v-16h-140v-327h-18v327h-94z" />
    <glyph glyph-name="tcaron.alt" horiz-adv-x="296" 
d="M116 0v507h-94v16h94v119h18v-119h140v-16h-140v-507h-18zM229 626l13 147h19l-15 -147h-17z" />
    <glyph glyph-name="tcommaaccent.alt" horiz-adv-x="296" 
d="M75 -186l-15 6l58 134l19 -4zM116 0v507h-94v16h94v119h18v-119h140v-16h-140v-507h-18z" />
    <glyph glyph-name="space_uni0326.alt" horiz-adv-x="400" 
d="M197 613l-19 4l62 136l15 -6z" />
    <glyph glyph-name="registered.alt" horiz-adv-x="844" 
d="M421 -9q-153 0 -259.5 105.5t-106.5 260.5q0 153 107 260t261 107q155 0 260.5 -106t105.5 -259q0 -156 -106.5 -262t-261.5 -106zM421 6q148 0 249.5 101.5t101.5 251.5q0 147 -100.5 248.5t-248.5 101.5q-147 0 -249 -102.5t-102 -249.5q0 -149 101.5 -250t247.5 -101z
M327 368h88q124 0 124 96v2q0 95 -124 95h-88v-193zM309 151v426h106q142 0 142 -111v-2q0 -100 -114 -110l139 -203h-20l-138 201h-97v-201h-18z" />
    <glyph glyph-name="caron.alt" horiz-adv-x="256" 
d="M99 626l13 147h19l-15 -147h-17z" />
    <glyph glyph-name="questiondown.uc" horiz-adv-x="462" 
d="M255 720q7 0 12 -5t5 -12t-5 -12t-12 -5t-12 5t-5 12t5 12t12 5zM264 563v-66q0 -53 -21.5 -88t-75.5 -89l-12 -12q-32 -32 -46.5 -49t-28 -47t-13.5 -65q0 -62 40.5 -99t117.5 -37q76 0 125 46t55 126h19q-5 -87 -60 -138t-140 -51q-83 0 -129.5 42t-46.5 111
q0 22 4.5 41.5t9 31.5t18.5 30.5t19.5 24.5t27.5 28.5t28 28.5q37 38 51.5 55.5t27 46.5t12.5 64v65h18z" />
    <glyph glyph-name="exclamdown.uc" horiz-adv-x="254" 
d="M127 686q-7 0 -12 5t-5 12t5 12t12 5t12 -5t5 -12t-5 -12t-12 -5zM116 0l2 563h16l2 -563h-20z" />
    <glyph glyph-name="hyphen.uc" horiz-adv-x="352" 
d="M64 331v17h224v-17h-224z" />
    <glyph glyph-name="endash.uc" horiz-adv-x="476" 
d="M48 331v17h380v-17h-380z" />
    <glyph glyph-name="emdash.uc" horiz-adv-x="850" 
d="M48 331v17h754v-17h-754z" />
    <glyph glyph-name="guilsinglleft.uc" horiz-adv-x="253" 
d="M189 123l-140 178l140 178h21l-140 -178l140 -178h-21z" />
    <glyph glyph-name="guilsinglright.uc" horiz-adv-x="253" 
d="M43 123l140 178l-140 178h21l140 -178l-140 -178h-21z" />
    <glyph glyph-name="guillemotleft.uc" horiz-adv-x="387" 
d="M323 123l-140 178l140 178h21l-140 -178l140 -178h-21zM189 123l-140 178l140 178h21l-140 -178l140 -178h-21z" />
    <glyph glyph-name="guillemotright.uc" horiz-adv-x="387" 
d="M177 123l140 178l-140 178h21l140 -178l-140 -178h-21zM43 123l140 178l-140 178h21l140 -178l-140 -178h-21z" />
    <glyph glyph-name="parenleft.uc" horiz-adv-x="267" 
d="M216 -98q-158 192 -158 440q0 249 158 441h19q-159 -202 -159 -441q0 -238 159 -440h-19z" />
    <glyph glyph-name="parenright.uc" horiz-adv-x="267" 
d="M32 -98q159 202 159 440q0 239 -159 441h19q158 -192 158 -441q0 -248 -158 -440h-19z" />
    <glyph glyph-name="bracketleft.uc" horiz-adv-x="322" 
d="M99 -84v862h184v-16h-166v-830h166v-16h-184z" />
    <glyph glyph-name="bracketright.uc" horiz-adv-x="322" 
d="M39 -84v16h166v830h-166v16h184v-862h-184z" />
    <glyph glyph-name="braceleft.uc" horiz-adv-x="343" 
d="M304 -87q-98 0 -139 42.5t-22 144.5l19 99q26 138 -118 139v16q144 1 118 139l-19 99q-19 102 22 144.5t139 42.5v-16q-89 -1 -125.5 -36.5t-18.5 -131.5l19 -99q24 -125 -89 -150q113 -25 89 -150l-19 -99q-18 -96 18.5 -131.5t125.5 -36.5v-16z" />
    <glyph glyph-name="braceright.uc" horiz-adv-x="343" 
d="M39 -87v16q89 1 125.5 36.5t18.5 131.5l-19 99q-24 125 89 150q-113 25 -89 150l19 99q18 96 -18.5 131.5t-125.5 36.5v16q98 0 139 -42.5t22 -144.5l-19 -99q-26 -138 118 -139v-16q-144 -1 -118 -139l19 -99q19 -102 -22 -144.5t-139 -42.5z" />
    <glyph glyph-name="slash.uc" horiz-adv-x="376" 
d="M41 -84l271 862h19l-271 -862h-19z" />
    <glyph glyph-name="backslash.uc" horiz-adv-x="376" 
d="M316 -84l-271 862h19l271 -862h-19z" />
    <glyph glyph-name="bar.uc" horiz-adv-x="226" 
d="M104 -84v862h18v-862h-18z" />
    <glyph glyph-name="at.uc" horiz-adv-x="877" 
d="M449 -59q-187 0 -294.5 114.5t-107.5 279.5q0 115 58 211t152.5 150t200.5 54q170 0 273 -100t103 -254q0 -120 -44 -180t-113 -60q-49 0 -78.5 29t-30.5 85q-15 -45 -57 -83.5t-99 -38.5q-68 0 -109.5 45.5t-41.5 122.5q0 95 55.5 160t129.5 65q53 0 91 -33.5t46 -84.5
l11 109h19l-25 -219q-19 -140 89 -140q62 0 100 55.5t38 166.5q0 148 -96 243t-261 95q-157 0 -274.5 -115.5t-117.5 -282.5q0 -158 101.5 -267.5t281.5 -109.5q107 0 184 36t117 90h21q-39 -61 -123 -102t-199 -41zM412 165q67 0 114.5 62t47.5 141q0 71 -35.5 113.5
t-92.5 42.5q-65 0 -115.5 -59.5t-50.5 -148.5q0 -70 36 -110.5t96 -40.5z" />
    <glyph glyph-name="grave.uc" horiz-adv-x="400" 
d="M192 771l-76 117h21l73 -117h-18z" />
    <glyph glyph-name="dieresis.uc" horiz-adv-x="400" 
d="M277 787q-7 0 -12 5t-5 12t5 12t12 5t12 -5t5 -12t-5 -12t-12 -5zM123 787q-7 0 -12 5t-5 12t5 12t12 5t12 -5t5 -12t-5 -12t-12 -5z" />
    <glyph glyph-name="macron.uc" horiz-adv-x="400" 
d="M87 797v17h226v-17h-226z" />
    <glyph glyph-name="acute.uc" horiz-adv-x="400" 
d="M190 771l73 117h21l-76 -117h-18z" />
    <glyph glyph-name="circumflex.uc" horiz-adv-x="400" 
d="M78 771l113 117h20l111 -117h-20l-101 101l-103 -101h-20z" />
    <glyph glyph-name="caron.uc" horiz-adv-x="400" 
d="M189 771l-113 117h20l103 -101l105 101h20l-115 -117h-20z" />
    <glyph glyph-name="breve.uc" horiz-adv-x="400" 
d="M200 775q-47 0 -81 31.5t-38 80.5h18q3 -41 32 -68.5t69 -27.5q39 0 69 27.5t34 68.5h18q-4 -48 -39 -80t-82 -32z" />
    <glyph glyph-name="dotaccent.uc" horiz-adv-x="400" 
d="M200 787q-7 0 -12 5t-5 12t5 12t12 5t12 -5t5 -12t-5 -12t-12 -5z" />
    <glyph glyph-name="ring.uc" horiz-adv-x="400" 
d="M200 749q-35 0 -61 25.5t-26 59.5q0 35 26 60.5t61 25.5q37 0 62.5 -25.5t25.5 -60.5t-25.5 -60t-62.5 -25zM200 764q30 0 50.5 20.5t20.5 49.5q0 31 -20.5 51t-50.5 20q-29 0 -49.5 -20.5t-20.5 -50.5q0 -29 20.5 -49.5t49.5 -20.5z" />
    <glyph glyph-name="tilde.uc" horiz-adv-x="400" 
d="M275 773q-28 0 -74 32.5t-66 32.5q-47 0 -54 -63h-17q10 79 71 79q26 0 72.5 -32.5t67.5 -32.5q46 0 53 63h17q-10 -79 -70 -79z" />
    <glyph glyph-name="hungarumlaut.uc" horiz-adv-x="400" 
d="M237 771l54 117h20l-57 -117h-17zM131 771l54 117h20l-57 -117h-17z" />
    <glyph glyph-name="f.short" horiz-adv-x="308" 
d="M109 0v507h-85v16h85v104q0 79 37.5 114t93.5 35q28 0 53 -7v-17q-26 8 -53 8q-113 0 -113 -133v-104h166v-16h-166v-507h-18z" />
    <glyph glyph-name="f_f.short" horiz-adv-x="575" 
d="M109 0v507h-85v16h85v95q0 78 40 113.5t99 35.5q28 0 52 -7v-17q-24 8 -52 8q-121 0 -121 -133v-95h249v104q0 79 37.5 114t93.5 35q29 0 53 -7v-17q-26 8 -53 8q-113 0 -113 -133v-104h166v-16h-166v-507h-18v507h-249v-507h-18z" />
    <glyph glyph-name="uni0414.bgr" horiz-adv-x="697" 
d="M347 700l-259 -683h520zM19 0l-3 -130h-16v147h70l264 698h26l267 -698h70v-147h-16l-3 130h-659z" />
    <glyph glyph-name="uni0416.bgr" horiz-adv-x="858" 
d="M420 0v715h18v-715h-18zM830 0h-25l-355 365l338 350h24l-341 -349zM53 0h-25l359 365l-341 350h24l338 -351z" />
    <glyph glyph-name="uni041A.bgr" horiz-adv-x="579" 
d="M95 0v715h19v-715h-19zM521 0l-397 365l380 350h24l-379 -349l397 -366h-25z" />
    <glyph glyph-name="uni041B.bgr" horiz-adv-x="630" 
d="M581 0l-268 700l-265 -700h-18l270 715h26l274 -715h-19z" />
    <glyph glyph-name="uni0424.bgr" horiz-adv-x="759" 
d="M389 654q150 0 236 -76.5t86 -212.5v-8q0 -138 -87 -214t-235 -76v-77h-19v77q-150 0 -236 76.5t-86 212.5v8q0 138 87 214t235 76v71h19v-71zM389 637v-553q143 0 223 71t80 202v8q0 130 -79.5 201t-223.5 71zM370 84v553q-143 0 -223 -71t-80 -202v-8q0 -130 79.5 -201
t223.5 -71z" />
    <glyph glyph-name="uni0430.alt" horiz-adv-x="586" 
d="M272 9q89 0 152.5 68.5t63.5 179.5v8q0 114 -60 181.5t-148 67.5q-91 0 -156 -67.5t-65 -181.5v-8q0 -114 61 -181t152 -67zM272 -7q-97 0 -164 71t-67 193v8q0 118 70 191.5t169 73.5q80 0 132 -45.5t76 -113.5v152h18v-523h-18v158q-21 -66 -77.5 -115.5t-138.5 -49.5z
" />
    <glyph glyph-name="uni0431.locl" horiz-adv-x="576" 
d="M287 -7q-102 0 -174 72t-72 182v8q0 110 73.5 182t175.5 72q13 0 20 -1q-66 27 -99 42.5t-67 37.5t-47 46.5t-13 56.5q0 36 29 59t75 23h176q83 0 122 9v-16q-33 -9 -122 -9h-176q-40 0 -63 -19.5t-23 -48.5q0 -39 36 -72.5t74.5 -51.5t132.5 -55q8 -3 12 -5
q84 -34 131 -90t47 -159v-8q0 -112 -72.5 -183.5t-175.5 -71.5zM288 9q94 0 161.5 66.5t67.5 172.5v7q0 110 -64 174t-163 64q-94 0 -162.5 -67t-68.5 -171v-8q0 -103 67.5 -170.5t161.5 -67.5z" />
    <glyph glyph-name="uni0432.bgr" horiz-adv-x="488" 
d="M60 537q0 122 50 181.5t131 59.5q85 0 132.5 -51.5t47.5 -134.5v-3q0 -70 -33 -118t-84 -58q62 -11 102.5 -62t40.5 -126v-7q0 -105 -55.5 -164.5t-138.5 -59.5q-193 0 -193 237v306zM78 538v-117h180q71 0 107.5 47.5t36.5 120.5v3q0 76 -41.5 123t-120.5 47
q-75 0 -118.5 -55t-43.5 -169zM253 10q76 0 125.5 54t49.5 154v7q0 76 -44.5 128t-124.5 52h-181v-174q0 -221 175 -221z" />
    <glyph glyph-name="uni0433.bgr" horiz-adv-x="440" 
d="M215 -9q-80 0 -127.5 36.5t-47.5 94.5q0 60 40 93.5t133 55.5q89 21 123 49t34 82q0 52 -39 81.5t-100 29.5q-62 0 -102.5 -31.5t-52.5 -91.5h-17q12 68 58 103.5t114 35.5q69 0 112.5 -34t43.5 -93q0 -63 -38 -93.5t-131 -52.5q-87 -21 -123 -51t-36 -83
q0 -52 41.5 -83.5t114.5 -31.5q147 0 168 133h17q-7 -69 -53 -109t-132 -40z" />
    <glyph glyph-name="uni0433.locl" horiz-adv-x="443" 
d="M413 507h-314v-507h-18v523h332v-16z" />
    <glyph glyph-name="uni0434.bgr" horiz-adv-x="594" 
d="M275 33q92 0 156.5 64.5t64.5 171.5v8q0 109 -60.5 173t-152.5 64q-94 0 -159 -63.5t-65 -173.5v-8q0 -110 60.5 -173t155.5 -63zM283 -185q-104 0 -162.5 44.5t-68.5 110.5h18q12 -62 64.5 -100.5t147.5 -38.5q98 0 156 48.5t58 154.5v142q-20 -64 -78 -111.5
t-143 -47.5q-101 0 -167.5 67t-66.5 185v8q0 114 70 183.5t172 69.5q84 0 136.5 -43.5t76.5 -110.5v147h18v-489q0 -112 -63 -165.5t-168 -53.5z" />
    <glyph glyph-name="uni0434.locl" horiz-adv-x="560" 
d="M147 270q-11 -116 -24.5 -173.5t-43.5 -80.5h366v491h-282q-6 -139 -16 -237zM32 0l-3 -127h-14v143h33q37 10 53.5 71t28.5 188l17 248h316v-507h69v-143h-14l-3 127h-483z" />
    <glyph glyph-name="uni0436.bgr" horiz-adv-x="642" 
d="M312 0v773h18v-773h-18zM625 0h-23l-266 274l252 249h22l-254 -249zM40 0h-23l269 274l-254 249h22l252 -249z" />
    <glyph glyph-name="uni0437.bgr" horiz-adv-x="452" 
d="M408 32v-7q0 -104 -50 -157t-133 -53q-88 0 -136 50t-53 125h18q5 -70 48.5 -114.5t122.5 -44.5q75 0 119.5 48t44.5 146v7q0 76 -42.5 122.5t-126.5 46.5h-80v16h79q72 0 108.5 40t36.5 110v3q0 64 -38 104t-104 40q-62 0 -100 -36t-49 -97h-17q8 67 52.5 108t113.5 41
q72 0 116.5 -44t44.5 -116v-3q0 -66 -32.5 -108t-80.5 -50q60 -8 99 -54t39 -123z" />
    <glyph glyph-name="uni0438.bgr" horiz-adv-x="561" 
d="M262 -7q-187 0 -187 200v330h18v-330q0 -184 169 -184q80 0 140.5 52t60.5 142v320h18v-523h-18v121q-19 -54 -73.5 -91t-127.5 -37z" />
    <glyph glyph-name="uni0439.bgr" horiz-adv-x="561" 
d="M275 612q-47 0 -81 31.5t-38 80.5h18q3 -42 31.5 -70t69.5 -28t70 28t33 70h18q-4 -48 -39 -80t-82 -32zM262 -7q-187 0 -187 200v330h18v-330q0 -184 169 -184q80 0 140.5 52t60.5 142v320h18v-523h-18v121q-19 -54 -73.5 -91t-127.5 -37z" />
    <glyph glyph-name="uni043A.bgr" horiz-adv-x="452" 
d="M80 0v773h18v-773h-18zM410 0l-307 277l293 246h24l-292 -246l307 -277h-25z" />
    <glyph glyph-name="uni043B.bgr" horiz-adv-x="499" 
d="M261 523l212 -523h-19l-206 507l-204 -507h-18l209 523h26z" />
    <glyph glyph-name="uni043D.bgr" horiz-adv-x="551" 
d="M452 0v266h-353v-266h-18v523h18v-241h353v241h18v-523h-18z" />
    <glyph glyph-name="uni043F.bgr" horiz-adv-x="565" 
d="M80 0v523h18v-125q19 54 75.5 93t128.5 39q89 0 138.5 -51t49.5 -156v-323h-18v323q0 97 -44.5 144t-125.5 47q-80 0 -142 -53t-62 -144v-317h-18z" />
    <glyph glyph-name="uni043F.locl" horiz-adv-x="541" 
d="M442 0v507h-343v-507h-18v523h379v-523h-18z" />
    <glyph glyph-name="uni0442.bgr" horiz-adv-x="897" 
d="M80 0v523h18v-122q19 54 69.5 91.5t119.5 37.5q144 0 168 -139q22 62 73.5 100.5t120.5 38.5q85 0 129 -47.5t44 -152.5v-330h-18v330q0 97 -39 140.5t-116 43.5q-76 0 -132.5 -53t-56.5 -144v-317h-18v330q0 97 -39 140.5t-116 43.5q-76 0 -132.5 -53t-56.5 -144v-317
h-18z" />
    <glyph glyph-name="uni0442.locl" horiz-adv-x="446" 
d="M426 523v-16h-194v-507h-18v507h-194v16h406z" />
    <glyph glyph-name="uni0446.bgr" horiz-adv-x="585" 
d="M550 -127h-14l-3 127h-70v121q-19 -54 -73.5 -91t-127.5 -37q-187 0 -187 200v330h18v-330q0 -184 169 -184q80 0 140.5 52t60.5 142v320h18v-507h69v-143z" />
    <glyph glyph-name="uni0447.bgr" horiz-adv-x="561" 
d="M456 0h-18v286q-63 -93 -186 -93q-177 0 -177 200v130h18v-130q0 -184 159 -184q38 0 71.5 11t53.5 27t34.5 32t20.5 27l6 11v206h18v-523z" />
    <glyph glyph-name="uni0448.bgr" horiz-adv-x="897" 
d="M822 523v-523h-18v122q-19 -54 -69.5 -91.5t-119.5 -37.5q-144 0 -168 139q-22 -62 -73.5 -100.5t-120.5 -38.5q-85 0 -129 47.5t-44 152.5v330h18v-330q0 -97 39 -140.5t116 -43.5q76 0 132.5 53t56.5 144v317h18v-330q0 -97 39 -140.5t116 -43.5q76 0 132.5 53
t56.5 144v317h18z" />
    <glyph glyph-name="uni0449.bgr" horiz-adv-x="926" 
d="M891 -127h-14l-3 127h-70v122q-19 -54 -69.5 -91.5t-119.5 -37.5q-144 0 -168 139q-22 -62 -73.5 -100.5t-120.5 -38.5q-85 0 -129 47.5t-44 152.5v330h18v-330q0 -97 39 -140.5t116 -43.5q76 0 132.5 53t56.5 144v317h18v-330q0 -97 39 -140.5t116 -43.5q76 0 132.5 53
t56.5 144v317h18v-507h69v-143z" />
    <glyph glyph-name="uni044A.bgr" horiz-adv-x="570" 
d="M181 507h-166v16h184v-211q64 16 138 16q93 0 145 -44.5t52 -118.5v-3q0 -76 -49 -122t-129 -46t-127.5 46t-47.5 122v345zM356 10q73 0 116.5 42t43.5 110v3q0 67 -47 107t-132 40q-70 0 -138 -16v-134q0 -69 42 -110.5t115 -41.5z" />
    <glyph glyph-name="uni044C.bgr" horiz-adv-x="470" 
d="M256 -6q-80 0 -127.5 46t-47.5 122v361h18v-211q64 16 138 16q93 0 145 -44.5t52 -118.5v-3q0 -76 -49 -122t-129 -46zM256 10q73 0 116.5 42t43.5 110v3q0 67 -47 107t-132 40q-70 0 -138 -16v-134q0 -69 42 -110.5t115 -41.5z" />
    <glyph glyph-name="uni044E.bgr" horiz-adv-x="757" 
d="M478 -7q-101 0 -168.5 75.5t-67.5 196.5v1h-143v-266h-18v773h18v-491h143q6 109 74 178t165 69q101 0 168 -72.5t67 -190.5v-8q0 -117 -68.5 -191t-169.5 -74zM479 9q94 0 156.5 68t62.5 181v8q0 115 -62 181t-155 66q-94 0 -157.5 -68t-63.5 -180v-8
q0 -111 62.5 -179.5t156.5 -68.5z" />
    <glyph glyph-name="uni045D.bgr" horiz-adv-x="561" 
d="M262 -7q-187 0 -187 200v330h18v-330q0 -184 169 -184q80 0 140.5 52t60.5 142v320h18v-523h-18v121q-19 -54 -73.5 -91t-127.5 -37zM277 596l-78 147h20l75 -147h-17z" />
    <glyph glyph-name="uni20B4.old" horiz-adv-x="539" 
d="M258 -6q-96 0 -150 39.5t-54 115.5q0 79 65 130h-89v16h112q12 8 135 76q57 33 68 40h-315v16h339q35 26 52 56.5t17 75.5q0 62 -41 93t-115 31q-159 0 -185 -138h-18q13 73 64.5 113.5t138.5 40.5q83 0 129 -35.5t46 -104.5q0 -80 -62 -132h114v-16h-135
q-34 -24 -94 -56q-83 -44 -109 -60h338v-16h-363q-38 -26 -55.5 -55.5t-17.5 -74.5q0 -66 50 -102.5t135 -36.5q96 0 147 48t63 126h19q-13 -86 -69.5 -138t-159.5 -52z" />
    <glyph glyph-name="uni20B4.oldtab" 
d="M291 -6q-96 0 -150 39.5t-54 115.5q0 79 65 130h-89v16h112q12 8 135 76q57 33 68 40h-315v16h339q35 26 52 56.5t17 75.5q0 62 -41 93t-115 31q-159 0 -185 -138h-18q13 73 64.5 113.5t138.5 40.5q83 0 129 -35.5t46 -104.5q0 -80 -62 -132h114v-16h-135
q-34 -24 -94 -56q-83 -44 -109 -60h338v-16h-363q-38 -26 -55.5 -55.5t-17.5 -74.5q0 -66 50 -102.5t135 -36.5q96 0 147 48t63 126h19q-13 -86 -69.5 -138t-159.5 -52z" />
    <glyph glyph-name="uni20B4.tab" 
d="M287 -6q-99 0 -154.5 41t-55.5 119q0 81 68 134h-93v16h115q16 10 140 79q62 36 70 41h-325v16h349q37 27 54.5 58t17.5 78q0 64 -42 96t-119 32q-163 0 -191 -142h-19q14 75 67 117t143 42q85 0 132.5 -37t47.5 -108q0 -82 -64 -136h118v-16h-139q-30 -22 -97 -58
q-108 -59 -113 -62h349v-16h-374q-39 -27 -57.5 -57.5t-18.5 -76.5q0 -69 51.5 -106t139.5 -37q99 0 152 49.5t65 129.5h19q-13 -89 -71.5 -142.5t-164.5 -53.5z" />
    <glyph glyph-name="uni20B8.old" horiz-adv-x="542" 
d="M511 678h-480v16h480v-16zM262 0v551h-231v16h480v-16h-231v-551h-18z" />
    <glyph glyph-name="uni20B8.oldtab" 
d="M538 678h-480v16h480v-16zM289 0v551h-231v16h480v-16h-231v-551h-18z" />
    <glyph glyph-name="uni20B8.tab" 
d="M547 699h-495v16h495v-16zM290 0v568h-238v17h495v-17h-238v-568h-19z" />
    <glyph glyph-name="uni20BD.old" horiz-adv-x="577" 
d="M149 330h153q207 0 207 174v4q0 169 -210 169h-150v-347zM413 182h-264v-182h-17v182h-97v16h97v116h-97v16h97v364h167q229 0 229 -186v-4q0 -191 -226 -191h-153v-115h264v-16z" />
    <glyph glyph-name="uni20BD.oldtab" 
d="M166 330h143q207 0 207 174v4q0 169 -210 169h-140v-347zM420 182h-254v-182h-17v182h-97v16h97v116h-97v16h97v364h157q229 0 229 -186v-4q0 -191 -226 -191h-143v-115h254v-16z" />
    <glyph glyph-name="uni20BD.tab" 
d="M161 340h157q214 0 214 180v4q0 174 -217 174h-154v-358zM433 188h-272v-188h-18v188h-100v16h100v120h-100v16h100v375h172q236 0 236 -191v-4q0 -197 -233 -197h-157v-119h272v-16z" />
    </font>
</defs>
</svg>
