<svg width="20" height="20" viewBox="0 0 20 20" fill="none" xmlns="http://www.w3.org/2000/svg">
<path fill-rule="evenodd" clip-rule="evenodd" d="M16.1234 0.00679033C19.1796 2.06717 20.9538 4.8415 19.463 8.7731C18.3683 11.0362 16.8824 13.1616 14.9967 15.0464C13.1721 16.8701 11.1184 18.3193 8.94151 19.398C4.9138 21.0044 2.08955 19.2205 0 16.1212C1.61399 15.0542 3.22799 13.8474 4.83034 12.5146L6.70929 14.3926C7.37022 15.0542 8.44654 15.0542 9.10747 14.3926L13.9786 9.52489C14.6405 8.86332 14.6405 7.78754 13.9786 7.12693L12.1287 5.27802C13.6117 3.53388 14.9413 1.76161 16.1079 0L16.1234 0.00679033Z" transform="translate(20) scale(-1 1)" fill="#456577"/>
</svg>
