<svg width="24" height="23" viewBox="0 0 24 23" fill="none" xmlns="http://www.w3.org/2000/svg">
<path d="M6.57715 14.0129C12.6045 19.8578 16.5729 20.8421 18.0094 20.9934C18.3693 21.0315 18.7253 20.9028 18.9814 20.6544L21.3012 18.4049C21.833 17.8892 21.7573 17.0337 21.1423 16.614L17.0505 13.8171C16.6767 13.5615 16.186 13.5325 15.7822 13.741L13.3186 15.0153C12.9756 15.1929 12.569 15.2011 12.2185 15.0361C11.6923 14.7896 10.8353 14.2395 9.57541 13.0177L8.23142 11.7144C6.97249 10.4936 6.40517 9.66252 6.15002 9.15135C5.98086 8.81238 5.98927 8.41722 6.17152 8.0846L7.4856 5.69553C7.70149 5.3049 7.67065 4.82908 7.40709 4.46655L4.52378 0.497743C4.09012 -0.097714 3.20784 -0.171127 2.67604 0.343667L0.356309 2.59408C0.101158 2.8415 -0.0324931 3.18681 0.00676096 3.53575C0.163777 4.92877 1.17878 8.77794 7.20521 14.6219" transform="translate(1.21875 1)" stroke="#484848"/>
</svg>
