<svg width="15" height="15" viewBox="0 0 15 15" fill="none" xmlns="http://www.w3.org/2000/svg">
<path fill-rule="evenodd" clip-rule="evenodd" d="M4.5556 10.0092C8.7304 14.1841 11.4791 14.8872 12.4741 14.9953C12.7233 15.0225 12.9699 14.9306 13.1473 14.7532L14.7541 13.1464C15.1224 12.778 15.07 12.1669 14.644 11.8672L11.8099 9.86937C11.5509 9.68681 11.2111 9.66609 10.9314 9.81499L9.22498 10.7252C8.9874 10.8521 8.7058 10.8579 8.46304 10.7401C8.09858 10.564 7.50495 10.171 6.63232 9.29838L5.70142 8.36746C4.82943 7.49544 4.43648 6.9018 4.25976 6.53668C4.14259 6.29456 4.14841 6.0123 4.27465 5.77472L5.18483 4.06823C5.33437 3.78921 5.31301 3.44934 5.13045 3.19039L3.13336 0.35553C2.83298 -0.0697957 2.22188 -0.122233 1.85353 0.245476L0.246794 1.85291C0.0700659 2.02964 -0.0225061 2.2763 0.00468291 2.52554C0.113439 3.52055 0.816468 6.26996 4.99062 10.4442" fill="#484848"/>
</svg>
