<svg width="50" height="50" viewBox="0 0 50 50" fill="none" xmlns="http://www.w3.org/2000/svg">
<mask id="mask0" mask-type="alpha" maskUnits="userSpaceOnUse" x="0" y="0" width="50" height="50">
<path fill-rule="evenodd" clip-rule="evenodd" d="M0 0H50V49.9999H0V0Z" fill="white"/>
</mask>
<g mask="url(#mask0)">
<path fill-rule="evenodd" clip-rule="evenodd" d="M50 25C50 38.807 38.807 50 25 50C11.193 50 0 38.807 0 25C0 11.193 11.193 0 25 0C38.807 0 50 11.193 50 25Z" transform="translate(0 -0.00012207)" fill="#7B519D"/>
</g>
<path fill-rule="evenodd" clip-rule="evenodd" d="M23.0771 18.112C22.2991 17.486 21.4681 16.924 20.6501 16.35C19.0191 15.204 17.5271 15.115 16.3091 16.959C15.6261 17.993 14.6691 18.039 13.6681 17.585C10.9101 16.334 8.78006 14.407 7.53206 11.603C6.98006 10.362 6.98806 9.25004 8.27906 8.37304C8.96206 7.90904 9.65106 7.36004 9.59606 6.34604C9.52406 5.02404 6.31506 0.607036 5.04706 0.140036C4.52306 -0.0529637 4.00006 -0.0399637 3.46706 0.139036C0.494056 1.13904 -0.735944 3.58304 0.443056 6.47704C3.96006 15.112 10.1491 21.123 18.6701 24.792C19.1551 25 19.6951 25.084 19.9681 25.159C21.9081 25.178 24.1811 23.309 24.8371 21.455C25.4691 19.671 24.1331 18.962 23.0771 18.112Z" transform="translate(12.5 12.5909)" fill="white"/>
<path fill-rule="evenodd" clip-rule="evenodd" d="M1.2654 1.36669C7.4944 2.32469 10.3674 5.28669 11.1604 11.5597C11.2334 12.1397 11.0174 13.0117 11.8444 13.0277C12.7084 13.0447 12.5004 12.1847 12.5074 11.6047C12.5804 5.69669 7.4284 0.218686 1.4454 0.0166856C0.994396 0.0816856 0.0593958 -0.294314 0.00139584 0.717686C-0.0376042 1.39969 0.749396 1.28669 1.2654 1.36669Z" transform="translate(24.7583 12.2499)" fill="white"/>
<path fill-rule="evenodd" clip-rule="evenodd" d="M1.54607 0.10431C0.94707 0.0323105 0.15607 -0.24969 0.0160698 0.58131C-0.12993 1.45331 0.75207 1.36531 1.31807 1.49231C5.16507 2.35231 6.50407 3.75131 7.13807 7.56831C7.23107 8.12431 7.04607 8.99031 7.99207 8.84731C8.69207 8.74031 8.44007 7.99831 8.49807 7.56431C8.52907 3.90031 5.39007 0.56531 1.54607 0.10431Z" transform="translate(25.6963 15.2325)" fill="white"/>
<path fill-rule="evenodd" clip-rule="evenodd" d="M0.996078 0.000636965C0.596078 0.010637 0.204078 0.053637 0.0570782 0.480637C-0.164922 1.11964 0.300078 1.27164 0.773078 1.34764C2.35108 1.60164 3.18208 2.53164 3.33908 4.10564C3.38208 4.53264 3.65308 4.87864 4.06508 4.83064C4.63708 4.76164 4.68908 4.25264 4.67108 3.76964C4.70008 2.00164 2.70108 -0.041363 0.996078 0.000636965Z" transform="translate(26.5996 18.3323)" fill="white"/>
</svg>
