<svg width="50" height="50" viewBox="0 0 50 50" fill="none" xmlns="http://www.w3.org/2000/svg">
<path fill-rule="evenodd" clip-rule="evenodd" d="M25 0C11.193 0 0 11.193 0 25C0 29.918 1.426 34.5 3.878 38.367L0 50L11.888 46.285C15.7 48.639 20.19 50 25 50C38.807 50 50 38.807 50 25C50 11.193 38.807 0 25 0Z" fill="#FF4114"/>
<path d="M33.5001 26.27C35.0301 26.27 36.2001 25.1 36.2001 23.63C36.2001 22.19 35.0301 21.02 33.5001 21.02C32.0001 21.02 30.8601 22.19 30.8601 23.63C30.8601 25.1 32.0001 26.27 33.5001 26.27ZM24.9801 26.27C26.5101 26.27 27.6801 25.1 27.6801 23.63C27.6801 22.19 26.5101 21.02 24.9801 21.02C23.4801 21.02 22.3401 22.19 22.3401 23.63C22.3401 25.1 23.4801 26.27 24.9801 26.27ZM16.4601 26.27C17.9901 26.27 19.1601 25.1 19.1601 23.63C19.1601 22.19 17.9901 21.02 16.4601 21.02C14.9601 21.02 13.7901 22.19 13.7901 23.63C13.7901 25.1 14.9601 26.27 16.4601 26.27Z" transform="translate(0 3)" fill="#FFFEFE"/>
</svg>
