<svg width="50" height="50" viewBox="0 0 50 50" fill="none" xmlns="http://www.w3.org/2000/svg">
<path fill-rule="evenodd" clip-rule="evenodd" d="M50 25C50 38.807 38.807 50 25 50C11.193 50 0 38.807 0 25C0 11.193 11.193 0 25 0C38.807 0 50 11.193 50 25Z" fill="#1FB400"/>
<path fill-rule="evenodd" clip-rule="evenodd" d="M20.5842 16.995C20.2322 16.819 18.5062 15.97 18.1842 15.852C17.8622 15.735 17.6282 15.677 17.3942 16.028C17.1592 16.38 16.4862 17.171 16.2812 17.405C16.0772 17.64 15.8722 17.669 15.5212 17.493C15.1692 17.317 14.0372 16.947 12.6962 15.75C11.6512 14.819 10.9462 13.669 10.7422 13.318C10.5372 12.966 10.7202 12.776 10.8962 12.601C11.0542 12.444 11.2472 12.191 11.4222 11.986C11.5982 11.781 11.6572 11.634 11.7742 11.4C11.8912 11.166 11.8332 10.96 11.7452 10.785C11.6572 10.609 10.9542 8.88101 10.6622 8.17801C10.3762 7.49301 10.0872 7.58601 9.87123 7.57501C9.66723 7.56501 9.43223 7.56201 9.19823 7.56201C8.96423 7.56201 8.58423 7.65001 8.26123 8.00201C7.93923 8.35301 7.03223 9.20301 7.03223 10.932C7.03223 12.66 8.29123 14.329 8.46623 14.564C8.64223 14.798 10.9432 18.345 14.4672 19.866C15.3052 20.227 15.9592 20.444 16.4692 20.605C17.3112 20.872 18.0762 20.835 18.6812 20.745C19.3562 20.643 20.7592 19.895 21.0522 19.075C21.3452 18.255 21.3452 17.552 21.2572 17.405C21.1692 17.259 20.9352 17.171 20.5842 16.995ZM14.1752 25.743H14.1702C12.0742 25.742 10.0172 25.179 8.22421 24.115L7.79721 23.862L3.37521 25.021L4.55521 20.711L4.27721 20.269C3.10721 18.41 2.49021 16.26 2.49121 14.053C2.49321 7.61299 7.73521 2.37299 14.1802 2.37299C17.3002 2.37499 20.2342 3.59099 22.4402 5.79899C24.6462 8.00699 25.8602 10.941 25.8592 14.062C25.8562 20.503 20.6152 25.743 14.1752 25.743ZM24.119 4.121C21.465 1.465 17.936 0.002 14.175 0C6.427 0 0.121 6.304 0.117 14.052C0.116 16.529 0.764 18.947 1.994 21.078L0 28.36L7.452 26.406C9.505 27.525 11.816 28.115 14.169 28.116H14.175C14.175 28.116 14.174 28.116 14.175 28.116C21.922 28.116 28.23 21.812 28.232 14.063C28.234 10.308 26.773 6.778 24.119 4.121Z" transform="translate(11.7676 9.65253)" fill="white"/>
</svg>
