<svg width="50" height="50" viewBox="0 0 50 50" fill="none" xmlns="http://www.w3.org/2000/svg">
<path fill-rule="evenodd" clip-rule="evenodd" d="M50 25C50 38.807 38.807 50 25 50C11.193 50 0 38.807 0 25C0 11.193 11.193 0 25 0C38.807 0 50 11.193 50 25Z" fill="#34A6DE"/>
<path fill-rule="evenodd" clip-rule="evenodd" d="M24.9997 0.765188L21.0457 20.7012C21.0457 20.7012 20.4927 22.0832 18.9717 21.4192L9.84767 14.4242L6.52967 12.8202L0.944674 10.9402C0.944674 10.9402 0.0866736 10.6362 0.00467363 9.97319C-0.0783264 9.30919 0.971674 8.94919 0.971674 8.94919L23.1747 0.240188C23.1747 0.240188 24.9997 -0.561812 24.9997 0.765188Z" transform="translate(11.0005 15.0002)" fill="white"/>
<path fill-rule="evenodd" clip-rule="evenodd" d="M2.617 16.3809C2.617 16.3809 2.351 16.3559 2.019 15.3049C1.687 14.2549 0 8.72489 0 8.72489L13.41 0.208889C13.41 0.208889 14.185 -0.261111 14.157 0.208889C14.157 0.208889 14.295 0.291889 13.881 0.678889C13.466 1.06589 3.346 10.1629 3.346 10.1629" transform="translate(17.5293 19.0959)" fill="#EEEFEF"/>
<path fill-rule="evenodd" clip-rule="evenodd" d="M4.2 2.742L0.591 6.033C0.591 6.033 0.308 6.246 0 6.112L0.691 0" transform="translate(20.1465 29.3647)" fill="#CFCFCF"/>
</svg>
