<svg width="50" height="50" viewBox="0 0 50 50" fill="none" xmlns="http://www.w3.org/2000/svg">
<path fill-rule="evenodd" clip-rule="evenodd" d="M50 25C50 38.807 38.807 50 25 50C11.193 50 0 38.807 0 25C0 11.193 11.193 0 25 0C38.807 0 50 11.193 50 25Z" fill="#4C75A3"/>
<mask id="mask0" mask-type="alpha" maskUnits="userSpaceOnUse" x="9" y="16" width="30" height="19">
<path fill-rule="evenodd" clip-rule="evenodd" d="M0 0H29.9998V17.1147H0V0Z" transform="translate(9 16.9999)" fill="white"/>
</mask>
<g mask="url(#mask0)">
<path fill-rule="evenodd" clip-rule="evenodd" d="M14.6784 17.043H16.4714C16.4714 17.043 17.0124 16.983 17.2894 16.686C17.5444 16.412 17.5364 15.898 17.5364 15.898C17.5364 15.898 17.5014 13.492 18.6174 13.137C19.7184 12.788 21.1324 15.463 22.6304 16.491C23.7634 17.269 24.6244 17.099 24.6244 17.099L28.6314 17.043C28.6314 17.043 30.7264 16.914 29.7324 15.266C29.6514 15.131 29.1544 14.047 26.7544 11.819C24.2414 9.48798 24.5784 9.86498 27.6044 5.83198C29.4474 3.37598 30.1834 1.87598 29.9534 1.23398C29.7344 0.621977 28.3784 0.783977 28.3784 0.783977L23.8674 0.811977C23.8674 0.811977 23.5334 0.765977 23.2854 0.913977C23.0434 1.05898 22.8874 1.39798 22.8874 1.39798C22.8874 1.39798 22.1734 3.29898 21.2214 4.91498C19.2124 8.32598 18.4094 8.50598 18.0814 8.29398C17.3174 7.80098 17.5084 6.31198 17.5084 5.25298C17.5084 1.94798 18.0094 0.569977 16.5324 0.212977C16.0414 0.0949771 15.6804 0.0169771 14.4264 0.00397711C12.8164 -0.0130229 11.4544 0.00897712 10.6834 0.386977C10.1704 0.637977 9.7744 1.19798 10.0154 1.22998C10.3134 1.26998 10.9884 1.41198 11.3464 1.89898C11.8084 2.52798 11.7924 3.93998 11.7924 3.93998C11.7924 3.93998 12.0584 7.83198 11.1724 8.31498C10.5644 8.64698 9.7304 7.96998 7.9394 4.87498C7.0224 3.28998 6.3294 1.53798 6.3294 1.53798C6.3294 1.53798 6.1964 1.20998 5.9574 1.03498C5.6684 0.822977 5.2644 0.755977 5.2644 0.755977L0.978398 0.783977C0.978398 0.783977 0.334398 0.801977 0.0983976 1.08198C-0.112602 1.33098 0.0813976 1.84498 0.0813976 1.84498C0.0813976 1.84498 3.4374 9.69598 7.2374 13.653C10.7214 17.281 14.6784 17.043 14.6784 17.043Z" transform="translate(9 16.9999)" fill="white"/>
</g>
</svg>
