<svg width="22" height="22" viewBox="0 0 22 22" fill="none" xmlns="http://www.w3.org/2000/svg">
<rect width="22" height="22" rx="11" fill="#4D4D4D"/>
<path d="M8.23687 5.69792H9.47222C9.52593 4.91016 10.0571 4.41482 10.8806 4.41482C11.6982 4.41482 12.2294 4.91016 12.2294 5.58453C12.2294 6.19922 11.9728 6.54536 11.2507 6.98101C10.4331 7.47038 10.069 8.00749 10.0988 8.84896L10.1048 9.32639H11.3402V8.96235C11.3402 8.34766 11.561 8.03136 12.3308 7.5778C13.1186 7.10634 13.5841 6.45584 13.5841 5.53082C13.5841 4.25369 12.5218 3.31673 10.9463 3.31673C9.2156 3.31673 8.29058 4.34321 8.23687 5.69792ZM10.7314 12.0895C11.179 12.0895 11.5192 11.7553 11.5192 11.3197C11.5192 10.884 11.179 10.5498 10.7314 10.5498C10.2958 10.5498 9.94965 10.884 9.94965 11.3197C9.94965 11.7553 10.2958 12.0895 10.7314 12.0895Z" transform="translate(0 3.11133)" fill="white"/>
</svg>
