<svg width="3" height="16" viewBox="0 0 3 16" fill="none" xmlns="http://www.w3.org/2000/svg">
<path fill-rule="evenodd" clip-rule="evenodd" d="M0 1.5C0 0.671573 0.671573 0 1.5 0H9.5C10.3284 0 11 0.671573 11 1.5V1.5C11 2.32843 10.3284 3 9.5 3H1.5C0.671573 3 0 2.32843 0 1.5V1.5Z" transform="translate(0 11) rotate(-90)" fill="#FF4114"/>
<path fill-rule="evenodd" clip-rule="evenodd" d="M1.5 3C2.32843 3 3 2.32843 3 1.5C3 0.671573 2.32843 0 1.5 0C0.671573 0 0 0.671573 0 1.5C0 2.32843 0.671573 3 1.5 3Z" transform="translate(0 13)" fill="#FF4114"/>
</svg>
