<?xml version="1.0" encoding="utf-8"?>
<!-- Generator: Adobe Illustrator 19.1.0, SVG Export Plug-In . SVG Version: 6.00 Build 0)  -->
<svg version="1.1" id="Layer_1" xmlns="http://www.w3.org/2000/svg" xmlns:xlink="http://www.w3.org/1999/xlink" x="0px" y="0px"
	 viewBox="0 0 16 16" style="enable-background:new 0 0 16 16;" xml:space="preserve">
<g>
	<rect x="0.3" y="12.3" width="15.6" height="3.7"/>
	<polygon points="8,0 0.2,3.4 0.2,5 8,1.7 15.8,5 15.8,3.4 	"/>
	<polygon points="0.3,6 0.3,11.1 1.6,11.1 1.6,7.2 3.2,7.2 3.2,11.1 4.6,11.1 4.6,6 	"/>
	<polygon points="8.7,6 10.1,6 10.1,11.1 8.7,11.1 8.7,8.1 7,11.1 5.6,11.1 5.6,6 7,6 7,9 	"/>
	<polygon points="14.3,6 12.6,8.1 12.6,8.1 12.6,6 11.2,6 11.2,11.1 12.6,11.1 12.6,8.6 12.6,8.6 14.2,11.1 15.9,11.1 13.8,8.4 
		15.9,6 	"/>
</g>
</svg>
