<?xml version="1.0" encoding="utf-8"?>
<!-- Generator: Adobe Illustrator 22.1.0, SVG Export Plug-In . SVG Version: 6.00 Build 0)  -->
<svg version="1.1" id="Layer_1" xmlns="http://www.w3.org/2000/svg" xmlns:xlink="http://www.w3.org/1999/xlink" x="0px" y="0px"
	 viewBox="0 0 64.5 54" style="enable-background:new 0 0 64.5 54;" xml:space="preserve">
<style type="text/css">
	.st0{fill:#FFFFFF;filter:url(#Adobe_OpacityMaskFilter);}
	.st1{mask:url(#mask0_1_);}
	.st2{fill:#333333;}
	.st3{fill:#FFFFFF;filter:url(#Adobe_OpacityMaskFilter_1_);}
	.st4{mask:url(#mask1_1_);}
	.st5{fill:#FFFFFF;filter:url(#Adobe_OpacityMaskFilter_2_);}
	.st6{mask:url(#mask2_1_);}
	.st7{fill:#FFFFFF;filter:url(#Adobe_OpacityMaskFilter_3_);}
	.st8{mask:url(#mask3_1_);}
</style>
<g>
	<defs>
		<filter id="Adobe_OpacityMaskFilter" filterUnits="userSpaceOnUse" x="9.4" y="9.2" width="22.6" height="26.4">
			<feColorMatrix  type="matrix" values="1 0 0 0 0  0 1 0 0 0  0 0 1 0 0  0 0 0 1 0"/>
		</filter>
	</defs>
	<mask maskUnits="userSpaceOnUse" x="9.4" y="9.2" width="22.6" height="26.4" id="mask0_1_">
		<path class="st0" d="M14.4,21.9v0.9c0,4.7,2.5,7.7,6.4,7.7c3.9,0,6.2-3.1,6.2-7.8v-0.9c0-4.6-2.3-7.7-6.2-7.7
			C16.8,14.2,14.4,17.2,14.4,21.9z M16.4,22.8v-0.9c0-3.9,1.6-6.2,4.3-6.2s4.3,2.4,4.3,6.1v0.9c0,4.1-1.4,6.2-4.2,6.2
			C18.1,29,16.4,26.9,16.4,22.8z"/>
	</mask>
	<g class="st1">
		<path class="st2" d="M9.4,35.6H32V9.2H9.4V35.6z"/>
	</g>
	<defs>
		<filter id="Adobe_OpacityMaskFilter_1_" filterUnits="userSpaceOnUse" x="25.7" y="9.6" width="22" height="25.5">
			<feColorMatrix  type="matrix" values="1 0 0 0 0  0 1 0 0 0  0 0 1 0 0  0 0 0 1 0"/>
		</filter>
	</defs>
	<mask maskUnits="userSpaceOnUse" x="25.7" y="9.6" width="22" height="25.5" id="mask1_1_">
		<path class="st3" d="M32.9,14.6v7.7h-2.2v1.3h2.2v1.7h-2.2v1.3h2.2v3.6h1.9v-3.6H40v-1.3h-5.3v-1.5h2.5c2.9,0,5.4-1.3,5.4-4.6
			v-0.1c0-3.2-2.4-4.5-5.4-4.5H32.9z M34.8,16.2h2.6c2.1,0,3.4,0.8,3.4,3v0.1c0,2-1.2,3.1-3.4,3.1h-2.6V16.2z"/>
	</mask>
	<g class="st4">
		<path class="st2" d="M25.7,35.1h22V9.6h-22V35.1z"/>
	</g>
	<defs>
		<filter id="Adobe_OpacityMaskFilter_2_" filterUnits="userSpaceOnUse" x="-3.8" y="-2.6" width="72.8" height="50">
			<feColorMatrix  type="matrix" values="1 0 0 0 0  0 1 0 0 0  0 0 1 0 0  0 0 0 1 0"/>
		</filter>
	</defs>
	<mask maskUnits="userSpaceOnUse" x="-3.8" y="-2.6" width="72.8" height="50" id="mask2_1_">
		<path class="st5" d="M6.2,2.4c-2.8,0-5.1,2.3-5.1,5.1v29.9c0,2.8,2.3,5.1,5.1,5.1h37.1c1.2,0,2.4-0.4,3.3-1.2l15.6-14.9
			c1.2-1,1.8-2.4,1.8-3.8v-0.2c0-1.4-0.6-2.8-1.8-3.8L46.6,3.6c-0.9-0.8-2.1-1.2-3.3-1.2H6.2z M3.2,37.3V7.4c0-1.7,1.4-3.1,3.1-3.1
			h37.1c0.7,0,1.4,0.2,1.9,0.7L60.8,20l0,0l0,0c0.7,0.6,1.1,1.4,1.1,2.3c0,0.9-0.4,1.8-1.1,2.3l0,0l0,0L45.3,39.7
			c-0.5,0.4-1.2,0.7-1.9,0.7H6.2C4.6,40.4,3.2,39,3.2,37.3z"/>
	</mask>
	<g class="st6">
		<path class="st2" d="M-3.8,47.4H69v-50H-3.8V47.4z"/>
	</g>
	<defs>
		<filter id="Adobe_OpacityMaskFilter_3_" filterUnits="userSpaceOnUse" x="51.5" y="15.9" width="13" height="13">
			<feColorMatrix  type="matrix" values="1 0 0 0 0  0 1 0 0 0  0 0 1 0 0  0 0 0 1 0"/>
		</filter>
	</defs>
	<mask maskUnits="userSpaceOnUse" x="51.5" y="15.9" width="13" height="13" id="mask3_1_">
		<path class="st7" d="M56.5,22.4c0,0.8,0.7,1.5,1.5,1.5s1.5-0.7,1.5-1.5c0-0.8-0.7-1.5-1.5-1.5S56.5,21.5,56.5,22.4z"/>
	</mask>
	<g class="st8">
		<path class="st2" d="M51.5,28.9h13v-13h-13V28.9z"/>
	</g>
</g>
</svg>
