<?xml version="1.0" encoding="utf-8"?>
<!-- Generator: Adobe Illustrator 22.1.0, SVG Export Plug-In . SVG Version: 6.00 Build 0)  -->
<svg version="1.1" id="Layer_1" xmlns="http://www.w3.org/2000/svg" xmlns:xlink="http://www.w3.org/1999/xlink" x="0px" y="0px"
	 viewBox="0 0 69.1 55.7" style="enable-background:new 0 0 69.1 55.7;" xml:space="preserve">
<style type="text/css">
	.st0{fill:none;stroke:#333333;stroke-width:2;}
	.st1{fill:#FFFFFF;}
	.st2{fill:none;stroke:#333333;stroke-width:2;stroke-miterlimit:10;}
</style>
<g transform="translate(-455 -594)">
	<path class="st0" d="M495,635.6h-39V595h51.8v24.5c-5.7-2-11.9,1-13.9,6.6C492.8,629.3,493.2,632.8,495,635.6L495,635.6z"/>
	<path class="st1" d="M523.4,649l-19.7-19.7L523.4,649z"/>
	<path class="st2" d="M512.2,637.8l11.2,11.2"/>
	<path class="st2" d="M515.1,629.8c0,6-4.9,10.9-10.9,10.9c-6,0-10.9-4.9-10.9-10.9s4.9-10.9,10.9-10.9c0,0,0,0,0,0
		C510.2,618.9,515.1,623.8,515.1,629.8z"/>
	<path class="st2" d="M473.2,604.4c0,2.3-1.9,4.2-4.2,4.2c-2.3,0-4.2-1.9-4.2-4.2s1.9-4.2,4.2-4.2c0,0,0,0,0,0
		C471.3,600.2,473.2,602.1,473.2,604.4L473.2,604.4z"/>
	<path class="st2" d="M475.6,615.3c0-3.7-3.1-6.6-6.7-6.6c-3.6,0-6.5,3-6.6,6.6H475.6z"/>
	<path class="st2" d="M482.5,607.5h19.2"/>
	<path class="st2" d="M482.5,603.4h19.2"/>
</g>
</svg>
