<?xml version="1.0" encoding="utf-8"?>
<!-- Generator: Adobe Illustrator 22.1.0, SVG Export Plug-In . SVG Version: 6.00 Build 0)  -->
<svg version="1.1" id="Layer_1" xmlns="http://www.w3.org/2000/svg" xmlns:xlink="http://www.w3.org/1999/xlink" x="0px" y="0px"
	 viewBox="0 0 54 46.4" style="enable-background:new 0 0 54 46.4;" xml:space="preserve">
<style type="text/css">
	.st0{fill:none;stroke:#333333;stroke-width:2;stroke-miterlimit:10;}
	.st1{fill:#333333;}
	.st2{fill:none;}
</style>
<path class="st0" d="M27,10l-9.6,9h19.1L27,10z"/>
<path class="st0" d="M33.9,19.1v12H20v-12"/>
<path class="st0" d="M5.3,22.7c0,11.9,9.8,21.7,21.7,21.7c10.2,0,19-7,21.2-17.1"/>
<path class="st1" d="M53.4,34.8l-1.6,0.8l-4-7.8l-7.4,4.5l-0.9-1.5l9.1-5.5L53.4,34.8z"/>
<path class="st0" d="M48.7,22.7C48.7,10.8,38.9,1,27,1C16.7,1,8,8,5.8,18.1"/>
<rect x="0.6" y="9.7" class="st2" width="13.9" height="10.3"/>
<path class="st1" d="M0.6,10.5l1.6-0.8l4,7.8l7.4-4.5l0.9,1.5l-9,5.5L0.6,10.5z"/>
</svg>
