<?xml version="1.0" encoding="utf-8"?>
<!-- Generator: Adobe Illustrator 22.1.0, SVG Export Plug-In . SVG Version: 6.00 Build 0)  -->
<svg version="1.1" id="Layer_1" xmlns="http://www.w3.org/2000/svg" xmlns:xlink="http://www.w3.org/1999/xlink" x="0px" y="0px"
	 viewBox="0 0 64.5 54" style="enable-background:new 0 0 64.5 54;" xml:space="preserve">
<style type="text/css">
	.st0{fill:#333333;}
</style>
<g>
	<path class="st0" d="M13.1,19.4v0.9c0,4.6,2.5,7.7,6.3,7.7c3.9,0,6.1-3.1,6.1-7.7v-0.9c0-4.5-2.3-7.6-6.2-7.6
		C15.5,11.7,13.1,14.7,13.1,19.4z M15.1,20.2v-0.9c0-3.9,1.6-6.1,4.3-6.1s4.2,2.4,4.2,6.1v0.9c0,4-1.4,6.1-4.2,6.1
		C16.7,26.3,15.1,24.2,15.1,20.2z"/>
	<path class="st0" d="M31.4,12.1v7.6h-2.1V21h2.1v1.7h-2.1v1.2h2.1v3.5h1.9v-3.5h5.2v-1.2h-5.2v-1.5h2.5c2.9,0,5.4-1.3,5.4-4.5v-0.1
		c0-3.2-2.4-4.5-5.4-4.5H31.4z M33.2,13.6h2.6c2.1,0,3.4,0.8,3.4,3v0.1c0,2-1.2,3-3.4,3h-2.6V13.6z"/>
	<path class="st0" d="M60.4,16L45,1.2C44.1,0.4,42.9,0,41.7,0H5C2.2,0,0,2.2,0,5v29.6c0,2.8,2.2,5,5,5h36.7c1.2,0,2.3-0.4,3.2-1.2
		l15.5-14.8c1.2-1,1.7-2.4,1.8-3.7v-0.2C62.2,18.3,61.6,17,60.4,16z M59.1,22.1L59.1,22.1L59.1,22.1L43.6,36.9
		c-0.5,0.4-1.2,0.7-1.9,0.7H5c-1.7,0-3-1.4-3-3V5c0-1.7,1.4-3,3-3h36.7c0.7,0,1.4,0.2,1.9,0.7L59,17.4l0,0l0,0
		c0.7,0.6,1.1,1.4,1.1,2.3C60.2,20.7,59.8,21.5,59.1,22.1z"/>
	<path class="st0" d="M56.2,21.3c-0.8,0-1.5-0.7-1.5-1.5c0-0.8,0.7-1.5,1.5-1.5c0.8,0,1.5,0.7,1.5,1.5
		C57.7,20.6,57.1,21.3,56.2,21.3z"/>
</g>
</svg>
