<svg width="42" height="42" viewBox="0 0 42 42" fill="none" xmlns="http://www.w3.org/2000/svg">
<path fill-rule="evenodd" clip-rule="evenodd" d="M20.986 0L0 10.6693V15.2419L20.986 4.57258L41.9718 15.2419V10.6693L20.986 0Z" transform="translate(0 0.0141602)" fill="#0A055F"/>
<path fill-rule="evenodd" clip-rule="evenodd" d="M3.55406 3.21774H8.63124V13.5484H12.1853V0H0V13.5484H3.55406V3.21774Z" transform="translate(0 16.6108)" fill="#0A055F"/>
<path fill-rule="evenodd" clip-rule="evenodd" d="M0 0V13.5484H5.41572L9.98522 2.78939V13.5484H13.5393V0H8.12357L3.55406 10.759V0H0Z" transform="translate(13.8779 16.6108)" fill="#0A055F"/>
<path fill-rule="evenodd" clip-rule="evenodd" d="M0 0V13.5484H3.55406V9.20158L4.5991 8.16852L8.63124 13.5484H12.8622L7.02943 5.766L12.8622 0H8.29276L3.55406 5.08062V0H0Z" transform="translate(29.1094 16.6108)" fill="#0A055F"/>
<path fill-rule="evenodd" clip-rule="evenodd" d="M0 2.5609H1.73125L0.865612 0L0 2.5609Z" transform="translate(4.83984 34.8879)" fill="#FF4114"/>
<path fill-rule="evenodd" clip-rule="evenodd" d="M0.736255 0.0419718C0.724803 1.42117 0.507667 2.44334 0.0322686 3.35633L0 3.41823H2.30941V0H0.736594L0.736255 0.0419718Z" transform="translate(28.4766 35.2264)" fill="#FF4114"/>
<path fill-rule="evenodd" clip-rule="evenodd" d="M1.53775 0H0V1.5247H1.53775C2.05117 1.5247 2.37011 1.23259 2.37011 0.762379C2.37011 0.292137 2.05117 0 1.53775 0Z" transform="translate(10.77 35.1718)" fill="#FF4114"/>
<path fill-rule="evenodd" clip-rule="evenodd" d="M37.9052 7.91824L37.5044 6.72242H35.0286L34.6277 7.91824H33.2798L35.3649 2.24304H37.168L39.2532 7.91824H37.9052ZM32.6976 9.39828H31.4279V7.91826H27.9568V9.39828H26.687V6.81706H27.1821L27.1947 6.79886C27.7513 5.99572 28.0127 4.94355 28.0422 3.38737V3.34422H28.0414V2.24304H32.0031L32.0595 6.81706H32.6976V9.39828ZM25.8401 7.91826H24.5703V5.63124H22.0847V7.91826H20.8149V2.24304H22.0847V4.53007H24.5703V2.24304H25.8401V7.91826ZM19.7115 3.39883H16.5148V4.53007H19.4016V5.63124H16.5148V6.76245H19.7115V7.91826H15.2451V2.24304H19.7115V3.39883ZM13.8834 5.50753C13.5311 5.81013 13.0447 5.97006 12.4768 5.97006H10.7698V7.91826H9.5V2.24304H12.4768C13.0447 2.24304 13.5311 2.403 13.8834 2.70561C14.2646 3.03294 14.466 3.51738 14.466 4.10657C14.466 4.69572 14.2646 5.18016 13.8834 5.50753ZM7.34368 7.91824L6.94286 6.72242H4.46703L4.06621 7.91824H2.71826L4.80334 2.24304H6.60655L8.69163 7.91824H7.34368ZM0 10.1613H41.9718V0H0V10.1613Z" transform="translate(0 31.8275)" fill="#FF4114"/>
<path fill-rule="evenodd" clip-rule="evenodd" d="M0 2.5609H1.73122L0.865612 0L0 2.5609Z" transform="translate(35.4014 34.8879)" fill="#FF4114"/>
</svg>
