<svg xmlns="http://www.w3.org/2000/svg" xmlns:xlink="http://www.w3.org/1999/xlink" viewBox="0 0 134 134"><defs><style>.a,.c,.e{fill:none;}.a{stroke:#333;}.a,.c{stroke-miterlimit:10;stroke-width:2px;}.b{clip-path:url(#a);}.c{stroke:#ff5b35;}.d{stroke:none;}</style><clipPath id="a"><circle class="a" cx="65" cy="65" r="65"/></clipPath></defs><g transform="translate(2 2)"><g class="a"><circle class="d" cx="65" cy="65" r="65"/><circle class="e" cx="65" cy="65" r="66"/></g><g class="b"><g transform="translate(37 34)"><g class="c"><rect class="d" width="56" height="104"/><rect class="e" x="1" y="1" width="54" height="102"/></g><g class="c" transform="translate(6 6)"><rect class="d" width="12" height="12"/><rect class="e" x="1" y="1" width="10" height="10"/></g><g class="c" transform="translate(22 6)"><rect class="d" width="12" height="12"/><rect class="e" x="1" y="1" width="10" height="10"/></g><g class="c" transform="translate(38 6)"><rect class="d" width="12" height="12"/><rect class="e" x="1" y="1" width="10" height="10"/></g><g class="c" transform="translate(6 22)"><rect class="d" width="12" height="12"/><rect class="e" x="1" y="1" width="10" height="10"/></g><g class="a" transform="translate(22 22)"><rect class="d" width="12" height="12"/><rect class="e" x="1" y="1" width="10" height="10"/></g><g class="c" transform="translate(38 22)"><rect class="d" width="12" height="12"/><rect class="e" x="1" y="1" width="10" height="10"/></g><g class="c" transform="translate(6 38)"><rect class="d" width="12" height="12"/><rect class="e" x="1" y="1" width="10" height="10"/></g><g class="c" transform="translate(22 38)"><rect class="d" width="12" height="12"/><rect class="e" x="1" y="1" width="10" height="10"/></g><g class="c" transform="translate(38 38)"><rect class="d" width="12" height="12"/><rect class="e" x="1" y="1" width="10" height="10"/></g><g class="c" transform="translate(6 54)"><rect class="d" width="12" height="12"/><rect class="e" x="1" y="1" width="10" height="10"/></g><g class="c" transform="translate(22 54)"><rect class="d" width="12" height="12"/><rect class="e" x="1" y="1" width="10" height="10"/></g><g class="c" transform="translate(38 54)"><rect class="d" width="12" height="12"/><rect class="e" x="1" y="1" width="10" height="10"/></g><g class="c" transform="translate(6 70)"><rect class="d" width="12" height="12"/><rect class="e" x="1" y="1" width="10" height="10"/></g><g class="c" transform="translate(22 70)"><rect class="d" width="12" height="12"/><rect class="e" x="1" y="1" width="10" height="10"/></g><g class="c" transform="translate(38 70)"><rect class="d" width="12" height="12"/><rect class="e" x="1" y="1" width="10" height="10"/></g></g></g></g></svg>