<svg width="120" height="120" viewBox="0 0 120 120" fill="none" xmlns="http://www.w3.org/2000/svg">
<rect x="0.5" y="0.5" width="119" height="119" stroke="#D9D9D9"/>
<path d="M0.807461 12H7.99246V10.935H2.81746L5.77246 8.055C7.09246 6.765 7.93246 5.475 7.93246 4.155C7.93246 2.31 6.67246 1.14 4.69246 1.14C2.65246 1.14 1.37746 2.475 1.21246 4.575H2.42746C2.63746 2.895 3.44746 2.19 4.69246 2.19C5.90746 2.19 6.61246 2.91 6.61246 4.11C6.61246 5.205 6.04246 6.18 5.06746 7.215L0.807461 11.7V12ZM9.58164 8.46H12.7916V7.29H9.58164V8.46ZM17.7484 12.135C19.9684 12.135 21.5584 10.965 21.5584 9.015C21.5584 7.53 20.7484 6.645 19.4884 6.315C20.4634 5.91 21.1834 5.19 21.1834 3.975C21.1834 2.49 19.9984 1.14 17.9584 1.14C15.9184 1.14 14.5234 2.535 14.4484 4.23H15.5884C15.7234 3.015 16.6234 2.205 17.9584 2.205C19.2634 2.205 19.9084 2.985 19.9084 4.005C19.9084 5.175 19.2934 5.835 17.8984 5.835H17.1484V6.93H17.9584C19.4734 6.93 20.2234 7.635 20.2234 9.015C20.2234 10.275 19.4584 11.085 17.7784 11.085C16.0834 11.085 15.3184 10.11 15.1984 8.835H13.9984C14.0734 10.71 15.4684 12.135 17.7484 12.135ZM30.9359 12.135C32.8259 12.135 34.1909 10.875 34.3559 9.18H33.2009C33.0659 10.455 32.0609 11.1 30.9509 11.1C29.4359 11.1 28.3859 10.08 28.3859 8.16V8.04C28.3859 6.195 29.4809 5.055 30.9059 5.055C31.9859 5.055 32.8859 5.52 33.0809 6.765H34.3109C34.0709 4.77 32.5409 4.02 30.9059 4.02C28.8059 4.02 27.0959 5.64 27.0959 8.04V8.16C27.0959 10.59 28.7459 12.135 30.9359 12.135ZM41.7406 4.155H35.4256V5.205H37.9606V12H39.2056V5.205H41.7406V4.155ZM47.2373 11.1C45.7073 11.1 44.6573 10.155 44.6573 8.145V8.025C44.6573 6.015 45.7673 5.055 47.2223 5.055C48.5423 5.055 49.6373 6.045 49.6373 8.025V8.145C49.6373 10.05 48.7973 11.1 47.2373 11.1ZM43.4573 14.73H44.7023V10.71C45.1523 11.49 46.0673 12.135 47.3573 12.135C49.5173 12.135 50.9273 10.485 50.9273 8.085V7.965C50.9273 5.52 49.4123 4.02 47.3573 4.02C46.2173 4.02 45.1523 4.71 44.7023 5.475V4.155H43.4573V14.73ZM54.9466 11.145C53.8516 11.145 53.4616 10.635 53.4616 9.825C53.4616 8.67 54.6166 8.28 56.1916 8.28H57.2716V9.255C57.2716 10.47 56.2666 11.145 54.9466 11.145ZM54.8266 12.135C55.9816 12.135 56.6866 11.745 57.2716 11.01V12H58.5166V6.825C58.5166 4.635 57.1516 4.02 55.6516 4.02C54.1366 4.02 52.7116 4.68 52.5466 6.465H53.7916C53.9116 5.505 54.5116 5.055 55.5916 5.055C56.7916 5.055 57.2716 5.58 57.2716 6.825V7.395H56.1466C54.1366 7.395 52.2166 8.01 52.2166 9.825C52.2166 11.43 53.3716 12.135 54.8266 12.135ZM66.0621 12H67.3071V4.155H66.0621V7.455H62.2071V4.155H60.9621V12H62.2071V8.505H66.0621V12ZM71.0695 12L75.0745 5.955V12H76.3195V4.155H75.0745L71.0695 10.2V4.155H69.8245V12H71.0695ZM86.0818 13.905V10.95H84.8818V4.155H83.6368V10.95H79.9318V4.155H78.6868V12H84.9868L85.0768 13.905H86.0818ZM89.722 11.145C88.627 11.145 88.237 10.635 88.237 9.825C88.237 8.67 89.392 8.28 90.967 8.28H92.047V9.255C92.047 10.47 91.042 11.145 89.722 11.145ZM89.602 12.135C90.757 12.135 91.462 11.745 92.047 11.01V12H93.292V6.825C93.292 4.635 91.927 4.02 90.427 4.02C88.912 4.02 87.487 4.68 87.322 6.465H88.567C88.687 5.505 89.287 5.055 90.367 5.055C91.567 5.055 92.047 5.58 92.047 6.825V7.395H90.922C88.912 7.395 86.992 8.01 86.992 9.825C86.992 11.43 88.147 12.135 89.602 12.135Z" transform="translate(13 69)" fill="#979797"/>
<path fill-rule="evenodd" clip-rule="evenodd" d="M0 5.89286V33H45V5.89286H32.5658L29.0132 0H27.8289H17.1711H15.9868L12.4342 5.89286H0Z" transform="translate(38 27)" stroke="#979797" stroke-width="1.18421"/>
<path fill-rule="evenodd" clip-rule="evenodd" d="M18.9474 9.42857C18.9474 14.6355 14.7055 18.8571 9.47368 18.8571C4.24184 18.8571 0 14.6355 0 9.42857C0 4.22164 4.24184 0 9.47368 0C14.7055 0 18.9474 4.22164 18.9474 9.42857Z" transform="translate(51 36)" stroke="#979797" stroke-width="1.18421"/>
</svg>
