<svg width="120" height="120" viewBox="0 0 120 120" fill="none" xmlns="http://www.w3.org/2000/svg">
<path fill-rule="evenodd" clip-rule="evenodd" d="M0 5.89286V33H45V5.89286H32.5658L29.0132 0H27.8289H17.1711H15.9868L12.4342 5.89286H0Z" transform="translate(38 27)" stroke="#979797" stroke-width="1.18421"/>
<path fill-rule="evenodd" clip-rule="evenodd" d="M18.9474 9.42857C18.9474 14.6355 14.7055 18.8571 9.47368 18.8571C4.24184 18.8571 0 14.6355 0 9.42857C0 4.22164 4.24184 0 9.47368 0C14.7055 0 18.9474 4.22164 18.9474 9.42857Z" transform="translate(51 36)" stroke="#979797" stroke-width="1.18421"/>
<rect x="0.5" y="0.5" width="119" height="119" stroke="#D9D9D9"/>
<path d="M6.80857 12H8.11357V1.275H6.89857L4.40857 3.075V4.29L6.80857 2.565V12ZM14.3033 7.2C12.8483 7.2 11.9183 6.195 11.9183 4.65C11.9183 3.135 12.8783 2.145 14.2883 2.145C15.7283 2.145 16.7633 3.12 16.7633 4.875C16.7633 6.27 15.7433 7.2 14.3033 7.2ZM14.1083 12.12C16.6733 12.12 18.1433 10.155 18.1433 6.6V5.925C18.1433 2.835 16.8233 1.125 14.2883 1.125C12.0233 1.125 10.5833 2.565 10.5833 4.71C10.5833 6.735 12.0233 8.22 14.1083 8.22C15.3383 8.22 16.3733 7.665 16.8833 6.795C16.8533 9.645 15.8483 11.055 14.1383 11.055C12.7583 11.055 12.1583 10.41 11.9183 9.36H10.6583C10.9433 11.085 12.1283 12.12 14.1083 12.12ZM27.5448 12.135C29.4348 12.135 30.7998 10.875 30.9648 9.18H29.8098C29.6748 10.455 28.6698 11.1 27.5598 11.1C26.0448 11.1 24.9948 10.08 24.9948 8.16V8.04C24.9948 6.195 26.0898 5.055 27.5148 5.055C28.5948 5.055 29.4948 5.52 29.6898 6.765H30.9198C30.6798 4.77 29.1498 4.02 27.5148 4.02C25.4148 4.02 23.7048 5.64 23.7048 8.04V8.16C23.7048 10.59 25.3548 12.135 27.5448 12.135ZM38.3495 4.155H32.0345V5.205H34.5695V12H35.8145V5.205H38.3495V4.155ZM43.8462 11.1C42.3162 11.1 41.2662 10.155 41.2662 8.145V8.025C41.2662 6.015 42.3762 5.055 43.8312 5.055C45.1512 5.055 46.2462 6.045 46.2462 8.025V8.145C46.2462 10.05 45.4062 11.1 43.8462 11.1ZM40.0662 14.73H41.3112V10.71C41.7612 11.49 42.6762 12.135 43.9662 12.135C46.1262 12.135 47.5362 10.485 47.5362 8.085V7.965C47.5362 5.52 46.0212 4.02 43.9662 4.02C42.8262 4.02 41.7612 4.71 41.3112 5.475V4.155H40.0662V14.73ZM51.5554 11.145C50.4604 11.145 50.0704 10.635 50.0704 9.825C50.0704 8.67 51.2254 8.28 52.8004 8.28H53.8804V9.255C53.8804 10.47 52.8754 11.145 51.5554 11.145ZM51.4354 12.135C52.5904 12.135 53.2954 11.745 53.8804 11.01V12H55.1254V6.825C55.1254 4.635 53.7604 4.02 52.2604 4.02C50.7454 4.02 49.3204 4.68 49.1554 6.465H50.4004C50.5204 5.505 51.1204 5.055 52.2004 5.055C53.4004 5.055 53.8804 5.58 53.8804 6.825V7.395H52.7554C50.7454 7.395 48.8254 8.01 48.8254 9.825C48.8254 11.43 49.9804 12.135 51.4354 12.135ZM62.671 12H63.916V4.155H62.671V7.455H58.816V4.155H57.571V12H58.816V8.505H62.671V12ZM67.6783 12L71.6833 5.955V12H72.9283V4.155H71.6833L67.6783 10.2V4.155H66.4333V12H67.6783ZM82.6906 13.905V10.95H81.4906V4.155H80.2456V10.95H76.5406V4.155H75.2956V12H81.5956L81.6856 13.905H82.6906ZM86.3308 11.145C85.2358 11.145 84.8458 10.635 84.8458 9.825C84.8458 8.67 86.0008 8.28 87.5758 8.28H88.6558V9.255C88.6558 10.47 87.6508 11.145 86.3308 11.145ZM86.2108 12.135C87.3658 12.135 88.0708 11.745 88.6558 11.01V12H89.9008V6.825C89.9008 4.635 88.5358 4.02 87.0358 4.02C85.5208 4.02 84.0958 4.68 83.9308 6.465H85.1758C85.2958 5.505 85.8958 5.055 86.9758 5.055C88.1758 5.055 88.6558 5.58 88.6558 6.825V7.395H87.5308C85.5208 7.395 83.6008 8.01 83.6008 9.825C83.6008 11.43 84.7558 12.135 86.2108 12.135Z" transform="translate(13 69)" fill="#979797"/>
</svg>
